
<svg width="227px" height="155px" viewBox="0 0 227 155" version="1.1" xmlns="http://www.w3.org/2000/svg" xmlns:xlink="http://www.w3.org/1999/xlink">
    <g id="Welcome" stroke="none" stroke-width="1" fill="none" fill-rule="evenodd">
        <g id="Assocs" transform="translate(-410.000000, -155.000000)">
            <g id="Group">
                <g id="assoc-women-copy" transform="translate(410.000000, 155.000000)">
                    <g id="drawkit-support-woman-monochrome" transform="translate(0.000000, 0.626263)">
                        <path d="M32.1539828,111.847826 C32.021732,111.847826 31.9387511,116.015083 31.8946675,122.765199 C32.0943403,124.935536 32.2343706,126.425343 32.2343706,126.59876 C32.2290179,126.6362 32.2082964,126.669603 32.1773212,126.690724 C32.8258759,127.987225 33.1567547,129.422915 33.1419741,130.876373 C33.1665924,132.553717 32.7166664,134.203127 31.8453976,135.629569 C31.801314,169.524662 32.1539828,227.690217 32.1539828,227.690217 L40.1253351,227.690217 L62.3564356,121.974313 C53.752354,120.305834 39.6300429,115.037643 32.1539828,111.847826 Z" id="Path" fill="#000000" fill-rule="nonzero"></path>
                        <path d="M30.582689,103.664302 C30.1120045,107.259656 32.244878,127.442002 32.244878,128.111647 C32.2393261,128.149511 32.2178337,128.183293 32.1857062,128.204653 C32.8583891,129.515855 33.2015776,130.967825 33.1862471,132.437764 C33.1921904,133.590886 32.9852925,134.735418 32.575702,135.815217 L41.1287129,135.182775 L38.5574303,101.195652 L30.9619263,101.756347 C30.7682732,102.588088 30.6364816,103.244446 30.582689,103.664302 Z" id="Path" fill="#DFDFDF" fill-rule="nonzero"></path>
                        <path d="M24.0684437,132.477049 C24.0497034,130.943504 24.4417017,129.430423 25.2079208,128.07876 C25.1235151,126.748364 22.6054115,118.784613 21.6600676,104.79949 C21.6094241,104.049147 21.5737862,103.291708 21.5531537,102.527174 L13.2673267,103.115209 L15.9570553,137.146739 L25.0053471,136.508149 C24.3763322,135.248224 24.0560762,133.870298 24.0684437,132.477049 L24.0684437,132.477049 Z" id="Path" fill="#DFDFDF" fill-rule="nonzero"></path>
                        <path d="M74.1389943,124.155751 C74.3097745,127.649783 82.2574257,229.021739 82.2574257,229.021739 L74.1389943,229.021739 L53.0693069,152.89211 C53.0693069,152.89211 58.5572136,122.428603 58.9319105,122.500126 C60.721279,122.990191 70.6520197,124.812703 74.1389943,124.155751 Z" id="Path" fill="#000000" fill-rule="nonzero"></path>
                        <path d="M84.7536826,67.474508 C87.2802117,69.4515534 91.5554852,73.2920801 93.6499118,76.0666541 C95.7417965,74.4922447 119.532855,54.4275575 119.998001,53.3254708 C120.92575,52.775718 122.941382,55.844526 119.998001,58.3610001 C122.01109,58.2835702 133.868493,57.9686883 133.868493,58.3610001 C133.868493,58.753312 136.425523,59.8579796 118.988914,62.6893357 C116.665728,65.5284347 95.7417965,90.5434783 92.3332698,90.5434783 C90.0049996,90.5434783 82.8015957,84.1658294 78.2772277,79.341942" id="Path" stroke="#000000" stroke-width="2.5" stroke-linecap="round" stroke-linejoin="round"></path>
                        <path d="M75.7682106,74.5652174 C79.5919747,72.2503505 83.6601675,68.2074462 84.8795015,65.0434341 C85.6015496,63.1666611 73.7003998,54.4967273 66.3366337,53.2608696" id="Path" stroke="#000000" stroke-width="2.5" stroke-linecap="round" stroke-linejoin="round"></path>
                        <path d="M31.8415842,112.919264 C37.9101684,117.622071 72.7795701,127.648414 75.7350494,124.594745 C78.6905288,121.541077 83.9814935,55.8490703 58.0809863,47.9347826" id="Path" stroke="#000000" stroke-width="2.5" stroke-linecap="round" stroke-linejoin="round"></path>
                        <path d="M47.7623762,45.2717391 C42.6109737,46.2628817 38.7273699,49.1841438 35.8217822,53.2608696" id="Path" stroke="#000000" stroke-width="2.5" stroke-linecap="round" stroke-linejoin="round"></path>
                        <path d="M51.7425743,50.5978261 C55.0594059,50.5978261 58.3762376,50.1539855 58.3762376,49.2924126 L58.3762376,38.6141304" id="Path" stroke="#000000" stroke-width="2.5" stroke-linecap="round" stroke-linejoin="round"></path>
                        <path d="M47.7623762,39.9456522 L47.7623762,46.6032609" id="Path" stroke="#000000" stroke-width="2.5" stroke-linecap="round" stroke-linejoin="round"></path>
                        <ellipse id="Oval" stroke="#000000" stroke-width="2.5" cx="53.0693069" cy="23.3016304" rx="10.6138614" ry="17.9755435"></ellipse>
                        <path d="M51.7884996,0.785816108 C46.4144669,0.785816108 39.265572,3.40520314 34.0919269,3.40520314 C29.4205522,3.40520314 20.8871607,0 16.3953542,0 C13.5326733,0 0,1.34112616 0,12.311119 C0,17.2617605 5.20487433,22.002851 6.2458492,23.3125445 C7.28682407,24.6222381 9.19441051,31.9565217 14.0531607,31.9565217 C20.8403168,31.9565217 25.5273062,26.9796864 31.7497334,26.9796864 C36.0359474,26.9796864 37.152393,28.0274412 39.2968012,28.0274412 C40.8582635,28.0274412 43.200457,27.2887741 43.200457,27.2416251 C43.200457,26.4400927 43.0417083,19.6454027 43.9811881,18.5426408 C45.2824067,16.9710086 61.8469193,19.3101212 61.8469193,13.7701176 C63.0050038,14.8178724 64.1084372,19.2708304 64.1084372,20.1797577 C64.8579391,19.383464 67.6633663,15.9782609 67.6633663,12.311119 C67.6633663,8.99497505 65.3211729,0.785816108 51.7884996,0.785816108 Z" id="Path" fill="#000000" fill-rule="nonzero"></path>
                        <path d="M32.238193,128.05924 C32.2326618,128.09673 32.211249,128.130178 32.1792405,128.151327 C32.8494314,129.449575 33.1913485,130.887199 33.1760749,132.342615 C33.1760749,134.973681 32.1363659,137.260077 30.5955601,138.478261 L43.7821782,137.510029 L41.2204211,103.858696 L30.5258888,104.648015 C30.3543905,109.697031 32.238193,127.435677 32.238193,128.05924 Z" id="Path" fill="#F2F2F2" fill-rule="nonzero"></path>
                        <path d="M24.8109352,131.297966 C24.7931587,129.75553 25.1649947,128.233676 25.8918036,126.874177 C25.8117393,125.536067 23.4685232,117.676013 22.553121,103.858696 L17.2475248,104.249424 L19.7989081,138.478261 L27.8613861,137.873435 C26.0652763,136.768157 24.8109352,134.23913 24.8109352,131.297966 Z" id="Path" fill="#F2F2F2" fill-rule="nonzero"></path>
                        <path d="M24.7750562,75.8967391 C23.3841288,81.2726852 20.6128113,94.8475627 21.3504243,106.775017 C22.2355599,121.110873 24.5932873,129.268892 24.6723173,130.638108 C23.9548981,132.023669 23.5878659,133.574697 23.6054127,135.146702 C23.6054127,139.191617 25.8577668,142.472826 28.6369873,142.472826 C31.4162079,142.472826 33.6711963,139.1998 33.6711963,135.146702 C33.6862116,133.63793 33.3500784,132.147601 32.6912247,130.801759 C32.7226918,130.779835 32.7437423,130.74516 32.74918,130.706296 C32.74918,130.01896 30.6601545,109.30343 31.1211626,105.613092 C31.5110438,102.470987 35.9498937,86.5449854 37.1485149,80.2771396" id="Path" stroke="#000000" stroke-width="2.5" stroke-linecap="round" stroke-linejoin="round"></path>
                        <path d="M38.4752475,57.5057858 C37.8635734,55.4491915 36.9157541,53.9483572 35.5381097,53.4969785 C28.0189266,51.0313221 19.111078,68.6209871 19.9569517,71.6508669 C20.7559854,74.5143007 26.7652702,77.5441805 31.9562343,78.5597826" id="Path" stroke="#000000" stroke-width="2.5" stroke-linecap="round" stroke-linejoin="round"></path>
                        <path d="M38.4688852,106.233487 C38.5636464,107.063137 37.5887474,107.785517 36.2881297,107.849382 L36.2881297,107.849382 C34.9885538,107.908397 33.8581709,107.2871 33.7579927,106.458733 L33.1744103,101.483737 C33.0818055,100.654541 34.0555744,99.9329988 35.3551657,99.867842 L35.3551657,99.867842 C36.6540282,99.8101972 37.7831044,100.430776 37.8853027,101.258491 L38.1962907,103.895337" id="Path" stroke="#000000" stroke-width="2.5" stroke-linecap="round" stroke-linejoin="round"></path>
                    </g>
                    <g id="drawkit-support-woman-monochrome" transform="translate(170.500000, 123.126263) scale(-1, 1) translate(-170.500000, -123.126263) translate(114.000000, 0.626263)">
                        <path d="M32.3139529,111.77069 C32.1810441,111.77069 32.0976504,115.935073 32.0533475,122.680533 C32.2540136,124.849373 32.3947406,126.338154 32.3947406,126.511451 C32.3893613,126.548865 32.3685367,126.582245 32.3374074,126.603351 C32.9891887,127.898958 33.3217137,129.333658 33.3068596,130.786114 C33.3316003,132.462301 32.8794359,134.110573 32.0038324,135.536031 C31.9595295,169.407748 32.3139529,227.53319 32.3139529,227.53319 L40.3249636,227.53319 L62.6666667,121.890193 C54.0197787,120.222865 39.8272073,114.958307 32.3139529,111.77069 Z" id="Path" fill="#000000" fill-rule="nonzero"></path>
                        <path d="M30.7348417,103.59281 C30.2618154,107.185684 32.4053002,127.354111 32.4053002,128.023294 C32.3997208,128.061132 32.3781215,128.09489 32.3458341,128.116236 C33.0218636,129.426534 33.3667595,130.877502 33.3513528,132.346427 C33.3573257,133.498754 33.1493984,134.642497 32.7377701,135.721552 L41.3333333,135.089546 L38.7492584,101.125862 L31.1159658,101.68617 C30.9213492,102.517337 30.7889019,103.173243 30.7348417,103.59281 Z" id="Path" fill="#DFDFDF" fill-rule="nonzero"></path>
                        <path d="M24.1881872,132.385686 C24.1693537,130.853199 24.5633022,129.34116 25.3333333,127.99043 C25.2485077,126.660951 22.7178762,118.702693 21.7678291,104.727215 C21.7169337,103.977389 21.6811184,103.220472 21.6603833,102.456466 L13.3333333,103.044095 L16.0364436,137.052155 L25.1297518,136.414005 C24.4976075,135.15495 24.1757582,133.777974 24.1881872,132.385686 L24.1881872,132.385686 Z" id="Path" fill="#DFDFDF" fill-rule="nonzero"></path>
                        <path d="M74.507845,124.070126 C74.6794749,127.561749 82.6666667,228.863793 82.6666667,228.863793 L74.507845,228.863793 L53.3333333,152.786667 C53.3333333,152.786667 58.8485431,122.344169 59.2251041,122.415643 C61.023375,122.90537 71.0035223,124.726626 74.507845,124.070126 Z" id="Path" fill="#000000" fill-rule="nonzero"></path>
                        <path d="M67.3552844,84.627864 C69.9175899,86.6163024 74.2542538,90.4778575 76.3802905,93.2658896 C77.5001135,92.4316659 80.200814,90.1671862 86.8637112,84.5195384 C93.5266084,78.8718906 117.083159,75.1741049 117.083834,75.5678032 C117.084508,75.9615015 119.676206,77.0745324 102.021014,79.8854857 C99.672937,82.7305667 78.5238714,107.797523 75.0716644,107.791579 C72.7135574,107.787518 65.4068773,101.374768 60.8162362,96.525943" id="Path" stroke="#000000" stroke-width="2.5" stroke-linecap="round" stroke-linejoin="round" transform="translate(89.016966, 91.665364) scale(1, -1) rotate(-73.000000) translate(-89.016966, -91.665364) "></path>
                        <path d="M77.4785002,74.5137931 C81.321288,72.2005226 85.4097206,68.1604065 86.635121,64.9985766 C87.3607613,63.1230979 75.4004018,54.4591433 68,53.2241379" id="Path" stroke="#000000" stroke-width="2.5" stroke-linecap="round" stroke-linejoin="round"></path>
                        <path d="M33.3333333,112.841389 C39.4321095,117.540953 74.4749909,127.56038 77.4451741,124.508818 C80.4153573,121.457256 85.7326452,55.8105537 59.7032798,47.9017241" id="Path" stroke="#000000" stroke-width="2.5" stroke-linecap="round" stroke-linejoin="round"></path>
                        <path d="M48,45.2405172 C42.8229686,46.2309762 38.9200433,49.1502237 36,53.2241379" id="Path" stroke="#000000" stroke-width="2.5" stroke-linecap="round" stroke-linejoin="round"></path>
                        <path d="M53.3333333,50.562931 C56.6666667,50.562931 60,50.1193966 60,49.2584178 L60,38.5875" id="Path" stroke="#000000" stroke-width="2.5" stroke-linecap="round" stroke-linejoin="round"></path>
                        <path d="M48,39.9181034 L48,46.5711207" id="Path" stroke="#000000" stroke-width="2.5" stroke-linecap="round" stroke-linejoin="round"></path>
                        <ellipse id="Oval" stroke="#000000" stroke-width="2.5" cx="53.3333333" cy="23.2855603" rx="10.6666667" ry="17.9631466"></ellipse>
                        <path d="M52.0461538,0.785274166 C46.6453846,0.785274166 39.4609231,3.40285472 34.2615385,3.40285472 C29.5669231,3.40285472 20.9910769,0 16.4769231,0 C13.6,0 0,1.34020124 0,12.3026286 C0,17.2498559 5.23076923,21.9876767 6.27692308,23.2964669 C7.32307692,24.6052572 9.24015385,31.9344828 14.1230769,31.9344828 C20.944,31.9344828 25.6543077,26.9610797 31.9076923,26.9610797 C36.2152308,26.9610797 37.3372308,28.0081119 39.4923077,28.0081119 C41.0615385,28.0081119 43.4153846,27.2699542 43.4153846,27.2228378 C43.4153846,26.4218581 43.2558462,19.6318542 44.2,18.5298527 C45.5076923,16.9593044 62.1546154,19.2968038 62.1546154,13.760621 C63.3184615,14.8076532 64.4273846,19.2575401 64.4273846,20.1658406 C65.1806154,19.3700961 68,15.9672414 68,12.3026286 C68,8.98877162 65.6461538,0.785274166 52.0461538,0.785274166 Z" id="Path" fill="#000000" fill-rule="nonzero"></path>
                        <path d="M33.7319154,127.970923 C33.7263566,128.008387 33.7048373,128.041812 33.6726695,128.062947 C34.3461947,129.3603 34.689813,130.796932 34.6744633,132.251344 C34.6744633,134.880596 33.6295816,137.165415 32.0811101,138.382759 L45.3333333,137.415194 L42.7588311,103.787069 L32.0110923,104.575844 C31.8387407,109.621378 33.7319154,127.347791 33.7319154,127.970923 Z" id="Path" fill="#F2F2F2" fill-rule="nonzero"></path>
                        <path d="M24.9343726,131.207416 C24.9165077,129.666044 25.2901937,128.145239 26.0206186,126.786677 C25.9401559,125.449491 23.585282,117.594857 22.6653256,103.787069 L17.3333333,104.177527 L19.8974101,138.382759 L28,137.77835 C26.1949543,136.673834 24.9343726,134.146552 24.9343726,131.207416 Z" id="Path" fill="#F2F2F2" fill-rule="nonzero"></path>
                        <path d="M23.5649819,75.8443966 C22.1671344,81.2166351 19.3820292,94.7821506 20.123312,106.701379 C21.0128513,121.027348 23.3823086,129.179741 23.4617318,130.548012 C22.7407434,131.932618 22.3718852,133.482577 22.3895192,135.053497 C22.3895192,139.095623 24.6530791,142.374569 27.4461266,142.374569 C30.2391741,142.374569 32.5053813,139.1038 32.5053813,135.053497 C32.5204714,133.545766 32.1826659,132.056465 31.5205342,130.711551 C31.5521579,130.689642 31.5733132,130.654991 31.5787779,130.616153 C31.5787779,129.929292 29.4793593,109.228048 29.942661,105.540256 C30.3344819,102.400317 34.7954155,86.4852992 36,80.2217761" id="Path" stroke="#000000" stroke-width="2.5" stroke-linecap="round" stroke-linejoin="round"></path>
                        <path d="M38.6666667,57.4661267 C38.0519494,55.4109507 37.0994145,53.9111514 35.7149162,53.460084 C28.1583243,50.9961281 19.206158,68.5736623 20.05624,71.6014525 C20.859249,74.4629115 26.8984308,77.4907017 32.1152205,78.5056034" id="Path" stroke="#000000" stroke-width="2.5" stroke-linecap="round" stroke-linejoin="round"></path>
                        <path d="M38.6602726,106.160223 C38.7555053,106.989301 37.7757561,107.711182 36.4686677,107.775003 L36.4686677,107.775003 C35.1626262,107.833977 34.0266195,107.213109 33.9259429,106.385313 L33.3394571,101.413748 C33.2463916,100.585124 34.2250052,99.8640794 35.531062,99.7989676 L35.531062,99.7989676 C36.8363865,99.7413626 37.97108,100.361513 38.0737868,101.188657 L38.386322,103.823685" id="Path" stroke="#000000" stroke-width="2.5" stroke-linecap="round" stroke-linejoin="round"></path>
                    </g>
                </g>
            </g>
        </g>
    </g>
</svg>
