
<svg width="155px" height="186px" viewBox="0 0 155 186" version="1.1" xmlns="http://www.w3.org/2000/svg" xmlns:xlink="http://www.w3.org/1999/xlink">
    <g id="Welcome" stroke="none" stroke-width="1" fill="none" fill-rule="evenodd">
        <g id="Macbook-Air" transform="translate(-901.000000, -850.000000)">
            <g id="drawing-woman-monochrome" transform="translate(977.500000, 942.500000) scale(-1, 1) translate(-977.500000, -942.500000) translate(901.000000, 850.000000)">
                <g id="Vector" transform="translate(0.000000, 0.126984)">
                    <path d="M59.1061422,2.38640429 C55.3965517,2.38640429 52.4288793,5.84257603 49.2139009,5.84257603 C43.6907328,5.84257603 39.7338362,0.0822898032 31.4078664,0.0822898032 C27.6982759,0.0822898032 23.1643319,5.67799642 22.3399784,6.50089445 C20.3615302,8.47584973 10.4692888,9.05187835 10.4692888,20.3255814 C10.4692888,22.1359571 11.8706897,34.1502683 22.8345905,34.1502683 C30.3362069,34.1502683 37.7553879,25.09839 44.4326509,25.09839 C47.6476293,25.09839 47.4827586,26.2504472 53.0059267,26.2504472 C53.4181034,25.1806798 54.0775862,23.8640429 54.0775862,22.5474061 C54.0775862,20.90161 52.2640086,20.5724508 52.2640086,18.4329159 C52.2640086,14.3184258 62.4859914,15.470483 62.4859914,7.40608229 C62.9806034,7.40608229 63.4752155,8.72271914 63.4752155,9.38103757 C63.8049569,9.38103757 64.299569,8.39355993 64.299569,7.5706619 C64.299569,5.92486583 62.8157328,2.38640429 59.1061422,2.38640429 Z" id="Path" fill="#000000" fill-rule="nonzero"></path>
                    <path d="M62.0738147,6.50089445 C63.8873922,8.14669052 64.3820043,13.2486583 64.3820043,16.3756708 C64.3820043,24.1109123 60.7548491,26.2504472 59.2710129,26.2504472 C57.7871767,26.2504472 57.7047414,25.8389982 57.2925647,25.4275492" id="Path" stroke="#000000" stroke-width="2.5" stroke-linecap="round"></path>
                    <path d="M60.0277694,26.1056172 C60.0277694,27.2379249 59.6007543,28.7191413 59.6007543,30.529517 C59.6007543,32.4649732 70.2151293,41.8344902 70.6339009,53.9837567" id="Path" stroke="#000000" stroke-width="2.5" stroke-linecap="round"></path>
                    <path d="M53.5005388,23.6171735 C53.5005388,36.6189624 27.9455819,64.5974955 27.9455819,88.7906977" id="Path" stroke="#000000" stroke-width="2.5" stroke-linecap="round"></path>
                    <path d="M57.127694,32.9982111 C54.8195043,32.9982111 52.2030065,31.3952057 52.2030065,29.7280143" id="Path" stroke="#000000" stroke-width="2.5" stroke-linecap="round"></path>
                    <path d="M49.7085129,46.4937388 C49.7085129,55.5456172 53.7593858,66.7650089 55.3141164,67.2307692 C60.2602371,68.7119857 72.2957974,59.9892665 72.6255388,57.5205725 C72.8744935,55.6608229 64.546875,46.9874776 63.8873922,46.4937388" id="Path" stroke="#000000" stroke-width="2.5" stroke-linecap="round"></path>
                    <path d="M70.3140517,50.9209302 C70.9735345,51.431127 73.4465948,54.2289803 73.6114655,55.5456172 C73.1168534,55.8747764 72.2463362,56.3421825 72.2463362,56.3421825" id="Path" stroke="#000000" stroke-width="2.5" stroke-linecap="round"></path>
                    <path d="M72.1902802,58.4372809 C72.7904095,59.1663685 76.6978448,63.5112701 78.0415409,66.0293381" id="Path" stroke="#000000" stroke-width="2.5" stroke-linecap="round" stroke-linejoin="round"></path>
                    <path d="M83.727931,74.4245438 C95.0479526,74.4245438 111.040409,78.2576029 112.194504,78.2576029 C113.348599,78.2576029 115.491918,76.7763864 116.481142,76.7763864 C117.470366,76.7763864 121.757004,78.5867621 121.757004,79.9033989 C120.438039,80.726297 77.2419181,80.5617174 76.252694,80.2325581 C75.2634698,79.9033989 73.9642888,77.9909839 73.9642888,77.9909839 L62.1087442,66.0293381 L72.6310094,59.0048721 L83.727931,73.7701297" id="Path" stroke="#000000" stroke-width="2.5" stroke-linecap="round" stroke-linejoin="round"></path>
                    <path d="M65.463556,76.2612522 C65.463556,77.2701252 59.2710129,94.2218247 57.4574353,94.2218247" id="Path" stroke="#000000" stroke-width="2.5" stroke-linecap="round" stroke-linejoin="round"></path>
                    <path d="M27.9455819,88.2969589 C30.0889009,90.1073345 49.0490302,96.0322004 59.1061422,92.411449 C72.6255388,89.2844365 111.370151,88.7906977 115.162177,93.3989267 C117.048297,95.6915206 114.172953,111.831843 112.359375,116.275492 C115.656789,118.250447 120.210517,120.944615 119.613685,123.846154 C117.140625,135.860465 83.1772629,167.953488 76.9121767,171.903399 C75.5932112,171.245081 73.1201509,169.763864 73.1201509,169.105546 C73.1201509,168.447227 92.4100216,130.923077 93.5641164,130.100179 C87.9585129,129.60644 42.4542026,122.858676 33.0565733,113.477639 C29.1821121,109.610018 27.9455819,102.779964 27.9455819,88.2969589 Z" id="Path" stroke="#000000" stroke-width="2.5" fill="#000000" fill-rule="nonzero" stroke-linecap="round" stroke-linejoin="round"></path>
                    <path d="M115.778793,96.8155993 C115.778793,115.946333 96.7790948,167.706619 95.872306,168.611807 C94.8830819,168.776386 92.1627155,168.858676 91.7505388,168.447227 L91.7505388,158.243292" id="Path" stroke="#000000" stroke-width="2.5" fill="#000000" fill-rule="nonzero" stroke-linecap="round" stroke-linejoin="round"></path>
                    <polygon id="Path" stroke="#000000" stroke-width="2.5" fill="#000000" fill-rule="nonzero" stroke-linecap="round" stroke-linejoin="round" points="91.7505388 171.738819 91.7505388 176.182469 107.413254 176.182469 107.413254 174.701252 95.5425647 171.738819"></polygon>
                    <polygon id="Path" stroke="#000000" stroke-width="2.5" fill="#000000" fill-rule="nonzero" stroke-linecap="round" stroke-linejoin="round" points="71.5885022 171.834275 69.1945797 175.581753 82.400722 183.986834 83.1986961 182.737674 74.7853448 173.868479"></polygon>
                    <polygon id="Rectangle" stroke="#000000" stroke-width="2.5" stroke-linecap="round" stroke-linejoin="round" transform="translate(74.082807, 171.571795) rotate(33.170000) translate(-74.082807, -171.571795) " points="72.182471 170.008999 75.9856755 170.005922 75.9831426 173.13459 72.1799382 173.137667"></polygon>
                    <rect id="Rectangle" stroke="#000000" stroke-width="2.5" stroke-linecap="round" stroke-linejoin="round" x="91.7934052" y="168.526225" width="3.58428879" height="3.12701252"></rect>
                    <polyline id="Path" stroke="#000000" stroke-width="2.5" stroke-linecap="round" stroke-linejoin="round" points="28.3264332 47.4812165 0.0824353448 47.4812165 33.221444 122.858676 58.2817888 122.858676"></polyline>
                    <path d="M28.3264332,47.4812165 L35.1026185,62.8940966" id="Path" stroke="#000000" stroke-width="2.5" stroke-linecap="round" stroke-linejoin="round"></path>
                    <path d="M41.2671336,122.858676 L27.4509698,174.042934" id="Path" stroke="#000000" stroke-width="2.5" stroke-linecap="round" stroke-linejoin="round"></path>
                    <path d="M65.1733836,122.858676 L51.3572198,174.042934" id="Path" stroke="#000000" stroke-width="2.5" stroke-linecap="round" stroke-linejoin="round"></path>
                    <path d="M70.9768319,122.858676 L84.7929957,174.042934" id="Path" stroke="#000000" stroke-width="2.5" stroke-linecap="round" stroke-linejoin="round"></path>
                    <rect id="Rectangle" fill="#000000" fill-rule="nonzero" x="65.5360991" y="79.9033989" width="87.3814655" height="3.45617174"></rect>
                    <path d="M148.383621,169.516995 L148.383621,82.6189624" id="Path" stroke="#000000" stroke-width="2.5" stroke-linecap="round" stroke-linejoin="round"></path>
                    <path d="M79.8798491,169.599284 L79.8798491,82.7012522" id="Path" stroke="#000000" stroke-width="2.5" stroke-linecap="round" stroke-linejoin="round"></path>
                    <path d="M138.244073,158.243292 L138.244073,82.7012522" id="Path" stroke="#000000" stroke-width="2.5" stroke-linecap="round" stroke-linejoin="round"></path>
                    <path d="M70.3173491,158.243292 L70.3173491,82.7012522" id="Path" stroke="#000000" stroke-width="2.5" stroke-linecap="round" stroke-linejoin="round"></path>
                </g>
            </g>
        </g>
    </g>
</svg>
