
<svg width="148px" height="178px" viewBox="0 0 148 178" version="1.1" xmlns="http://www.w3.org/2000/svg" xmlns:xlink="http://www.w3.org/1999/xlink">
    <g id="Welcome" stroke="none" stroke-width="1" fill="none" fill-rule="evenodd">
        <g id="Home-v2" transform="translate(-988.000000, -978.000000)">
            <g id="drawing-woman-monochrome" transform="translate(1061.100529, 1066.000000) scale(-1, 1) translate(-1061.100529, -1066.000000) translate(987.600529, 978.000000)">
                <g id="Vector" transform="translate(0.600529, 0.000000)">
                    <path d="M56.4019397,2.28264758 C52.862069,2.28264758 50.0301724,5.58855098 46.9622845,5.58855098 C41.6918103,5.58855098 37.9159483,0.0787119857 29.9709052,0.0787119857 C26.4310345,0.0787119857 22.1045259,5.43112701 21.3178879,6.21824687 C19.4299569,8.10733453 9.99030172,8.65831843 9.99030172,19.4418605 C9.99030172,21.1735242 11.3275862,32.6654741 21.7898707,32.6654741 C28.9482759,32.6654741 36.0280172,24.0071556 42.3997845,24.0071556 C45.4676724,24.0071556 45.3103448,25.1091234 50.580819,25.1091234 C50.9741379,24.0858676 51.6034483,22.8264758 51.6034483,21.5670841 C51.6034483,19.9928444 49.8728448,19.6779964 49.8728448,17.6314848 C49.8728448,13.6958855 59.6271552,14.7978533 59.6271552,7.08407871 C60.0991379,7.08407871 60.5711207,8.34347048 60.5711207,8.97316637 C60.8857759,8.97316637 61.3577586,8.02862254 61.3577586,7.24150268 C61.3577586,5.66726297 59.9418103,2.28264758 56.4019397,2.28264758 Z" id="Path" fill="#000000" fill-rule="nonzero"></path>
                    <path d="M59.2338362,6.21824687 C60.9644397,7.79248658 61.4364224,12.6726297 61.4364224,15.6636852 C61.4364224,23.0626118 57.9752155,25.1091234 56.5592672,25.1091234 C55.143319,25.1091234 55.0646552,24.7155635 54.6713362,24.3220036" id="Path" stroke="#000000" stroke-width="2.5" stroke-linecap="round"></path>
                    <path d="M57.2814009,24.9705903 C57.2814009,26.0536673 56.8739224,27.470483 56.8739224,29.2021467 C56.8739224,31.0534526 67.0026724,40.0155993 67.4022845,51.6366369" id="Path" stroke="#000000" stroke-width="2.5" stroke-linecap="round"></path>
                    <path d="M51.0528017,22.5903399 C51.0528017,35.0268336 26.6670259,61.7889088 26.6670259,84.9302326" id="Path" stroke="#000000" stroke-width="2.5" stroke-linecap="round"></path>
                    <path d="M54.5140086,31.5635063 C52.3114224,31.5635063 49.8146336,30.0301968 49.8146336,28.4354919" id="Path" stroke="#000000" stroke-width="2.5" stroke-linecap="round"></path>
                    <path d="M47.4342672,44.4722719 C47.4342672,53.1305903 51.299806,63.8621825 52.7834052,64.3076923 C57.5032328,65.7245081 68.9881466,57.3810376 69.3028017,55.019678 C69.5403664,53.2407871 61.59375,44.9445438 60.9644397,44.4722719" id="Path" stroke="#000000" stroke-width="2.5" stroke-linecap="round"></path>
                    <path d="M67.097069,48.7069767 C67.7263793,49.1949911 70.0862931,51.8711986 70.2436207,53.1305903 C69.7716379,53.4454383 68.9409483,53.8925224 68.9409483,53.8925224" id="Path" stroke="#000000" stroke-width="2.5" stroke-linecap="round"></path>
                    <path d="M68.8874569,55.8965295 C69.4601293,56.5939177 73.1887931,60.7499106 74.4710129,63.1584973" id="Path" stroke="#000000" stroke-width="2.5" stroke-linecap="round" stroke-linejoin="round"></path>
                    <path d="M79.8972414,71.1886941 C90.6993534,71.1886941 105.960129,74.8550984 107.061422,74.8550984 C108.162716,74.8550984 110.207974,73.4382826 111.15194,73.4382826 C112.095905,73.4382826 116.186422,75.1699463 116.186422,76.4293381 C114.927802,77.216458 73.7079741,77.059034 72.7640086,76.744186 C71.8200431,76.4293381 70.5803017,74.6000716 70.5803017,74.6000716 L59.2671676,63.1584973 L69.308022,56.4394429 L79.8972414,70.5627327" id="Path" stroke="#000000" stroke-width="2.5" stroke-linecap="round" stroke-linejoin="round"></path>
                    <path d="M62.4684914,72.9455456 C62.4684914,73.9105546 56.5592672,90.1252236 54.8286638,90.1252236" id="Path" stroke="#000000" stroke-width="2.5" stroke-linecap="round" stroke-linejoin="round"></path>
                    <path d="M26.6670259,84.4579606 C28.7122845,86.1896243 46.8049569,91.8568873 56.4019397,88.3935599 C69.3028017,85.4025045 106.274784,84.9302326 109.893319,89.3381038 C111.693147,91.5310197 108.949353,106.969589 107.21875,111.220036 C110.365302,113.109123 114.71069,115.686154 114.141164,118.461538 C111.78125,129.953488 79.3717672,160.651163 73.393319,164.429338 C72.1346983,163.799642 69.7747845,162.382826 69.7747845,161.753131 C69.7747845,161.123435 88.1821121,125.230769 89.2834052,124.443649 C83.9342672,123.971377 40.5118534,117.516995 31.544181,108.543828 C27.8469828,104.844365 26.6670259,98.3112701 26.6670259,84.4579606 Z" id="Path" stroke="#000000" stroke-width="2.5" fill="#000000" fill-rule="nonzero" stroke-linecap="round" stroke-linejoin="round"></path>
                    <path d="M110.481724,92.6062254 C110.481724,110.905188 92.3512931,160.415027 91.4859914,161.280859 C90.5420259,161.438283 87.9461207,161.516995 87.5528017,161.123435 L87.5528017,151.363148" id="Path" stroke="#000000" stroke-width="2.5" fill="#000000" fill-rule="nonzero" stroke-linecap="round" stroke-linejoin="round"></path>
                    <polygon id="Path" stroke="#000000" stroke-width="2.5" fill="#000000" fill-rule="nonzero" stroke-linecap="round" stroke-linejoin="round" points="87.5528017 164.271914 87.5528017 168.522361 102.498922 168.522361 102.498922 167.105546 91.1713362 164.271914"></polygon>
                    <polygon id="Path" stroke="#000000" stroke-width="2.5" fill="#000000" fill-rule="nonzero" stroke-linecap="round" stroke-linejoin="round" points="68.3132112 164.36322 66.0288147 167.947764 78.6307543 175.987406 79.3922198 174.792558 71.3637931 166.30898"></polygon>
                    <polygon id="Rectangle" stroke="#000000" stroke-width="2.5" stroke-linecap="round" stroke-linejoin="round" transform="translate(70.693397, 164.112151) rotate(33.170000) translate(-70.693397, -164.112151) " points="68.8770847 162.616388 72.5088713 162.617407 72.50971 165.607914 68.8779234 165.606896"></polygon>
                    <rect id="Rectangle" stroke="#000000" stroke-width="2.5" stroke-linecap="round" stroke-linejoin="round" x="87.5937069" y="161.198998" width="3.42030172" height="2.99105546"></rect>
                    <polyline id="Path" stroke="#000000" stroke-width="2.5" stroke-linecap="round" stroke-linejoin="round" points="27.0304526 45.4168157 0.0786637931 45.4168157 31.7015086 117.516995 55.6153017 117.516995"></polyline>
                    <path d="M27.0304526,45.4168157 L33.4966164,60.1595707" id="Path" stroke="#000000" stroke-width="2.5" stroke-linecap="round" stroke-linejoin="round"></path>
                    <path d="M39.3790948,117.516995 L26.1950431,166.47585" id="Path" stroke="#000000" stroke-width="2.5" stroke-linecap="round" stroke-linejoin="round"></path>
                    <path d="M62.1915948,117.516995 L49.0075431,166.47585" id="Path" stroke="#000000" stroke-width="2.5" stroke-linecap="round" stroke-linejoin="round"></path>
                    <path d="M67.7295259,117.516995 L80.9135776,166.47585" id="Path" stroke="#000000" stroke-width="2.5" stroke-linecap="round" stroke-linejoin="round"></path>
                    <rect id="Rectangle" fill="#000000" fill-rule="nonzero" x="62.5377155" y="76.4293381" width="83.3836207" height="3.3059034"></rect>
                    <path d="M141.594828,162.146691 L141.594828,79.0268336" id="Path" stroke="#000000" stroke-width="2.5" stroke-linecap="round" stroke-linejoin="round"></path>
                    <path d="M76.2252155,162.225403 L76.2252155,79.1055456" id="Path" stroke="#000000" stroke-width="2.5" stroke-linecap="round" stroke-linejoin="round"></path>
                    <path d="M131.919181,151.363148 L131.919181,79.1055456" id="Path" stroke="#000000" stroke-width="2.5" stroke-linecap="round" stroke-linejoin="round"></path>
                    <path d="M67.1002155,151.363148 L67.1002155,79.1055456" id="Path" stroke="#000000" stroke-width="2.5" stroke-linecap="round" stroke-linejoin="round"></path>
                </g>
            </g>
        </g>
    </g>
</svg>
