<svg width="106" height="138" viewBox="0 0 106 138" fill="none" xmlns="http://www.w3.org/2000/svg">
<path d="M72.812 45.3387C73.1742 49.0736 72.9804 52.0348 72.5153 52.9667C70.8824 56.1869 44.4608 56.1594 42.8724 53.8777C41.3749 51.7304 38.2577 26.4518 52.7891 22.9968" stroke="black" stroke-width="2.5" stroke-miterlimit="10" stroke-linecap="round"/>
<path d="M66.8135 28.0303C67.4661 28.8651 68.0463 29.73 68.5503 30.6189" stroke="black" stroke-width="2.5" stroke-miterlimit="10" stroke-linecap="round"/>
<path d="M59.0518 22.9009C60.7693 23.2864 62.3556 23.9953 63.6652 24.9622" stroke="black" stroke-width="2.5" stroke-miterlimit="10" stroke-linecap="round"/>
<path d="M59.0348 24.8185C58.7299 23.9105 59.2526 21.201 59.6489 20.0247" stroke="black" stroke-width="2.5" stroke-linecap="round" stroke-linejoin="round"/>
<path d="M52.5391 16.2854C53.0033 18.4543 52.9189 21.2393 52.738 23.9281C53.3506 24.4713 54.6419 24.8091 55.9041 24.9622" stroke="black" stroke-width="2.5" stroke-linecap="round" stroke-linejoin="round"/>
<path fill-rule="evenodd" clip-rule="evenodd" d="M78.1025 23.1436L85.6731 8.47168L87.9264 9.2351L80.361 23.9077L78.1025 23.1436Z" stroke="black" stroke-width="2.5" stroke-linecap="round" stroke-linejoin="round"/>
<path d="M79.7305 21.8943L81.0331 22.3257" stroke="black" stroke-width="2.5" stroke-linecap="round" stroke-linejoin="round"/>
<path d="M80.708 19.929L82.0106 20.3604" stroke="black" stroke-width="2.5" stroke-linecap="round" stroke-linejoin="round"/>
<path d="M81.7393 18.0112L83.0419 18.4906" stroke="black" stroke-width="2.5" stroke-linecap="round" stroke-linejoin="round"/>
<path d="M82.7158 16.0938L84.0184 16.5252" stroke="black" stroke-width="2.5" stroke-linecap="round" stroke-linejoin="round"/>
<path d="M83.6924 14.1763L84.995 14.6077" stroke="black" stroke-width="2.5" stroke-linecap="round" stroke-linejoin="round"/>
<path d="M84.6699 12.2588L85.9725 12.6423" stroke="black" stroke-width="2.5" stroke-linecap="round" stroke-linejoin="round"/>
<path d="M85.7012 10.2932L87.0038 10.7726" stroke="black" stroke-width="2.5" stroke-linecap="round" stroke-linejoin="round"/>
<path fill-rule="evenodd" clip-rule="evenodd" d="M86.7309 18.3216C88.1748 18.1259 88.9652 19.2313 89.2105 20.1554C89.6051 21.6413 89.0058 22.8733 88.3908 22.989C88.0503 23.0584 87.6834 23.0357 87.35 22.9245C87.0165 22.8134 86.7358 22.6202 86.5533 22.3764C86.4536 22.7549 86.333 23.0654 85.3747 23.2516C83.9391 23.53 82.6393 21.9633 82.3905 21.2097C82.058 20.2182 82.4941 18.8582 83.5648 18.6544C84.4472 18.4864 84.9905 18.7596 85.2163 19.048C85.6607 18.6363 86.1246 18.4036 86.7309 18.3216Z" stroke="black" stroke-width="2.5" stroke-linecap="round" stroke-linejoin="round"/>
<path d="M45.4083 40.9555C44.8584 43.7458 44.5082 48.179 49.3748 49.7136C54.9769 51.4808 75.4106 44.0749 78.8996 43.9268C82.3884 43.7785 82.3102 44.712 84.8778 44.3152C89.9578 43.5412 89.2584 41.9314 89.1156 40.3025C86.9799 40.5506 56.8546 42.2345 55.8357 42.3061C55.7497 42.1027 55.6801 41.896 55.6274 41.6872" stroke="black" stroke-width="2.5" stroke-linecap="round" stroke-linejoin="round"/>
<path d="M48.9023 27.4692C49.6471 27.1776 50.5005 27.0645 51.3543 27.1442C52.3044 27.2221 53.221 27.4953 54.0042 27.9343" stroke="black" stroke-width="2.5" stroke-miterlimit="10" stroke-linecap="round"/>
<path d="M57.6948 34.4638C58.174 37.8305 57.5054 41.1522 56.8484 41.4914C55.5221 42.1816 44.067 41.3297 43.3636 40.2613C42.7464 39.3256 43.7699 29.4641 48.8906 27.4551" stroke="black" stroke-width="2.5" stroke-miterlimit="10" stroke-linecap="round"/>
<path d="M89.2587 35.5088L67.6436 36.8587C65.6625 36.9822 64.2311 38.1305 64.4462 39.4228C64.6615 40.7149 66.4448 41.6626 68.4277 41.538L90.0428 40.1881" stroke="black" stroke-width="2.5" stroke-linecap="round" stroke-linejoin="round"/>
<path d="M86.4069 40.4462L85.5928 35.7483" stroke="black" stroke-width="2.5" stroke-linecap="round" stroke-linejoin="round"/>
<path d="M68.507 30.6257L68.0615 27.9943L90.2722 26.592L91.1829 32.0462L68.9828 33.4472L68.507 30.6257Z" stroke="black" stroke-width="2.5" stroke-linecap="round" stroke-linejoin="round"/>
<path fill-rule="evenodd" clip-rule="evenodd" d="M60.8975 25.1203L91.5577 23.1885L92.1059 26.4348L61.4493 28.3658L60.8975 25.1203Z" stroke="black" stroke-width="2.5" stroke-linecap="round" stroke-linejoin="round"/>
<path d="M68.0068 37.4263L68.6039 40.8778" stroke="black" stroke-width="2.5" stroke-miterlimit="10" stroke-linecap="round"/>
<path d="M62.8506 26.8796L75.4968 26.0647" stroke="black" stroke-width="2.5" stroke-miterlimit="10" stroke-linecap="round"/>
<path fill-rule="evenodd" clip-rule="evenodd" d="M10.9092 101.489L18.5646 116.572L21.4929 115.814L19.9778 105.224L16.8007 100.033L10.9092 101.489Z" stroke="black" stroke-width="2.5" stroke-miterlimit="10" stroke-linecap="round"/>
<path fill-rule="evenodd" clip-rule="evenodd" d="M60.5247 129.18L81.1416 129.037L80.99 126.604L67.5407 123.858L60.2998 124.304L60.5247 129.18Z" stroke="black" stroke-width="2.5" stroke-miterlimit="10" stroke-linecap="round"/>
<path d="M64.5838 9.59426C65.2987 8.59565 65.6905 8.16205 65.6728 7.09572C65.3925 3.78868 61.4917 1.87376 57.7525 2.00647C51.2645 2.23689 47.806 4.45795 43.953 4.45866C38.1065 4.45442 33.0176 2.11565 26.8125 2.55588C18.4047 3.15221 16.5081 7.45874 17.083 11.6158C18.0333 18.4922 25.2399 20.9345 30.9125 21.0285C39.1758 21.1602 39.9859 16.7896 45.1825 16.7754C47.6111 16.7698 49.0942 17.369 51.5692 17.3319C51.9472 17.3219 52.3213 17.2839 52.6864 17.2187" stroke="black" stroke-width="2.5" stroke-linecap="round" stroke-linejoin="round"/>
<path d="M63.7157 8.42358C64.8442 9.69439 65.3323 11.2139 65.4397 12.8701C65.7005 16.8614 62.801 19.9987 58.9626 19.8774C57.6768 19.8208 56.4299 19.4398 55.415 18.7935" stroke="black" stroke-width="2.5" stroke-linecap="round" stroke-linejoin="round"/>
<path d="M55.4157 12.6421C54.3898 12.9223 53.3979 13.1501 52.5391 13.3132" stroke="black" stroke-width="2.5" stroke-linecap="round" stroke-linejoin="round"/>
<path d="M63.661 7.99219C63.7098 8.53252 63.315 9.08671 62.6338 9.62208" stroke="black" stroke-width="2.5" stroke-linecap="round" stroke-linejoin="round"/>
<path d="M53.1352 15.9241C52.8872 16.031 52.607 16.089 52.3178 16.0934C52.0285 16.0979 51.7386 16.0488 51.4721 15.9499C51.2056 15.8511 50.9702 15.7056 50.7855 15.5253C50.6006 15.3451 50.4719 15.1354 50.4096 14.9136C50.3474 14.6918 50.3537 14.4643 50.4278 14.2501C50.502 14.0358 50.642 13.8409 50.8361 13.6815C51.0303 13.5223 51.2729 13.403 51.544 13.3339C51.8152 13.2648 52.1068 13.2476 52.395 13.284C52.5794 13.3079 52.7594 13.3528 52.9293 13.4175" stroke="black" stroke-width="2.5" stroke-linecap="round" stroke-linejoin="round"/>
<path fill-rule="evenodd" clip-rule="evenodd" d="M71.318 53.821C67.2424 55.5651 54.1545 55.8785 47.2197 55.0633C49.2815 63.8082 60.2937 124.29 60.2937 124.29L66.9019 123.884L71.318 53.821Z" fill="black"/>
<path fill-rule="evenodd" clip-rule="evenodd" d="M42.8861 53.8947C42.83 53.8087 42.782 53.7199 42.7422 53.6292C43.2454 58.9565 45.4666 81.9316 46.7271 85.5059C43.8102 86.8201 16.8252 100.022 16.8252 100.022L19.3905 104.252L56.6091 94.2601L56.4667 55.5175C49.8837 55.5428 43.6412 54.9683 42.8861 53.8947Z" fill="black"/>
<path d="M43.0691 57.1101L36.126 57.2715C35.7595 57.2803 35.3908 57.2329 35.0409 57.1323C34.691 57.0315 34.3668 56.8795 34.0869 56.6846C33.8069 56.4898 33.5768 56.2562 33.4094 55.997C33.2421 55.7378 33.1409 55.4583 33.1118 55.1742L30.0237 25.276C29.9941 24.9919 30.0371 24.7089 30.1503 24.4431C30.2634 24.1774 30.4444 23.9341 30.683 23.7271C30.9215 23.5202 31.2129 23.3539 31.5404 23.2374C31.868 23.121 32.2253 23.0568 32.5921 23.0486L43.1296 22.8061C43.8686 22.7891 44.6009 22.9999 45.1657 23.3923C45.7307 23.7847 46.082 24.3267 46.1427 24.8994L46.3516 26.9485" stroke="black" stroke-width="2.5" stroke-linecap="round" stroke-linejoin="round"/>
<path d="M45.4824 25.5855C46.4446 25.1582 47.5423 24.9117 48.6847 24.8665" stroke="#BCBCBC" stroke-width="4" stroke-linecap="round" stroke-linejoin="round"/>
<path d="M45.4825 45.3839C43.9176 44.2862 42.5741 42.7653 41.6289 40.9736" stroke="#BCBCBC" stroke-width="4" stroke-linecap="round" stroke-linejoin="round"/>
<path d="M48.6855 24.8731C54.1568 24.6628 59.2354 29.5031 60.0303 35.6859C60.3505 38.1366 59.9399 40.4274 58.9938 42.3159" stroke="#BCBCBC" stroke-width="4" stroke-linecap="round" stroke-linejoin="round"/>
<path d="M52.957 129.343C82.2278 129.569 105.977 131.686 106 134.072C106.023 136.457 82.312 138.207 53.0412 137.98C23.7704 137.754 0.0232784 135.636 1.71016e-05 133.252C-0.0232442 130.867 23.6862 129.117 52.957 129.343Z" fill="#A097A9" fill-opacity="0.5"/>
</svg>
