
<svg width="106px" height="136px" viewBox="0 0 106 136" version="1.1" xmlns="http://www.w3.org/2000/svg" xmlns:xlink="http://www.w3.org/1999/xlink">
    <g id="Welcome" stroke="none" stroke-width="1" fill="none" fill-rule="evenodd">
        <g id="Macbook-Air" transform="translate(-289.000000, -1505.000000)">
            <g id="business-woman-monochrome" transform="translate(342.000000, 1574.000000) scale(-1, 1) translate(-342.000000, -1574.000000) translate(289.000000, 1507.000000)">
                <path d="M53.0009048,124 C23.7300739,124 0,126.238484 0,129.000449 C0,131.762414 23.7300739,134 53.0009048,134 C82.2717356,134 106,131.761516 106,129.000449 C106,126.239382 82.2717356,124 53.0009048,124 Z" id="Shape" fill-opacity="0.5" fill="#A097A9" fill-rule="nonzero"></path>
                <g id="Vector" transform="translate(58.000000, 62.000000) scale(-1, 1) translate(-58.000000, -62.000000) translate(15.000000, 0.000000)">
                    <polyline id="Path" stroke="#000000" stroke-width="2" stroke-linecap="round" stroke-linejoin="round" points="66.0040513 119.790778 66.0040513 123.626352 77.4873315 123.626352 77.4873315 121.956546 69.6247337 119.599286"></polyline>
                    <polyline id="Path" stroke="#000000" stroke-width="2" stroke-linecap="round" stroke-linejoin="round" points="17.6012439 118.450337 17.6183945 120.86696 18.8360872 122.209315 21.8183861 122.209315 22.9598539 123.974867 15.2706678 123.974867 12.3722162 119.269921 14.245443 116.726914"></polyline>
                    <path d="M56.20153,62.0580063 C56.20153,62.0580063 70.5927899,83.6965454 71.8466894,88.3746826 C73.1005889,93.0528199 70.0363481,119.852055 70.0363481,119.852055 L65.7906216,119.852055 C65.7906216,119.852055 62.5872704,100.545882 63.492441,93.7594235 C60.2871843,91.8023804 46.3761412,82.9152601 45.2537296,78.3347835" id="Path" fill="#000000" fill-rule="nonzero"></path>
                    <path d="M33.9705398,59.610745 L30.5594758,90.4925786 L13.9996177,116.564146 L17.6203001,118.94247 L42.1227921,92.081958 C42.1227921,92.081958 54.8618775,65.3593197 56.20153,62.0580063 C53.6175061,62.9178031 38.5630896,64.4497351 33.9705398,59.610745 Z" id="Path" fill="#000000" fill-rule="nonzero"></path>
                    <rect id="Rectangle" fill="#A097A9" fill-rule="nonzero" x="0.0237834753" y="72.9423829" width="34.0325093" height="18.2606291"></rect>
                    <path d="M19.9089526,68.8138263 C21.8576543,70.1258736 22.6795962,72.5942273 21.9091534,74.8205802 C21.1387106,77.0469331 18.9700336,78.4702471 16.6316646,78.2842235 C14.2932956,78.0981999 12.3745006,76.3497164 11.9622653,74.0292783 C11.55003,71.7088401 12.7482371,69.4011947 14.8781096,68.4136091" id="Path" stroke="#A097A9" stroke-width="9" fill="#D8D8D8"></path>
                    <path d="M31.1654637,34.1940786 C29.160749,36.3502729 23.1923399,42.7269397 21.4277336,46.5223012 C19.3772839,50.9266056 18.6912599,56.253899 17.9747459,58.7049902 C17.0486134,61.8741745 14.6989811,65.5795349 14.6989811,67.6036 C14.6989811,68.6893568 15.9585975,70.3878864 16.8580512,70.3878864 C17.7575049,70.3878864 20.0309124,70.238523 20.5282798,66.9525289 C21.3057737,61.8243867 24.6310847,53.6457848 25.9974159,51.9472553 C27.1407893,50.5321331 34.9538409,42.2099127 37.8122744,38.9756213" id="Path" stroke="#000000" stroke-width="2.5"></path>
                    <path d="M57.2858291,23.3345959 C61.3085978,25.9618592 66.6653022,35.3545171 65.5200232,36.4268695 C64.8778285,37.0281528 62.8388126,38.0105042 60.6759312,38.7898746" id="Path" stroke="#000000" stroke-width="2.5"></path>
                    <path d="M54.8066144,21.3162755 C66.1488786,27.5148552 58.0880961,55.6545306 56.20153,62.0580063 C52.5808475,63.7029182 35.3787947,63.0537621 33.9705398,59.610745 C33.7247145,57.69583 34.0238972,49.6148888 35.7542023,41.256285" id="Path" stroke="#000000" stroke-width="2.5" stroke-linecap="round"></path>
                    <path d="M43.9121715,22.8788461 C45.4366694,21.4694687 47.1631632,20.5330753 49.1392936,20.2515828" id="Path" stroke="#000000" stroke-width="2.5"></path>
                    <path d="M52.5065283,19.1926348 C52.7327194,19.2355223 52.9623702,19.2573173 53.1925523,19.2577419 C56.2758492,19.2577419 58.7760258,15.3245066 58.7760258,10.4721121 C58.7774072,9.55350633 58.6848155,8.63719095 58.4997105,7.7376135" id="Path" stroke="#000000" stroke-width="2.5" stroke-linecap="round" stroke-linejoin="round"></path>
                    <path d="M57.0152307,6.94292379 C57.4442977,6.53275244 57.6955172,5.96939526 57.7145941,5.37460843 C58.00806,5.89355039 58.4292025,7.31058746 58.4997105,7.7376135 C58.8293832,7.30675763 59.4753892,6.58866452 59.4753892,5.28460743 C59.4753892,2.64202478 57.4096945,0.395829524 52.9505383,0.395829524 C51.0449159,0.395829524 46.4714223,1.9277615 44.5658,1.9277615 C39.2090956,1.9277615 39.3405835,0.0128465313 33.8943149,0.0128465313 C31.0358814,0.0128465313 27.8268134,1.89520794 24.175641,3.45969347 C20.3834525,5.08354136 15.4097782,4.82311292 15.4097782,11.6938278 C15.4097782,13.9917258 16.1281978,21.4598941 23.9850787,21.4598941 C29.721002,21.4598941 35.2587405,16.2896237 40.5639931,16.2896237 C42.7668925,16.2896237 44.4057277,16.8640982 46.2808601,16.8640982 C47.4242335,16.8640982 48.7581691,16.6726067 49.1392936,16.2896237 L49.1392936,13.0342683 C49.1392936,13.0342683 48.8896571,13.2257598 47.9959202,13.2257598 C47.6776813,13.2257598 47.3594423,12.9576717 47.2622556,12.4234104" id="Path" stroke="#000000" stroke-width="2.5" stroke-linecap="round" stroke-linejoin="round"></path>
                    <path d="M44.2285048,23.0339542 C47.6128901,25.1154668 42.0008323,40.1839327 40.1085493,39.8852059 C38.2162664,39.5864792 30.7709999,35.153451 30.7709999,33.2959835 C30.7709999,31.438516 40.6592742,20.8375468 44.2285048,23.0339542 Z" id="Path" stroke="#000000" stroke-width="2.5"></path>
                    <path d="M59.6850076,47.3801831 C60.1309232,48.282108 60.6797425,49.1591391 61.1732987,49.5574414 C67.1855371,54.4002613 78.52399,59.7792575 79.3110121,60.0894737 C79.8026626,60.2809652 80.6239858,60.9243766 81.1689938,61.3762966 C81.5656897,62.4855557 82.7204589,63.1262172 83.8659699,62.8725683 C85.0114808,62.6189195 85.7913381,61.5498764 85.6873348,60.3758068 C85.5833316,59.2017372 84.6278257,58.2879216 83.4557406,58.2415808 C83.0746162,58.1286008 82.3314235,57.898811 80.9384135,57.1385897 C79.5454036,56.3783685 68.3613061,47.2040109 66.4156657,46.1642121 C66.4499669,43.2420518 65.5143063,38.3130607 65.0512401,36.7811288" id="Path" stroke="#000000" stroke-width="2.5"></path>
                    <path d="M49.1392936,20.2515828 L49.1392936,23.7558772 C49.1392936,24.1388602 50.7781288,24.2920534 51.4832091,24.2920534" id="Path" stroke="#000000" stroke-width="2.5" stroke-linecap="round" stroke-linejoin="round"></path>
                    <path d="M49.1392936,16.2896237 L49.1392936,20.2515828" id="Path" stroke="#000000" stroke-width="2.5" stroke-linecap="round" stroke-linejoin="round"></path>
                    <path d="M54.7456345,19.0260372 L54.7456345,21.2684026" id="Path" stroke="#000000" stroke-width="2.5" stroke-linecap="round"></path>
                </g>
            </g>
        </g>
    </g>
</svg>
