<svg width="106" height="137" viewBox="0 0 106 137" fill="none" xmlns="http://www.w3.org/2000/svg">
<path d="M42.1128 38.3087L42.2215 38.3628C42.2215 38.3073 42.2323 38.2503 42.2385 38.1947L42.2044 38.3457L42.1128 38.3087Z" fill="#F2F2F2"/>
<path d="M52.9991 127.193C82.2699 127.193 106 129.183 106 131.637C106 134.092 82.2699 136.08 52.9991 136.08C23.7283 136.08 0 134.091 0 131.637C0 129.184 23.7283 127.193 52.9991 127.193Z" fill="#A097A9" fill-opacity="0.5"/>
<path d="M48.0677 25.3L50.707 25.5351L52.7997 25.2259L53.2654 24.9324C52.381 25.2552 51.4398 25.4271 50.4881 25.4396C48.8316 25.4396 47.4405 25.1105 46.4004 24.5107L46.5743 24.7045L48.0677 25.3Z" fill="#F2F2F2"/>
<path d="M43.1235 51.0028C43.2244 52.8706 43.1235 123.62 43.1235 123.62H48.5029L56.731 77.1258" fill="black"/>
<path d="M39.2159 36.8088C38.9349 37.1835 37.1666 40.9689 37.3002 42.4591C37.5051 44.7386 39.2097 45.9995 42.1252 47.3828" stroke="black" stroke-width="2.5" stroke-linecap="round" stroke-linejoin="round"/>
<path d="M45.0626 26.9227C41.1364 29.7066 37.8063 35.1859 38.4522 36.1946C38.7627 36.6661 40.3819 37.5067 42.2278 38.2703" stroke="black" stroke-width="2.5" stroke-miterlimit="10" stroke-linecap="round"/>
<path d="M60.0002 5.1521C61.3074 6.94008 61.7902 9.48598 61.0978 12.086C60.2967 15.0921 58.1357 17.3716 55.6455 18.1822" stroke="black" stroke-width="2.5" stroke-miterlimit="10" stroke-linecap="round"/>
<path d="M65.0256 45.2898C65.2662 48.0779 65.2119 50.0753 64.8703 50.4984C62.9173 52.889 48.9326 54.8138 43.1357 51.0028C41.4559 49.9001 40.8504 32.8338 46.4176 24.5037" stroke="black" stroke-width="2.5" stroke-miterlimit="10" stroke-linecap="round"/>
<path d="M55.4658 20.2937C57.245 20.9832 58.7757 22.8937 60.0642 25.4397" stroke="black" stroke-width="2.5" stroke-miterlimit="10" stroke-linecap="round"/>
<path d="M43.1235 123.62V127.015H55.7591V125.098L48.5029 123.62" stroke="black" stroke-width="2.5" stroke-miterlimit="10" stroke-linecap="round"/>
<path d="M55.7588 123.015V127.015H68.9921V125.46L60.9425 123.015" stroke="black" stroke-width="2.5" stroke-miterlimit="10" stroke-linecap="round"/>
<path d="M66.3797 34.9707C66.6234 35.2101 68.7472 38.0523 69.0437 38.6592C69.6352 38.1962 88.6298 23.5818 88.9418 23.3838C89.2539 23.1857 89.7941 23.2028 90.0053 23.3339C90.1764 23.4367 90.3006 23.5936 90.3541 23.7748C90.4076 23.956 90.3868 24.1489 90.2956 24.3169C90.1279 24.6019 87.7666 26.5081 87.7666 26.5081C87.9591 26.7289 88.9434 29.0227 87.6828 30.0997C86.8227 30.8334 85.8508 31.0771 84.9131 30.6226C84.2922 31.2395 69.4489 46.2941 66.8594 46.2941C65.6609 46.2941 61.5484 42.4233 59.6963 39.5069" stroke="black" stroke-width="2.5" stroke-linecap="round" stroke-linejoin="round"/>
<path d="M53.2549 28.557C53.2549 33.2585 57.2913 39.812 58.6885 39.812C60.0858 39.812 67.0719 35.1105 67.0719 33.9708C67.0719 32.831 61.6382 24.4254 56.9808 24.4254C55.1179 24.4254 53.2549 26.2775 53.2549 28.557Z" stroke="black" stroke-width="2.5" stroke-miterlimit="10" stroke-linecap="round"/>
<path d="M52.7906 9.75249C55.467 9.77101 60.3263 4.95273 60.3263 4.7661C60.3263 4.33869 59.5003 2.08057 54.7079 2.08057C51.2847 2.08057 45.8976 4.28028 45.8976 11.5049C45.8976 15.2247 44.3125 19.1981 44.3125 20.9932C44.3125 23.7215 46.7095 25.4411 50.4929 25.4411C52.3202 25.4411 55.068 24.6148 55.068 23.2585C55.068 21.2753 57.285 14.8315 53.0498 13.4282" stroke="black" stroke-width="2.5" stroke-miterlimit="10" stroke-linecap="round"/>
<path d="M53.5375 13.2316C53.2844 13.3831 52.9889 13.4642 52.6867 13.4652C51.7195 13.4652 50.9355 12.6332 50.9355 11.606C50.9355 10.5788 51.7195 9.75391 52.6867 9.75391C52.8673 9.75376 53.0465 9.78269 53.2161 9.83939" stroke="black" stroke-width="2.5" stroke-miterlimit="10" stroke-linecap="round"/>
<path d="M43.1235 51.0028C43.5959 51.2228 44.0536 51.4683 44.4944 51.7379L46.3962 52.5757L46.6601 53.4903L57.4358 76.2739L56.7372 77.1287" fill="black"/>
<path d="M64.8706 50.4984C63.1101 52.6525 51.5783 54.4277 45.0703 51.9687L60.1712 84.5256L55.7591 123.015H60.9428C60.9428 123.015 71.0339 89.6288 71.0339 88.1585C71.0339 86.6882 64.8706 50.4984 64.8706 50.4984Z" fill="black"/>
</svg>
