
<svg width="164px" height="191px" viewBox="0 0 164 191" version="1.1" xmlns="http://www.w3.org/2000/svg" xmlns:xlink="http://www.w3.org/1999/xlink">
    <g id="Welcome" stroke="none" stroke-width="1" fill="none" fill-rule="evenodd">
        <g id="Macbook-Air" transform="translate(-221.000000, -851.000000)">
            <g id="assoc-women" transform="translate(221.000000, 851.000000)">
                <g id="drawkit-support-woman-monochrome">
                    <path d="M23.2756443,80.7486207 C23.1799105,80.7486207 23.1198422,83.7571751 23.087931,88.6304261 C23.2324702,90.1973025 23.3338354,91.2728701 23.3338354,91.3980685 C23.3299607,91.4250982 23.3149608,91.4492135 23.2925385,91.4644616 C23.7620147,92.4004718 24.0015314,93.4369695 23.990832,94.4862945 C24.0086527,95.697254 23.68296,96.8880468 23.0522654,97.9178676 C23.0203542,122.388455 23.2756443,164.381121 23.2756443,164.381121 L29.0459515,164.381121 L45.1386139,88.0594457 C38.9102861,86.8548858 28.6874191,83.0515116 23.2756443,80.7486207 Z" id="Path" fill="#000000" fill-rule="nonzero"></path>
                    <path d="M22.1382152,74.8405198 C21.7974958,77.4361882 23.3414415,92.0068475 23.3414415,92.490298 C23.3374226,92.5176341 23.3218647,92.5420229 23.2986082,92.5574439 C23.7855503,93.5040675 24.0339778,94.552318 24.0228803,95.6135413 C24.0271826,96.4460389 23.8774132,97.2723343 23.5809186,98.0518966 L29.7722772,97.5953045 L27.9109757,73.0582759 L22.4127377,73.4630697 C22.272556,74.0635458 22.1771546,74.537404 22.1382152,74.8405198 Z" id="Path" fill="#DFDFDF" fill-rule="nonzero"></path>
                    <path d="M17.4226794,95.6419035 C17.4091136,94.5347597 17.6928736,93.4423892 18.2475248,92.4665553 C18.1864251,91.5060749 16.3636188,85.7566393 15.6793026,75.6600695 C15.6426428,75.1183585 15.6168452,74.571525 15.6019097,74.019569 L9.6039604,74.4441013 L11.5510027,99.0131897 L18.1008856,98.5521591 C17.6455539,97.6425555 17.4137268,96.6477605 17.4226794,95.6419035 L17.4226794,95.6419035 Z" id="Path" fill="#DFDFDF" fill-rule="nonzero"></path>
                    <path d="M53.6677795,89.6343363 C53.7914039,92.1568551 59.5445545,165.342414 59.5445545,165.342414 L53.6677795,165.342414 L38.4158416,110.380572 C38.4158416,110.380572 42.3884308,88.3874202 42.6596665,88.4390563 C43.9549557,88.7928592 51.1436262,90.1086234 53.6677795,89.6343363 Z" id="Path" fill="#000000" fill-rule="nonzero"></path>
                    <path d="M61.3515463,48.7132709 C63.1804517,50.1406003 66.2752393,52.9132714 67.791354,54.9163772 C69.3056288,53.7797311 86.5275145,39.2940153 86.8642245,38.4983631 C87.5358044,38.1014686 88.9948809,40.3169968 86.8642245,42.1337672 C88.321461,42.0778665 96.9048047,41.8505373 96.9048047,42.1337672 C96.9048047,42.416997 98.7557894,43.2145126 86.1337663,45.2586122 C84.4520565,47.3083019 69.3056288,65.367931 66.8382625,65.367931 C65.1528728,65.367931 59.9384685,60.7635827 56.6633663,57.2809737" id="Path" stroke="#000000" stroke-width="2.5" stroke-linecap="round" stroke-linejoin="round"></path>
                    <path d="M54.8471375,53.8324138 C57.6150861,52.1611939 60.559972,49.2424162 61.4426243,46.9581553 C61.9653008,45.6032177 53.3502894,39.3439525 48.019802,38.4517241" id="Path" stroke="#000000" stroke-width="2.5" stroke-linecap="round" stroke-linejoin="round"></path>
                    <path d="M23.049505,81.5221462 C27.4424353,84.9173412 52.6837187,92.1558666 54.8231328,89.9512685 C56.9625469,87.7466704 60.7925737,40.3202775 42.0436991,34.6065517" id="Path" stroke="#000000" stroke-width="2.5" stroke-linecap="round" stroke-linejoin="round"></path>
                    <path d="M34.5742574,32.6839655 C30.8452571,33.3995216 28.0339916,35.508529 25.9306931,38.4517241" id="Path" stroke="#000000" stroke-width="2.5" stroke-linecap="round" stroke-linejoin="round"></path>
                    <path d="M37.4554455,36.5291379 C39.8564356,36.5291379 42.2574257,36.2087069 42.2574257,35.5866937 L42.2574257,27.8775" id="Path" stroke="#000000" stroke-width="2.5" stroke-linecap="round" stroke-linejoin="round"></path>
                    <path d="M34.5742574,28.8387931 L34.5742574,33.6452586" id="Path" stroke="#000000" stroke-width="2.5" stroke-linecap="round" stroke-linejoin="round"></path>
                    <ellipse id="Oval" stroke="#000000" stroke-width="2.5" cx="38.4158416" cy="16.8226293" rx="7.68316832" ry="12.9774569"></ellipse>
                    <path d="M37.48869,0.56732052 C33.598532,0.56732052 28.4235857,2.45838892 24.6784844,2.45838892 C21.2969669,2.45838892 15.1198104,0 11.8682788,0 C9.7960396,0 0,0.968227021 0,8.88802148 C0,12.4621408 3.76770754,15.8849746 4.52124905,16.8305088 C5.27479056,17.776043 6.65565537,23.0710345 10.1728104,23.0710345 C15.085901,23.0710345 18.4787216,19.4780045 22.983016,19.4780045 C26.0857232,19.4780045 26.8938964,20.2344319 28.4461919,20.2344319 C29.5765042,20.2344319 31.2719726,19.7011506 31.2719726,19.6671114 C31.2719726,19.0884444 31.1570575,14.183013 31.8371287,13.3868732 C32.7790556,12.2522322 44.7697848,13.9409562 44.7697848,9.94134658 C45.6080998,10.6977739 46.4068538,13.9125902 46.4068538,14.568791 C46.9494037,13.9939062 48.980198,11.5355172 48.980198,8.88802148 C48.980198,6.49392889 47.2847296,0.56732052 37.48869,0.56732052 Z" id="Path" fill="#000000" fill-rule="nonzero"></path>
                    <path d="M23.3366024,92.4524629 C23.3325985,92.4795289 23.3170982,92.5036767 23.2939278,92.5189454 C23.779066,93.4562164 24.0265732,94.4941103 24.0155169,95.5448488 C24.0155169,97.4443488 23.2628917,99.0950143 22.1475323,99.9744828 L31.6930693,99.2754668 L29.838663,74.9808621 L22.0970986,75.5507121 C21.9729543,79.1958525 23.3366024,92.0022814 23.3366024,92.4524629 Z" id="Path" fill="#F2F2F2" fill-rule="nonzero"></path>
                    <path d="M17.9601546,94.7906636 C17.9472865,93.6771009 18.2164514,92.5783971 18.7425743,91.5969055 C18.6846172,90.6308565 16.9884086,84.9562844 16.3257667,74.9808621 L12.4851485,75.2629484 L14.3320454,99.9744828 L20.1683168,99.5378286 C18.8681478,98.7398721 17.9601546,96.9140394 17.9601546,94.7906636 Z" id="Path" fill="#F2F2F2" fill-rule="nonzero"></path>
                    <path d="M17.9341825,54.7937069 C16.9273171,58.6748751 14.9212141,68.475268 15.4551579,77.0863023 C16.0958904,87.4360842 17.8026035,93.3257718 17.8598118,94.3142784 C17.340486,95.3145852 17.0747985,96.4343513 17.0875003,97.5692612 C17.0875003,100.489491 18.7179357,102.858362 20.7297595,102.858362 C22.7415833,102.858362 24.3739257,100.495398 24.3739257,97.5692612 C24.384795,96.480002 24.1414747,95.4040585 23.6645432,94.4324266 C23.6873216,94.4165982 23.7025597,94.3915651 23.706496,94.3635068 C23.706496,93.8672844 22.1942909,78.9116919 22.5280058,76.2474501 C22.8102332,73.9790048 26.0234305,62.4812162 26.8910891,57.9561403" id="Path" stroke="#000000" stroke-width="2.5" stroke-linecap="round" stroke-linejoin="round"></path>
                    <path d="M27.8514851,41.5163446 C27.4087061,40.0315848 26.7225981,38.9480563 25.7253481,38.6221831 C20.2823573,36.8421007 13.8341386,49.5409724 14.4464501,51.7283963 C15.0248551,53.7956545 19.3748598,55.9830784 23.132498,56.7162931" id="Path" stroke="#000000" stroke-width="2.5" stroke-linecap="round" stroke-linejoin="round"></path>
                    <ellipse id="Oval" fill="#FFFFFF" fill-rule="nonzero" cx="76.8316832" cy="13.4581034" rx="1.92079208" ry="1.92258621"></ellipse>
                    <ellipse id="Oval" fill="#FFFFFF" fill-rule="nonzero" cx="82.5940594" cy="13.4581034" rx="1.92079208" ry="1.92258621"></ellipse>
                    <ellipse id="Oval" fill="#FFFFFF" fill-rule="nonzero" cx="90.2772277" cy="13.4581034" rx="1.92079208" ry="1.92258621"></ellipse>
                    <path d="M27.8468796,76.6953446 C27.9154754,77.294311 27.2097649,77.8158337 26.268273,77.8619409 L26.268273,77.8619409 C25.3275352,77.9045469 24.509273,77.4560014 24.4367559,76.8579611 L24.0143119,73.2662586 C23.9472771,72.6676205 24.6521696,72.1467023 25.5929185,72.0996623 L25.5929185,72.0996623 C26.5331398,72.0580456 27.3504562,72.5060726 27.4244355,73.1036422 L27.6495537,75.0073152" id="Path" stroke="#000000" stroke-width="2.5" stroke-linecap="round" stroke-linejoin="round"></path>
                    <polyline id="Path" stroke="#000000" stroke-width="2.5" stroke-linecap="round" stroke-linejoin="round" points="28.8118812 163.81291 28.8118812 171.360883 18.2475248 176.877931 24.3930396 170.157813 24.3930396 163.419828"></polyline>
                    <polyline id="Path" stroke="#000000" stroke-width="2.5" stroke-linecap="round" stroke-linejoin="round" points="53.7821782 163.828377 53.7821782 172.071466 67.2277228 172.071466 58.2640264 167.331089 58.2640264 163.419828"></polyline>
                </g>
                <g id="drawkit-support-woman-monochrome" transform="translate(117.500000, 88.500000) scale(-1, 1) translate(-117.500000, -88.500000) translate(71.000000, 0.000000)">
                    <path d="M23.4781064,80.7486207 C23.3815399,80.7486207 23.3209491,83.7571751 23.2887603,88.6304261 C23.4345568,90.1973025 23.5368037,91.2728701 23.5368037,91.3980685 C23.5328953,91.4250982 23.5177649,91.4492135 23.4951475,91.4644616 C23.9687074,92.4004718 24.2103076,93.4369695 24.1995151,94.4862945 C24.2174909,95.697254 23.8889651,96.8880468 23.2527845,97.9178676 C23.2205957,122.388455 23.4781064,164.381121 23.4781064,164.381121 L29.2986064,164.381121 L45.53125,88.0594457 C39.2487455,86.8548858 28.9369553,83.0515116 23.4781064,80.7486207 Z" id="Path" fill="#000000" fill-rule="nonzero"></path>
                    <path d="M22.3307834,74.8405198 C21.9871003,77.4361882 23.5444759,92.0068475 23.5444759,92.490298 C23.5404221,92.5176341 23.5247289,92.5420229 23.5012701,92.5574439 C23.9924478,93.5040675 24.2430362,94.552318 24.2318423,95.6135413 C24.236182,96.4460389 24.0851098,97.2723343 23.7860361,98.0518966 L30.03125,97.5953045 L28.153758,73.0582759 L22.6076939,73.4630697 C22.4662928,74.0635458 22.3700615,74.537404 22.3307834,74.8405198 Z" id="Path" fill="#DFDFDF" fill-rule="nonzero"></path>
                    <path d="M17.5742298,95.6419035 C17.560546,94.5347597 17.8467743,93.4423892 18.40625,92.4665553 C18.3446189,91.5060749 16.5059569,85.7566393 15.8156883,75.6600695 C15.7787096,75.1183585 15.7526876,74.571525 15.7376222,74.019569 L9.6875,74.4441013 L11.6514786,99.0131897 L18.2583353,98.5521591 C17.799043,97.6425555 17.5651993,96.6477605 17.5742298,95.6419035 L17.5742298,95.6419035 Z" id="Path" fill="#DFDFDF" fill-rule="nonzero"></path>
                    <path d="M54.1346061,89.6343363 C54.259306,92.1568551 60.0625,165.342414 60.0625,165.342414 L54.1346061,165.342414 L38.75,110.380572 C38.75,110.380572 42.7571446,88.3874202 43.0307397,88.4390563 C44.3372959,88.7928592 51.5884966,90.1086234 54.1346061,89.6343363 Z" id="Path" fill="#000000" fill-rule="nonzero"></path>
                    <path d="M49.0233086,61.0715875 C50.8776315,62.5185601 54.0166161,65.3278511 55.5565233,67.3549955 C56.3649726,66.7504611 58.3144361,65.1090774 63.1238868,61.0153574 C67.9333374,56.9216374 84.9557739,54.2633582 84.9567142,54.549267 C84.9576545,54.8351757 86.8322156,55.6464516 74.074265,57.6674908 C72.3803454,59.7309189 57.1226181,77.9104912 54.627354,77.9022038 C52.9229081,77.896543 47.6342598,73.2311306 44.3105648,69.7045811" id="Path" stroke="#000000" stroke-width="2.5" stroke-linecap="round" stroke-linejoin="round" transform="translate(64.682242, 66.215237) scale(1, -1) rotate(-73.000000) translate(-64.682242, -66.215237) "></path>
                    <path d="M56.2929728,53.8324138 C59.0849983,52.1611939 62.0555001,49.2424162 62.9458301,46.9581553 C63.4730531,45.6032177 54.7831044,39.3439525 49.40625,38.4517241" id="Path" stroke="#000000" stroke-width="2.5" stroke-linecap="round" stroke-linejoin="round"></path>
                    <path d="M24.21875,81.5221462 C28.6498921,84.9173412 54.1107356,92.1558666 56.2687593,89.9512685 C58.426783,87.7466704 62.290125,40.3202775 43.3781642,34.6065517" id="Path" stroke="#000000" stroke-width="2.5" stroke-linecap="round" stroke-linejoin="round"></path>
                    <path d="M34.875,32.6839655 C31.1135631,33.3995216 28.277844,35.508529 26.15625,38.4517241" id="Path" stroke="#000000" stroke-width="2.5" stroke-linecap="round" stroke-linejoin="round"></path>
                    <path d="M38.75,36.5291379 C41.171875,36.5291379 43.59375,36.2087069 43.59375,35.5866937 L43.59375,27.8775" id="Path" stroke="#000000" stroke-width="2.5" stroke-linecap="round" stroke-linejoin="round"></path>
                    <path d="M34.875,28.8387931 L34.875,33.6452586" id="Path" stroke="#000000" stroke-width="2.5" stroke-linecap="round" stroke-linejoin="round"></path>
                    <ellipse id="Oval" stroke="#000000" stroke-width="2.5" cx="38.75" cy="16.8226293" rx="7.75" ry="12.9774569"></ellipse>
                    <path d="M37.8147837,0.56732052 C33.8907873,0.56732052 28.6708269,2.45838892 24.893149,2.45838892 C21.4822175,2.45838892 15.2513293,0 11.9715144,0 C9.88125,0 0,0.968227021 0,8.88802148 C0,12.4621408 3.80048077,15.8849746 4.56057692,16.8305088 C5.32067308,17.776043 6.71354928,23.0710345 10.2612981,23.0710345 C15.217125,23.0710345 18.6394579,19.4780045 23.1829327,19.4780045 C26.3126286,19.4780045 27.1278317,20.2344319 28.6936298,20.2344319 C29.833774,20.2344319 31.5439904,19.7011506 31.5439904,19.6671114 C31.5439904,19.0884444 31.4280757,14.183013 32.1140625,13.3868732 C33.0641827,12.2522322 45.1592127,13.9409562 45.1592127,9.94134658 C46.0048197,10.6977739 46.8105216,13.9125902 46.8105216,14.568791 C47.3577909,13.9939062 49.40625,11.5355172 49.40625,8.88802148 C49.40625,6.49392889 47.6960337,0.56732052 37.8147837,0.56732052 Z" id="Path" fill="#000000" fill-rule="nonzero"></path>
                    <path d="M24.5083448,92.4524629 C24.504306,92.4795289 24.4886709,92.5036767 24.465299,92.5189454 C24.9546571,93.4562164 25.2043172,94.4941103 25.1931647,95.5448488 C25.1931647,97.4443488 24.4339929,99.0950143 23.3089316,99.9744828 L32.9375,99.2754668 L31.0669632,74.9808621 L23.2580592,75.5507121 C23.132835,79.1958525 24.5083448,92.0022814 24.5083448,92.4524629 Z" id="Path" fill="#F2F2F2" fill-rule="nonzero"></path>
                    <path d="M18.1163801,94.7906636 C18.1034002,93.6771009 18.3749064,92.5783971 18.9056057,91.5969055 C18.8471445,90.6308565 17.1361815,84.9562844 16.4677756,74.9808621 L12.59375,75.2629484 L14.456712,99.9744828 L20.34375,99.5378286 C19.0322715,98.7398721 18.1163801,96.9140394 18.1163801,94.7906636 Z" id="Path" fill="#F2F2F2" fill-rule="nonzero"></path>
                    <path d="M17.1214322,54.7937069 C16.1058086,58.6748751 14.0822556,68.475268 14.6208439,77.0863023 C15.2671498,87.4360842 16.9887086,93.3257718 17.0464145,94.3142784 C16.5225714,95.3145852 16.2545728,96.4343513 16.2673851,97.5692612 C16.2673851,100.489491 17.9120028,102.858362 19.9413263,102.858362 C21.9706499,102.858362 23.6171911,100.495398 23.6171911,97.5692612 C23.628155,96.480002 23.3827182,95.4040585 22.9016382,94.4324266 C22.9246147,94.4165982 22.9399853,94.3915651 22.9439558,94.3635068 C22.9439558,93.8672844 21.418597,78.9116919 21.7552146,76.2474501 C22.039897,73.9790048 25.2810441,62.4812162 26.15625,57.9561403" id="Path" stroke="#000000" stroke-width="2.5" stroke-linecap="round" stroke-linejoin="round"></path>
                    <path d="M28.09375,41.5163446 C27.6471195,40.0315848 26.9550434,38.9480563 25.9491188,38.6221831 C20.4587825,36.8421007 13.9544742,49.5409724 14.5721119,51.7283963 C15.1555481,53.7956545 19.5433911,55.9830784 23.3337149,56.7162931" id="Path" stroke="#000000" stroke-width="2.5" stroke-linecap="round" stroke-linejoin="round"></path>
                    <ellipse id="Oval" fill="#FFFFFF" fill-rule="nonzero" cx="78.46875" cy="13.4581034" rx="1.9375" ry="1.92258621"></ellipse>
                    <ellipse id="Oval" fill="#FFFFFF" fill-rule="nonzero" cx="83.3125" cy="13.4581034" rx="1.9375" ry="1.92258621"></ellipse>
                    <ellipse id="Oval" fill="#FFFFFF" fill-rule="nonzero" cx="91.0625" cy="13.4581034" rx="1.9375" ry="1.92258621"></ellipse>
                    <path d="M28.0891043,76.6953446 C28.1582968,77.294311 27.4464478,77.8158337 26.4967664,77.8619409 L26.4967664,77.8619409 C25.5478456,77.9045469 24.7224657,77.4560014 24.6493179,76.8579611 L24.2231993,73.2662586 C24.1555814,72.6676205 24.8666053,72.1467023 25.8155373,72.0996623 L25.8155373,72.0996623 C26.7639371,72.0580456 27.5883628,72.5060726 27.6629857,73.1036422 L27.8900621,75.0073152" id="Path" stroke="#000000" stroke-width="2.5" stroke-linecap="round" stroke-linejoin="round"></path>
                    <polyline id="Path" stroke="#000000" stroke-width="2.5" stroke-linecap="round" stroke-linejoin="round" points="29.0625 163.81291 29.0625 171.360883 18.40625 176.877931 24.6052214 170.157813 24.6052214 163.419828"></polyline>
                    <polyline id="Path" stroke="#000000" stroke-width="2.5" stroke-linecap="round" stroke-linejoin="round" points="54.25 163.828377 54.25 172.071466 67.8125 172.071466 58.7708333 167.331089 58.7708333 163.419828"></polyline>
                </g>
                <path d="M84.0012633,177 C43.132556,177 10,180.133878 10,184.000629 C10,187.867379 43.132556,191 84.0012633,191 C124.86997,191 158,187.866122 158,184.000629 C158,180.135135 124.86997,177 84.0012633,177 Z" id="Path" fill="#FAEFFF" fill-rule="nonzero"></path>
            </g>
        </g>
    </g>
</svg>
