<svg width="112" height="148" viewBox="0 0 112 148" fill="none" xmlns="http://www.w3.org/2000/svg">
<path d="M65.7575 47.8443C66.0716 51.3756 65.9035 54.1754 65.5001 55.0565C64.0839 58.1011 41.1675 58.0751 39.7898 55.9178C38.491 53.8876 35.7873 29.9871 48.3909 26.7205" stroke="black" stroke-width="2.5" stroke-miterlimit="10" stroke-linecap="round"/>
<path d="M60.5601 31.4879C61.1197 32.2746 61.6172 33.0896 62.0493 33.9273" stroke="black" stroke-width="2.5" stroke-miterlimit="10" stroke-linecap="round"/>
<path d="M53.8115 26.6323C55.3013 26.9957 56.6772 27.6638 57.8131 28.5752" stroke="black" stroke-width="2.5" stroke-miterlimit="10" stroke-linecap="round"/>
<path d="M53.8204 28.4486C53.567 27.5851 54.0015 25.0083 54.3309 23.8896" stroke="black" stroke-width="2.5" stroke-linecap="round" stroke-linejoin="round"/>
<path d="M48.1616 20.3588C48.5649 22.4159 48.4916 25.0573 48.3344 27.6074C48.8666 28.1226 49.9885 28.443 51.0851 28.5882" stroke="black" stroke-width="2.5" stroke-linecap="round" stroke-linejoin="round"/>
<path fill-rule="evenodd" clip-rule="evenodd" d="M70.3599 26.853L76.9059 13.0059L78.8543 13.7264L72.3127 27.5741L70.3599 26.853Z" stroke="black" stroke-width="2.5" stroke-linecap="round" stroke-linejoin="round"/>
<path d="M71.7812 25.657L72.9026 26.0669" stroke="black" stroke-width="2.5" stroke-linecap="round" stroke-linejoin="round"/>
<path d="M72.6411 23.8365L73.761 24.2463" stroke="black" stroke-width="2.5" stroke-linecap="round" stroke-linejoin="round"/>
<path d="M73.5015 22.0164L74.6213 22.4261" stroke="black" stroke-width="2.5" stroke-linecap="round" stroke-linejoin="round"/>
<path d="M74.3623 20.196L75.4822 20.6058" stroke="black" stroke-width="2.5" stroke-linecap="round" stroke-linejoin="round"/>
<path d="M75.2217 18.3757L76.3416 18.7855" stroke="black" stroke-width="2.5" stroke-linecap="round" stroke-linejoin="round"/>
<path d="M76.083 16.5504L77.2029 16.9602" stroke="black" stroke-width="2.5" stroke-linecap="round" stroke-linejoin="round"/>
<path d="M76.9429 14.7352L78.0628 15.145" stroke="black" stroke-width="2.5" stroke-linecap="round" stroke-linejoin="round"/>
<path fill-rule="evenodd" clip-rule="evenodd" d="M77.8697 22.3054C79.123 22.1205 79.8091 23.1647 80.022 24.0377C80.3645 25.4413 79.8443 26.6051 79.3105 26.7144C79.0149 26.78 78.6965 26.7585 78.4071 26.6535C78.1176 26.5485 77.8739 26.366 77.7155 26.1357C77.629 26.4933 77.5243 26.7866 76.6925 26.9625C75.4464 27.2254 74.3181 25.7455 74.1022 25.0336C73.8136 24.097 74.1921 22.8123 75.1215 22.6198C75.8874 22.4611 76.359 22.7192 76.555 22.9916C76.9407 22.6027 77.3434 22.3829 77.8697 22.3054Z" stroke="black" stroke-width="2.5" stroke-linecap="round" stroke-linejoin="round"/>
<path d="M41.9584 43.6883C41.481 46.3234 41.177 50.51 45.4021 51.9593C50.2658 53.6282 68.006 46.6342 71.0351 46.4943C74.0641 46.3543 73.9962 47.2359 76.2253 46.8611C80.6357 46.1302 80.0285 44.6099 79.9045 43.0716C78.0503 43.3059 51.896 44.8962 51.0114 44.9638C50.9367 44.7717 50.8763 44.5765 50.8305 44.3793" stroke="black" stroke-width="2.5" stroke-linecap="round" stroke-linejoin="round"/>
<path d="M44.998 30.9376C45.6435 30.6574 46.3831 30.5487 47.1231 30.6253C47.9465 30.7001 48.7409 30.9627 49.4197 31.3846" stroke="black" stroke-width="2.5" stroke-miterlimit="10" stroke-linecap="round"/>
<path d="M52.6255 37.5509C53.0408 40.7279 52.4614 43.8624 51.892 44.1825C50.7425 44.8338 40.8146 44.0299 40.205 43.0217C39.6701 42.1388 40.5571 32.8329 44.9951 30.9371" stroke="black" stroke-width="2.5" stroke-miterlimit="10" stroke-linecap="round"/>
<path d="M80.0653 38.5494L61.2682 39.8215C59.5454 39.9379 58.3006 41.0201 58.4877 42.2379C58.6749 43.4556 60.2257 44.3487 61.9501 44.2312L80.7472 42.9591" stroke="black" stroke-width="2.5" stroke-linecap="round" stroke-linejoin="round"/>
<path d="M77.546 43.1971L76.8657 38.7864" stroke="black" stroke-width="2.5" stroke-linecap="round" stroke-linejoin="round"/>
<path d="M62.0495 33.9273L61.663 31.4497L80.9339 30.1294L81.724 35.2648L62.4623 36.5839L62.0495 33.9273" stroke="black" stroke-width="2.5" stroke-linecap="round" stroke-linejoin="round"/>
<path fill-rule="evenodd" clip-rule="evenodd" d="M55.4468 28.7376L82.0635 26.9119L82.5394 29.98L55.9259 31.8049L55.4468 28.7376Z" stroke="black" stroke-width="2.5" stroke-linecap="round" stroke-linejoin="round"/>
<path d="M61.6187 40.349L62.1054 43.5979" stroke="black" stroke-width="2.5" stroke-miterlimit="10" stroke-linecap="round"/>
<path d="M57.1096 30.3974L68.084 29.6154" stroke="black" stroke-width="2.5" stroke-miterlimit="10" stroke-linecap="round"/>
<path fill-rule="evenodd" clip-rule="evenodd" d="M12.0454 100.896L18.6741 115.179L21.2097 114.462L19.8978 104.433L17.1468 99.5171L12.0454 100.896Z" stroke="black" stroke-width="2.5" stroke-miterlimit="10" stroke-linecap="round"/>
<path fill-rule="evenodd" clip-rule="evenodd" d="M55.1008 127.053L73.0125 126.919L72.8808 124.628L61.1962 122.042L54.9054 122.462L55.1008 127.053Z" stroke="black" stroke-width="2.5" stroke-miterlimit="10" stroke-linecap="round"/>
<path d="M58.6398 14.0497C59.2608 13.1045 59.6011 12.6941 59.5857 11.6848C59.3422 8.55465 55.9542 6.74215 52.7065 6.86777C47.0713 7.08586 44.0674 9.18812 40.7209 9.18879C35.6429 9.18478 31.2229 6.97111 25.8334 7.38779C18.5308 7.95222 16.8835 12.0284 17.3828 15.9631C18.2082 22.4717 24.4675 24.7834 29.3945 24.8723C36.5716 24.997 37.2752 20.8602 41.7888 20.8467C43.8981 20.8414 45.1863 21.4086 47.336 21.3735C47.6643 21.364 47.9892 21.328 48.3063 21.2663" stroke="black" stroke-width="2.5" stroke-linecap="round" stroke-linejoin="round"/>
<path d="M57.8681 12.9491C58.845 14.1503 59.2675 15.5866 59.3605 17.1521C59.5863 20.9247 57.0763 23.8902 53.7536 23.7755C52.6405 23.722 51.5611 23.3619 50.6826 22.751" stroke="black" stroke-width="2.5" stroke-linecap="round" stroke-linejoin="round"/>
<path d="M50.6811 16.9365C49.7865 17.2046 48.9215 17.4226 48.1726 17.5787" stroke="black" stroke-width="2.5" stroke-linecap="round" stroke-linejoin="round"/>
<path d="M57.8165 12.5407C57.8596 13.0516 57.5109 13.5756 56.9093 14.0818" stroke="black" stroke-width="2.5" stroke-linecap="round" stroke-linejoin="round"/>
<path d="M48.6756 20.0434C48.46 20.1441 48.2164 20.1988 47.965 20.203C47.7135 20.2072 47.4615 20.1609 47.2299 20.0677C46.9982 19.9746 46.7936 19.8374 46.633 19.6675C46.4723 19.4977 46.3604 19.3 46.3063 19.091C46.2522 18.8819 46.2577 18.6675 46.3221 18.4656C46.3866 18.2636 46.5083 18.0799 46.677 17.9297C46.8458 17.7796 47.0567 17.6672 47.2924 17.602C47.5281 17.5369 47.7816 17.5207 48.0321 17.555C48.1924 17.5775 48.3489 17.6199 48.4966 17.6808" stroke="black" stroke-width="2.5" stroke-linecap="round" stroke-linejoin="round"/>
<path fill-rule="evenodd" clip-rule="evenodd" d="M64.4806 55.8699C60.9404 57.5182 49.5718 57.8144 43.548 57.0439C45.3389 65.3086 54.9045 122.469 54.9045 122.469L60.6446 122.085L64.4806 55.8699Z" fill="black"/>
<path fill-rule="evenodd" clip-rule="evenodd" d="M39.7841 55.9168C39.7354 55.8355 39.6937 55.7516 39.6591 55.6658C40.096 60.7011 42.0244 82.4166 43.1187 85.795C40.5863 87.0371 17.1589 99.515 17.1589 99.515L19.386 103.513L51.6979 94.0692L51.5743 57.4506C45.8591 57.4745 40.4396 56.9315 39.7841 55.9168Z" fill="black"/>
<path d="M39.9495 58.9477L33.92 59.1003C33.6017 59.1086 33.2815 59.0638 32.9777 58.9687C32.6738 58.8735 32.3923 58.7298 32.1492 58.5457C31.9061 58.3616 31.7062 58.1408 31.5609 57.8959C31.4156 57.651 31.3277 57.3868 31.3024 57.1184L28.6207 28.8654C28.595 28.5969 28.6323 28.3295 28.7306 28.0783C28.8288 27.8272 28.986 27.5973 29.1932 27.4017C29.4003 27.2062 29.6534 27.049 29.9378 26.9389C30.2223 26.8289 30.5326 26.7683 30.8511 26.7605L40.002 26.5314C40.6438 26.5153 41.2797 26.7145 41.7702 27.0853C42.2608 27.4561 42.5659 27.9683 42.6186 28.5095L42.8 30.4458" stroke="black" stroke-width="2.5" stroke-linecap="round" stroke-linejoin="round"/>
<path d="M42.0427 29.1858C42.8774 28.7637 43.8297 28.5202 44.8208 28.4755" stroke="#BCBCBC" stroke-width="4" stroke-linecap="round" stroke-linejoin="round"/>
<path d="M42.0524 47.8917C40.6941 46.8553 39.5279 45.4193 38.7075 43.7277" stroke="#BCBCBC" stroke-width="4" stroke-linecap="round" stroke-linejoin="round"/>
<path d="M44.82 28.4804C49.5849 28.2814 54.0078 32.8632 54.7001 38.7157C54.9789 41.0355 54.6213 43.204 53.7974 44.9916" stroke="#BCBCBC" stroke-width="4" stroke-linecap="round" stroke-linejoin="round"/>
<path d="M48.5376 127.231C73.9437 127.445 94.5569 129.447 94.5771 131.704C94.5973 133.96 74.0168 135.615 48.6107 135.401C23.2047 135.187 2.59301 133.184 2.57282 130.929C2.55263 128.673 23.1316 127.017 48.5376 127.231Z" fill="#A097A9" fill-opacity="0.5"/>
</svg>
