
<svg width="172px" height="184px" viewBox="0 0 172 184" version="1.1" xmlns="http://www.w3.org/2000/svg" xmlns:xlink="http://www.w3.org/1999/xlink">
    <g id="Welcome" stroke="none" stroke-width="1" fill="none" fill-rule="evenodd">
        <g id="Home-v2" transform="translate(-633.000000, -990.000000)">
            <g id="drawkit-developer-woman-monochrome" transform="translate(634.000000, 992.000000)">
                <g id="Vector">
                    <g id="Layer_3" transform="translate(0.735376, 0.000000)" stroke="#000000" stroke-linecap="round" stroke-width="2.5">
                        <path d="M31.1925627,84.9027696 C29.0476045,86.2357124 24.845766,87.3723302 16.2685237,87.648735 C7.36228412,87.648735 0.051810585,79.1241012 0.051810585,68.016245 C-0.20724234,43.8114514 25.0245125,39.2133156 39.0651811,12.1928096 C45.5155989,-0.232490013 53.3389972,0.0774966711 55.3077994,0.180825566 C59.608078,0.413315579 65.721727,3.79733688 65.721727,9.71291611 C65.7503575,11.8133187 64.8432833,13.8182023 63.2451811,15.1867643" id="Path"></path>
                        <path d="M58.4319777,27.5216511 C57.5045682,29.6993076 55.5823955,33.3545672 54.9528969,37.5471372" id="Path"></path>
                    </g>
                    <path d="M16.0713092,133.061784 L163.912813,133.061784" id="Path" stroke="#FFFFFF" stroke-width="12.98" stroke-linecap="round" stroke-linejoin="round"></path>
                    <path d="M73.3660446,154.218375 L144.457939,154.218375" id="Path" stroke="#FFFFFF" stroke-width="12.98" stroke-linecap="round" stroke-linejoin="round"></path>
                    <path d="M28.1172702,154.218375 L66.4182451,154.218375" id="Path" stroke="#FFFFFF" stroke-width="12.98" stroke-linecap="round" stroke-linejoin="round"></path>
                    <path d="M99.7972145,91.1619174 C105.107799,91.1619174 112.905292,122.883888 116.272981,132.209321 C115.573538,134.146738 111.584123,137.19494 109.408078,137.19494 C105.185515,130.142743 95.7300836,115.030892 94.0721448,112.705992 C92.7250696,110.82024 94.4866295,91.1619174 99.7972145,91.1619174 Z" id="Path" fill="#000000" fill-rule="nonzero"></path>
                    <path d="M97.802507,28.518775 C98.7091922,27.950466 98.2947075,28.3379494 98.9941504,27.2788282" id="Path" fill="#000000" fill-rule="nonzero" opacity="0.27"></path>
                    <path d="M64.2888301,85.3625832 C64.196242,86.0731155 64.0551625,86.7765232 63.8665738,87.4679095 C55.2401114,91.110253 32.7284123,88.914514 32.1066852,86.3829561 C31.552312,84.1510519 28.806351,39.3398935 43.603454,33.7730493" id="Path" stroke="#000000" stroke-width="2.5" stroke-linecap="round"></path>
                    <path d="M51.6703621,34.3568575 C62.6930641,39.8746205 65.1411142,63.8314248 64.8198886,77.9358189" id="Path" stroke="#000000" stroke-width="2.5" stroke-linecap="round"></path>
                    <path d="M48.0643454,35.5218908 C45.7794986,35.1834887 43.2381894,34.3697736 43.5050139,33.9435419 C46.0307799,29.681225 46.5747911,25.2380826 46.9970474,22.7401065" id="Path" stroke="#000000" stroke-width="2.5" stroke-linecap="round" stroke-linejoin="round"></path>
                    <path d="M53.3930641,29.8129694 C52.9241783,30.9392543 52.0770752,32.9929161 51.6703621,34.3646072" id="Path" stroke="#000000" stroke-width="2.5" stroke-linecap="round" stroke-linejoin="round"></path>
                    <path d="M39.2099164,61.9973369 C39.0596657,63.0719574 39.2228691,64.4023169 39.2099164,65.2134487 C39.1581058,69.6049268 39.3653482,74.5130493 42.007688,78.2070573 C43.0438997,79.6536618 44.753649,81.0486019 46.4115877,81.0227696 C49.0280223,82.0560586 53.4060167,83.2443409 53.4060167,83.2443409 L60.0377716,84.6909454 C60.0377716,84.6909454 71.2288579,86.6800266 76.7466852,86.5250333 C78.585961,86.4733688 80.4511421,86.2667111 82.2904178,86.3183755 C83.3525348,86.3442077 85.0363788,86.6800266 86.0466852,86.3183755 C86.3316435,86.2150466 86.2539276,85.569241 86.202117,85.336751 C85.9689694,84.4584554 85.1140947,83.838482 84.3628412,83.4509987 C82.575376,82.5727031 81.5650696,83.1151798 79.7257939,83.1668442 C78.2232869,83.1926764 76.4358217,82.4177097 73.8193872,81.410253 C70.7366574,80.1961385 67.2135376,78.749534 64.0789972,77.6904128 C60.5040669,76.4762983 56.8514206,75.1846871 53.3542061,73.7639148 C52.650693,73.4927555 51.9329215,73.2599221 51.2040669,73.0664447 C51.5374034,71.1891121 51.7279186,69.2893343 51.7739833,67.3833555 C51.8516992,65.3167776 51.8776045,63.1468708 51.5926462,61.1061252" id="Path" stroke="#000000" stroke-width="2.5" stroke-linecap="round"></path>
                    <path d="M53.3360724,54.4491611 C53.740195,57.2287084 53.784234,59.4554461 53.5303621,60.163249 C51.924234,61.0932091 43.0387187,64.2189081 36.5623955,61.0415446 C34.567688,55.771771 36.3033426,39.3166445 42.7537604,38.2575233 C44.4350139,37.9992011 45.8934819,38.5390945 47.1576602,39.5801332" id="Path" stroke="#000000" stroke-width="2.5" stroke-linecap="round"></path>
                    <path d="M50.6963231,28.9165912 C51.1509554,29.2021867 51.6424975,29.4246687 52.1573816,29.5778961 C54.5121727,30.296032 57.0457103,29.448735 59.1673538,27.5113182" id="Path" stroke="#000000" stroke-width="2.5" stroke-linecap="round" stroke-linejoin="round"></path>
                    <path d="M50.7714485,18.1058056 C49.0240875,18.5117775 47.2410766,18.7462462 45.4479109,18.8058589 C45.1412293,19.1979923 44.9687179,19.6778509 44.9557103,20.1749667 C44.9778403,21.3206335 45.8166386,22.287419 46.9504178,22.4740346 L46.9970474,22.7323569" id="Path" stroke="#000000" stroke-width="2.5" stroke-linecap="round" stroke-linejoin="round"></path>
                    <path d="M59.1673538,27.5216511 C61.0118106,25.847723 62.5350418,23.3600799 63.3743733,20.3816245 C64.2551532,17.1267643 64.1774373,13.9235686 63.2707521,11.3661784 C62.7863231,11.825992 62.286351,12.2703063 61.7708357,12.6939547" id="Path" stroke="#000000" stroke-width="2.5" stroke-linecap="round" stroke-linejoin="round"></path>
                    <path d="M70.1356546,86.8737683 C74.7986072,86.8737683 91.6370474,86.7446072 94.7197772,86.7446072" id="Path" fill="#FFC88E" fill-rule="nonzero"></path>
                    <path d="M67.2601671,87.1062583 C72.1821727,87.1062583 89.1760446,86.6929427 91.9997214,86.6929427 C94.175766,83.3347537 104.330641,65.6396804 105.004178,64.2964048" id="Path" stroke="#000000" stroke-width="5.79" stroke-linecap="round" stroke-linejoin="round"></path>
                    <path d="M16.0713092,174.729161 L149.354039,174.729161" id="Path" stroke="#FFFFFF" stroke-width="12.98" stroke-linecap="round" stroke-linejoin="round"></path>
                    <path d="M99.7972145,91.8852197 C99.8749304,88.2687084 86.5337047,87.2612517 78.1144847,87.2612517 C74.3452646,87.2612517 68.6668245,87.4575766 63.348468,87.6745672 C54.8126741,90.8570972 34.8371031,89.0643409 32.3579666,86.7471904 C31.2025905,88.0543009 30.5083287,90.5161119 30.5083287,95.1400799 C30.5083287,105.937949 42.3470474,114.953395 56.3618106,114.953395 C70.3765738,114.953395 76.6197493,114.591744 77.8891086,114.281758 C78.277688,117.846605 69.9879944,142.335553 69.1072145,148.638615 C69.7289415,150.31771 73.847883,152.41012 75.5835376,152.41012 C77.3191922,152.41012 100.393036,115.00506 99.7972145,91.8852197 Z" id="Path" fill="#000000" fill-rule="nonzero"></path>
                    <polyline id="Path" stroke="#000000" stroke-width="2.5" stroke-linecap="round" stroke-linejoin="round" points="69.7885237 148.579201 64.0323677 158.212037 83.2048747 168.552676 72.8816156 153.513156 74.2131476 151.188256"></polyline>
                    <polyline id="Path" stroke="#000000" stroke-width="2.5" stroke-linecap="round" stroke-linejoin="round" points="109.887326 136.567217 114.894819 146.605619 133.98961 136.12032 115.721198 136.64213 114.480334 134.268149"></polyline>
                </g>
            </g>
        </g>
    </g>
</svg>
