<svg xmlns="http://www.w3.org/2000/svg" width="247.513" height="495.394" viewBox="0 0 247.513 495.394">
  <g id="Layer_2" data-name="Layer 2" transform="translate(-327.941 -155.353)">
    <g id="Layer_1" data-name="Layer 1" transform="translate(328.928 156.604)">
      <path id="Path_37" data-name="Path 37" stroke="#000" d="M385.909,745.76l.95,22.807-38.126-.232c-.263.176,23.414-13.619,23.414-13.619l-.375-8.957Z" fill="none" transform="translate(-287.813 -275.675)" stroke-linecap="round" stroke-linejoin="round" stroke-width="2.5" fill-rule="evenodd"/>
      <path id="Path_38" data-name="Path 38" stroke="#000" d="M182.985,709l14.05,26.886-16.189,22.927-15.3.1,6.338-10.458,5.436-13.483L170.212,719.7Z" fill="none" transform="translate(48.241 -268.26)" stroke-linecap="round" stroke-linejoin="round" stroke-width="2.5" fill-rule="evenodd"/>
      <path id="Path_42" data-name="Path 42" stroke="#000" d="M280.869,251.71c-7.472,1.485-19.742,5-29.449,10.122" fill="none" transform="translate(-104.142 -176.019)" stroke-linecap="round" stroke-linejoin="round" stroke-width="2.5" fill-rule="evenodd"/>
      <path id="Path_43" data-name="Path 43" stroke="#000" d="M216.485,317.6c-5.157,31.133-10.122,74.967-4.207,84.659,9,14.752,71.048,14.13,83.15,3,4.031-3.7,6.442-52.767,1.014-92.194" fill="none" transform="translate(-89.475 -188.396)" stroke-linecap="round" stroke-linejoin="round" stroke-width="2.5" fill-rule="evenodd"/>
      <path id="Path_46" data-name="Path 46" stroke="#000" d="M240.56,264c2.451,1.956,5.867,1.964,8.669,1.477" fill="none" transform="translate(-63.833 -178.498)" stroke-linecap="round" stroke-linejoin="round" stroke-width="2.5" fill-rule="evenodd"/>
      <path id="Path_47" data-name="Path 47" stroke="#000" d="M251.42,237.06v15.3" fill="none" transform="translate(-74.693 -173.064)" stroke-linecap="round" stroke-linejoin="round" stroke-width="2.5" fill-rule="evenodd"/>
      <path id="Path_48" data-name="Path 48" stroke="#000" d="M251.2,170.37c-6.187,5.468-10.2,14.241-10.2,24.132,0,16.564,11.248,30,25.122,30a20.894,20.894,0,0,0,2.227-.144" fill="none" transform="translate(-83.305 -159.612)" stroke-linecap="round" stroke-linejoin="round" stroke-width="2.5" fill-rule="evenodd"/>
      <path id="Path_49" data-name="Path 49" stroke="#000" d="M181.647,198.362a13.635,13.635,0,0,0-.726,4.3c0,3.9,6.059,19.159,6.059,29.537,0,8.143-1.82,13.683-1.82,20.436,0,18.448,12.038,29.617,29.449,29.617s29.106-18.88,29.177-34.207c.088-18.792-20.756-41.854-25.809-56.024-4.239-11.974-12.294-35.125-31.6-35.125-8.047-.184-18.273,4.933-18.273,8.486,0,5.285,7.049,16.341,13.571,22.967" fill="none" transform="translate(-0.545 -156.894)" stroke-linecap="round" stroke-linejoin="round" stroke-width="2.5" fill-rule="evenodd"/>
      <path id="Path_50" data-name="Path 50" stroke="#000" d="M233.35,204.842a6.283,6.283,0,1,0,.184-7.983" fill="none" transform="translate(-53.422 -164.516)" stroke-linecap="round" stroke-linejoin="round" stroke-width="2.5" fill-rule="evenodd"/>
      <path id="Path_51" data-name="Path 51" stroke="#000" d="M442.276,292.558c-9.843,1.988-33.831,5.772-38.837,4.183-5.548-1.764-62.706-56.239-67.16-60.271s-13.4-9.739-14.473-16.716,11.352-17.546,14.313-17.475c1.6,5.077-.655,14.649,3.273,21.059,4.51,4.9,64.414,44.209,70.7,46.2,6.283,0,20.069-4.2,26.2-6.171" fill="none" transform="translate(-321.47 -166.049)" stroke-linecap="round" stroke-linejoin="round" stroke-width="2.5" fill-rule="evenodd"/>
      <path id="Path_52" data-name="Path 52" stroke="#000" d="M314.518,276.355c-4.885-20.516-47.746-9.667-54.954-3.912-2.523,7.815,1.445,31,7.743,35.3C276.766,309.117,319.722,298.181,314.518,276.355Z" fill="none" transform="translate(-144.113 -178.576)" stroke-linecap="round" stroke-linejoin="round" stroke-width="2.5" fill-rule="evenodd"/>
      <path id="Path_63" data-name="Path 63" d="M232.778,542.375s25.721-91.8,33.337-117.245c8.095,12.3,53.485,13.683,74.432,7.065-6.905,22.671-41.112,103.993-46.9,110.547l-51.53,139.972L225.53,681.4Z" transform="translate(-143.153 -211)" fill-rule="evenodd"/>
      <path id="Path_64" data-name="Path 64" d="M244.9,429.6c2.211,18.161,4.071,68.437-7.9,95.316C242.956,547.4,273.2,652.2,273.2,652.2L258.18,665.415,180.65,548.066S190.7,468.149,218.1,436.489C229.769,435.507,240,433.152,244.9,429.6Z" transform="translate(-39.982 -211.902)" fill-rule="evenodd"/>
    </g>
  </g>
</svg>
