
<svg width="169px" height="165px" viewBox="0 0 169 165" version="1.1" xmlns="http://www.w3.org/2000/svg" xmlns:xlink="http://www.w3.org/1999/xlink">
    <g id="Welcome" stroke="none" stroke-width="1" fill="none" fill-rule="evenodd">
        <g id="Assocs" transform="translate(-457.000000, -145.000000)">
            <g id="Group">
                <g id="drawing-woman-monochrome" transform="translate(459.000000, 145.000000)">
                    <g id="Vector" transform="translate(0.000000, 0.058824)">
                        <path d="M64.5145474,2.6068873 C60.4655172,2.6068873 57.2262931,6.38237925 53.7171336,6.38237925 C47.6885776,6.38237925 43.3696121,0.0898926655 34.2817888,0.0898926655 C30.2327586,0.0898926655 25.283944,6.20259392 24.3841595,7.10152057 C22.2246767,9.25894454 11.4272629,9.8881932 11.4272629,22.2034884 C11.4272629,24.181127 12.9568966,37.3054562 24.9240302,37.3054562 C33.112069,37.3054562 41.2101293,27.417263 48.4983836,27.417263 C52.0075431,27.417263 51.8275862,28.6757603 57.8561422,28.6757603 C58.3060345,27.5071556 59.0258621,26.068873 59.0258621,24.6305903 C59.0258621,22.832737 57.0463362,22.4731664 57.0463362,20.1359571 C57.0463362,15.6413238 68.2036638,16.8998211 68.2036638,8.09033989 C68.7435345,8.09033989 69.2834052,9.52862254 69.2834052,10.2477639 C69.643319,10.2477639 70.1831897,9.16905188 70.1831897,8.27012522 C70.1831897,6.47227191 68.5635776,2.6068873 64.5145474,2.6068873 Z" id="Path" fill="#000000" fill-rule="nonzero"></path>
                        <path d="M67.7537716,7.10152057 C69.7332974,8.89937388 70.2731681,14.4727191 70.2731681,17.8886404 C70.2731681,26.338551 66.3141164,28.6757603 64.6945043,28.6757603 C63.0748922,28.6757603 62.9849138,28.226297 62.5350216,27.7768336" id="Path" stroke="#000000" stroke-width="2.5" stroke-linecap="round"></path>
                        <path d="M65.5205065,28.5175492 C65.5205065,29.7544723 65.0544181,31.3725403 65.0544181,33.3501789 C65.0544181,35.4644544 76.6400431,45.6996333 77.0971336,58.9713864" id="Path" stroke="#000000" stroke-width="2.5" stroke-linecap="round"></path>
                        <path d="M58.3960129,25.799195 C58.3960129,40.0022361 30.502694,70.5657424 30.502694,96.994186" id="Path" stroke="#000000" stroke-width="2.5" stroke-linecap="round"></path>
                        <path d="M62.3550647,36.0469589 C59.8356681,36.0469589 56.9797522,34.2958497 56.9797522,32.4746243" id="Path" stroke="#000000" stroke-width="2.5" stroke-linecap="round"></path>
                        <path d="M54.2570043,50.789356 C54.2570043,60.6775492 58.6785453,72.9335152 60.3755388,73.4423077 C65.7742457,75.0603757 78.9110991,65.5317531 79.2710129,62.8349732 C79.5427478,60.8033989 70.453125,51.328712 69.7332974,50.789356" id="Path" stroke="#000000" stroke-width="2.5" stroke-linecap="round"></path>
                        <path d="M76.7480172,55.6255814 C77.4678448,56.1829159 80.1671983,59.2392665 80.3471552,60.6775492 C79.8072845,61.0371199 78.8571121,61.5477102 78.8571121,61.5477102" id="Path" stroke="#000000" stroke-width="2.5" stroke-linecap="round"></path>
                        <path d="M78.7959267,63.8363775 C79.4509698,64.6328265 83.7159483,69.3791592 85.182597,72.1298748" id="Path" stroke="#000000" stroke-width="2.5" stroke-linecap="round" stroke-linejoin="round"></path>
                        <path d="M91.3893103,81.3007245 C103.745151,81.3007245 121.20097,85.4879249 122.460668,85.4879249 C123.720366,85.4879249 126.059806,83.8698569 127.139547,83.8698569 C128.219289,83.8698569 132.898168,85.8474955 132.898168,87.2857782 C131.458513,88.1847048 84.309806,88.0049195 83.2300647,87.6453488 C82.1503233,87.2857782 80.7322629,85.1966726 80.7322629,85.1966726 L67.7918972,72.1298748 L79.2769841,64.4564092 L91.3893103,80.5858482" id="Path" stroke="#000000" stroke-width="2.5" stroke-linecap="round" stroke-linejoin="round"></path>
                        <path d="M71.4536853,83.3071288 C71.4536853,84.4092129 64.6945043,102.927102 62.7149784,102.927102" id="Path" stroke="#000000" stroke-width="2.5" stroke-linecap="round" stroke-linejoin="round"></path>
                        <path d="M30.502694,96.4548301 C32.8421336,98.4324687 53.5371767,104.904741 64.5145474,100.949463 C79.2710129,97.533542 121.560884,96.994186 125.699892,102.028175 C127.758599,104.532585 124.620151,122.164132 122.640625,127.018336 C126.239763,129.17576 131.210172,132.118846 130.558728,135.288462 C127.859375,148.412791 90.7882543,183.47093 83.9498922,187.785778 C82.5102371,187.066637 79.8108836,185.448569 79.8108836,184.729428 C79.8108836,184.010286 100.865841,143.019231 102.125539,142.120304 C96.0070043,141.580948 46.3389009,134.20975 36.0813578,123.961986 C31.8523707,119.73703 30.502694,112.275939 30.502694,96.4548301 Z" id="Path" stroke="#000000" stroke-width="2.5" fill="#000000" fill-rule="nonzero" stroke-linecap="round" stroke-linejoin="round"></path>
                        <path d="M126.372931,105.760519 C126.372931,126.658766 105.634698,183.201252 104.644935,184.190072 C103.565194,184.369857 100.595905,184.45975 100.146013,184.010286 L100.146013,172.863596" id="Path" stroke="#000000" stroke-width="2.5" fill="#000000" fill-rule="nonzero" stroke-linecap="round" stroke-linejoin="round"></path>
                        <polyline id="Path" stroke="#000000" stroke-width="2.5" stroke-linecap="round" stroke-linejoin="round" points="30.9183944 51.868068 0.0899784483 51.868068 36.2613147 134.20975 63.6147629 134.20975"></polyline>
                        <path d="M30.9183944,51.868068 L38.3146228,68.7049642" id="Path" stroke="#000000" stroke-width="2.5" stroke-linecap="round" stroke-linejoin="round"></path>
                        <path d="M45.0432112,134.20975 L29.9628233,190.122987" id="Path" stroke="#000000" stroke-width="2.5" stroke-linecap="round" stroke-linejoin="round"></path>
                        <path d="M71.1369612,134.20975 L56.0565733,190.122987" id="Path" stroke="#000000" stroke-width="2.5" stroke-linecap="round" stroke-linejoin="round"></path>
                        <path d="M77.471444,134.20975 L92.5518319,190.122987" id="Path" stroke="#000000" stroke-width="2.5" stroke-linecap="round" stroke-linejoin="round"></path>
                        <rect id="Rectangle" fill="#000000" fill-rule="nonzero" x="71.5328664" y="87.2857782" width="95.3771552" height="3.77549195"></rect>
                        <path d="M161.961207,185.178891 L161.961207,90.2522361" id="Path" stroke="#000000" stroke-width="2.5" stroke-linecap="round" stroke-linejoin="round"></path>
                        <path d="M87.1891164,185.268784 L87.1891164,90.3421288" id="Path" stroke="#000000" stroke-width="2.5" stroke-linecap="round" stroke-linejoin="round"></path>
                        <path d="M150.893858,172.863596 L150.893858,90.3421288" id="Path" stroke="#000000" stroke-width="2.5" stroke-linecap="round" stroke-linejoin="round"></path>
                        <path d="M76.7516164,172.863596 L76.7516164,90.3421288" id="Path" stroke="#000000" stroke-width="2.5" stroke-linecap="round" stroke-linejoin="round"></path>
                    </g>
                </g>
            </g>
        </g>
    </g>
</svg>
