
<svg width="466px" height="435px" viewBox="0 0 466 435" version="1.1" xmlns="http://www.w3.org/2000/svg" xmlns:xlink="http://www.w3.org/1999/xlink">
    <g id="Welcome" stroke="none" stroke-width="1" fill="none" fill-rule="evenodd">
        <g id="Macbook-Air" transform="translate(-640.000000, -174.000000)">
            <g id="drawkit-server-woman-monochrome" transform="translate(640.000000, 176.000000)">
                <path d="M328,403 L274,313" id="Path" stroke="#000000" stroke-width="4" stroke-linecap="round" stroke-linejoin="round"></path>
                <path d="M351,403 L298,313" id="Path" stroke="#000000" stroke-width="4" stroke-linecap="round" stroke-linejoin="round"></path>
                <path d="M177,396 L227,313" id="Path" stroke="#000000" stroke-width="4" stroke-linecap="round" stroke-linejoin="round"></path>
                <polyline id="Path" stroke="#000000" stroke-width="2.5" stroke-linecap="round" stroke-linejoin="round" points="308.275229 110 385 110 329.295123 311 188 311 188 303.839542 292.788703 303.839542 295.033127 257"></polyline>
                <path d="M137.638006,243 C126.014388,243 68,378.483036 68,383.432861 C68,388.382686 80.5915332,394 82.4495838,394 C85.3446858,391.304036 140.878792,310.780527 146.660354,305.163213 C152.441916,299.545898 137.638006,243 137.638006,243 Z" id="Path" fill="#000000" fill-rule="nonzero"></path>
                <path d="M171,176.043345 C167.489433,173.34759 163.096233,171.917414 158.591017,172.003687 C149.429965,172.003687 142,177.376269 142,184" id="Path" stroke="#000000" stroke-width="2.5" stroke-linecap="round" stroke-linejoin="round"></path>
                <path d="M224,148 C217.876382,153.336207 209.817085,162.413793 206,173" id="Path" stroke="#000000" stroke-width="2.5" stroke-linecap="round" stroke-linejoin="round"></path>
                <path d="M255,119.382431 C253.06232,118.527951 250.979375,118.058562 248.865372,118 C237.398464,118 218,139.073647 218,141.720497 C218,144.030169 228.463971,153.125555 238.242602,156" id="Path" stroke="#000000" stroke-width="2.5" stroke-linecap="round" stroke-linejoin="round"></path>
                <path d="M236,177 C238.1479,145.277347 247.741287,115.062016 274,107" id="Path" stroke="#000000" stroke-width="2.5" stroke-linecap="round" stroke-linejoin="round"></path>
                <path d="M333.819938,151 C345.785033,195.755445 337.635647,257.90721 332.214233,261.936915 C323.693635,268.290131 249.339121,268.864578 244.496107,262.519936 C242.45876,259.844898 235.949611,231.534079 235,199.656542" id="Path" stroke="#000000" stroke-width="2.5" stroke-linecap="round" stroke-linejoin="round"></path>
                <path d="M300,107 C310.346474,110.40756 318.167089,118.352506 324,129" id="Path" stroke="#000000" stroke-width="2.5" stroke-linecap="round" stroke-linejoin="round"></path>
                <path d="M288,116 C294.5,116 301,114.586576 301,111.690781 L301,83" id="Path" stroke="#000000" stroke-width="2.5" stroke-linecap="round" stroke-linejoin="round"></path>
                <path d="M273.5,97 L273.5,107" id="Path" stroke="#000000" stroke-width="2.5" stroke-linecap="round" stroke-linejoin="round"></path>
                <path d="M284,97.066664 C281.226502,97.988369 278.278078,98.2318586 275.394515,97.7773306 C261.143013,95.4633307 252.366954,76.1106652 255.710214,54.5999998 C255.846674,53.7333332 256.000191,52.8666666 256.170766,52" id="Path" stroke="#000000" stroke-width="2.5" stroke-linecap="round" stroke-linejoin="round"></path>
                <path d="M306,71 C304.580503,75.2304858 302.562766,79.2659589 300,83" id="Path" stroke="#000000" stroke-width="2.5" stroke-linecap="round" stroke-linejoin="round"></path>
                <path d="M312,17.8279268 C315.832878,11.1868293 325.557832,0 344.601093,0 C357.579235,0 370.557377,6.92682927 386.996357,6.92682927 C399.974499,6.92682927 412.087432,1.73170732 427.661202,1.73170732 C455.347905,1.73170732 464,19.9146341 464,31.1707317 C464,59.7439024 440.639344,71 423.335155,71 C395.648452,71 392.187614,51.9512195 359.309654,51.9512195 C327.296903,51.9512195 331.622951,25.9756098 324.701275,25.9756098 C323.056689,25.9153045 321.412248,26.0991288 319.821494,26.5210976" id="Path" stroke="#000000" stroke-width="2.5"></path>
                <path d="M304.255503,79 C318.344474,79 325,64.518625 325,46.225 C325,16.0375 298.29146,10 286.968422,10 C256.39622,10 250,33.209875 250,39.9115 C250,46.613125 254.243978,51.581125 256.413507,51.745 C257.761899,43.732375 264.192693,32.675125 264.495217,32.425 C267.352464,35.2050598 270.698644,37.4359343 274.36614,39.005875" id="Path" stroke="#000000" stroke-width="2.5" stroke-linecap="round" stroke-linejoin="round"></path>
                <path d="M303,56.6684583 C303.919575,56.2238426 304.919036,55.9958134 305.929624,56.0000582 C309.834485,56.0000582 313,59.3579093 313,63.5000286 C313,67.6421478 309.834485,70.9999989 305.929624,70.9999989 C305.202473,71.0004094 304.479506,70.8833263 303.785597,70.6527781" id="Path" stroke="#000000" stroke-width="2.5" stroke-linecap="round" stroke-linejoin="round"></path>
                <path d="M235,199.484283 C243.82797,203.153242 252.205446,206 262.636139,206 C270.762376,206 286.321782,200.828094 298,188" id="Path" stroke="#000000" stroke-width="2.5" stroke-linecap="round" stroke-linejoin="round"></path>
                <path d="M274,165 C267.744542,169.572065 262.51602,175.388199 258.647411,182.078002 C251.495585,180.751722 222.402819,173.526083 196.578222,173.526083 C194.150936,173.526083 187.848659,171.545276 185.308677,171.545276 C170.164142,171.545276 167,179.675197 167,182.078002 C167,184.480807 167.520133,184.549705 167.988252,184.549705 C201.424127,184.549705 218.779227,193.566683 234.686624,200" id="Path" stroke="#000000" stroke-width="2.5" stroke-linecap="round" stroke-linejoin="round"></path>
                <path d="M310.134025,128.575655 C318.599315,126.168552 326.413429,126.202817 331.271546,130.914229 C347.32818,146.496152 306.723918,189.626986 300.212156,188.993087 C293.700394,188.359187 270.22378,163.645691 270.001009,156.133131 C269.915328,153.56327 275.296099,147.978105 283.024532,142.427206" id="Path" stroke="#000000" stroke-width="2.5" stroke-linecap="round" stroke-linejoin="round"></path>
                <rect id="Rectangle" fill="#000000" fill-rule="nonzero" x="0" y="187" width="365" height="11"></rect>
                <path d="M345.5,374 L345.5,195" id="Path" stroke="#000000" stroke-width="4" stroke-linecap="round" stroke-linejoin="round"></path>
                <path d="M42.5,374 L42.5,195" id="Path" stroke="#000000" stroke-width="4" stroke-linecap="round" stroke-linejoin="round"></path>
                <path d="M320.5,410 L320.5,195" id="Path" stroke="#000000" stroke-width="4" stroke-linecap="round" stroke-linejoin="round"></path>
                <path d="M15.5,410 L15.5,195" id="Path" stroke="#000000" stroke-width="4" stroke-linecap="round" stroke-linejoin="round"></path>
                <path d="M196,407 L252,312" id="Path" stroke="#000000" stroke-width="4" stroke-linecap="round" stroke-linejoin="round"></path>
                <rect id="Rectangle" fill="#000000" fill-rule="nonzero" x="134" y="185" width="60" height="2"></rect>
                <polyline id="Path" stroke="#000000" stroke-width="2.5" stroke-linecap="round" stroke-linejoin="round" points="109.416895 139 67 139 67 42 199 42 199 139 140.941338 139"></polyline>
                <polygon id="Path" stroke="#000000" stroke-width="2.5" stroke-linecap="round" stroke-linejoin="round" points="114.358494 122 96 187 128.17942 187 146 122"></polygon>
                <path d="M263,28 C263.431838,29.4914696 264.113251,30.8542952 265,32" id="Path" stroke="#000000" stroke-width="2.5" stroke-linecap="round" stroke-linejoin="round"></path>
                <polyline id="Path" stroke="#000000" stroke-width="2.5" stroke-linecap="round" stroke-linejoin="round" points="179.154734 401 183 422.190338 138 431 168.788106 410.99709 167.31582 402.597788"></polyline>
                <polyline id="Path" stroke="#000000" stroke-width="2.5" stroke-linecap="round" stroke-linejoin="round" points="84 389.804836 73.1319986 408 33 384.148532 69.5670173 390.176166 73.9107567 383"></polyline>
                <path d="M331.916656,269.61521 C331.916656,265.895935 332.563865,261.588495 330.25117,260.628403 C275.350548,237.940822 194.975762,235 182.592487,235 C170.209212,235 134,236.262824 134,246.650847 C134,284.172281 154.857404,399.686057 159.094469,404.002147 C161.105133,406.034774 178.640195,404.676806 180.823448,402.479839 C180.676747,392.965413 186.190972,297.397333 181.159997,285.824332 C227.301717,302.777308 279.699796,310.804023 293.506931,310.804023 C333.521735,310.760776 331.916656,274.026444 331.916656,269.61521 Z" id="Path" fill="#000000" fill-rule="nonzero"></path>
            </g>
        </g>
    </g>
</svg>
