
<svg width="249px" height="359px" viewBox="0 0 249 359" version="1.1" xmlns="http://www.w3.org/2000/svg" xmlns:xlink="http://www.w3.org/1999/xlink">
    <g id="Welcome" stroke="none" stroke-width="1" fill="none" fill-rule="evenodd">
        <g id="Home-v2" transform="translate(-950.000000, -1854.000000)">
            <g id="business-woman-monochrome" transform="translate(951.000000, 1855.000000)">
                <g id="Shadows" transform="translate(228.000000, 70.000000)" fill-rule="nonzero">
                    <path d="M22.9342857,112.878137 C18.2740476,106.818235 9.79142857,64.1330392 21.762381,42.0980392 C18.1316667,45.277549 17.5347619,45.1501471 17.5347619,45.1501471 L16.0890476,44.5962255 L11.4561905,42.8236765 L5.91428571,49.2380882 L4.81904762,53.1653922 L3.55404762,61.5351471 L2.45880952,69.3842157 L1.41833333,76.9286275 L0.547619048,85.3316176 L0.317619048,94.3162255 L0.317619048,100.99098 L1.50595238,103.971078 L6.98214286,107.20598 L14.1011905,109.305343 L22.9342857,112.878137 Z" id="Path"></path>
                </g>
                <g id="Vector" transform="translate(124.000000, 178.500000) scale(-1, 1) translate(-124.000000, -178.500000) ">
                    <polyline id="Path" stroke="#000000" stroke-width="2" stroke-linecap="round" stroke-linejoin="round" points="190.337264 344.914089 190.337264 355.927148 223.45184 355.927148 223.45184 351.132646 200.778302 344.364261"></polyline>
                    <polyline id="Path" stroke="#000000" stroke-width="2" stroke-linecap="round" stroke-linejoin="round" points="50.7570755 341.065292 50.806533 348.004124 54.3180189 351.858419 62.9181368 351.858419 66.2098113 356.927835 44.0363443 356.927835 35.6780189 343.418557 41.0798821 336.116838"></polyline>
                    <path d="M162.069528,179.146392 C162.069528,179.146392 203.569906,241.276976 207.185802,254.709278 C210.801698,268.141581 201.965283,345.090034 201.965283,345.090034 L189.721792,345.090034 C189.721792,345.090034 180.484222,289.656357 183.094481,270.170447 C173.851415,264.551203 133.735849,239.033677 130.499127,225.881787" id="Path" fill="#000000" fill-rule="nonzero"></path>
                    <path d="M97.9615566,172.119588 L88.125,260.790378 L40.3709906,335.649485 L50.8120283,342.478351 L121.470377,265.353952 C121.470377,265.353952 158.206344,188.62543 162.069528,179.146392 C154.617925,181.61512 111.205189,186.013746 97.9615566,172.119588 Z" id="Path" fill="#000000" fill-rule="nonzero"></path>
                    <rect id="Rectangle" fill="#A097A9" fill-rule="nonzero" x="0.0685849057" y="210.398625" width="98.1402594" height="52.4316151"></rect>
                    <path d="M57.4118632,198.54433 C63.0313751,202.311602 65.4016263,209.398969 63.1798842,215.79148 C60.9581421,222.183991 54.7042828,226.270743 47.9610792,225.736614 C41.2178756,225.202486 35.6846065,220.182078 34.4958349,213.51942 C33.3070633,206.856763 36.7623581,200.230837 42.904316,197.395189" id="Path" stroke="#A097A9" stroke-width="9"></path>
                    <path d="M89.8725,99.1408935 C84.0914623,105.331959 66.8802358,123.641237 61.7916038,134.538832 C55.8786792,147.18488 53.9003774,162.4811 51.8341509,169.5189 C49.1634434,178.618557 42.3877594,189.257732 42.3877594,195.069416 C42.3877594,198.186942 46.0201415,203.063918 48.6139151,203.063918 C51.2076887,203.063918 57.7635613,202.635052 59.1978302,193.2 C61.4399057,178.475601 71.0291745,154.99244 74.9692925,150.115464 C78.2664623,146.052234 100.797123,122.156701 109.040047,112.870103" id="Path" stroke="#000000" stroke-width="2.5"></path>
                    <path d="M165.196344,67.9601375 C176.796887,75.5037801 192.244127,102.472852 188.941462,105.55189 C187.089552,107.278351 181.209599,110.098969 174.972453,112.33677" id="Path" stroke="#000000" stroke-width="2.5"></path>
                    <path d="M158.046981,62.1649485 C190.754906,79.9628866 167.509858,160.760137 162.069528,179.146392 C151.628491,183.869416 102.022571,182.005498 97.9615566,172.119588 C97.2526651,166.621306 98.1154245,143.418557 103.105142,119.418557" id="Path" stroke="#000000" stroke-width="2.5" stroke-linecap="round"></path>
                    <path d="M126.630448,66.6515464 C131.026675,62.604811 136.005401,59.9161512 141.704009,59.1079038" id="Path" stroke="#000000" stroke-width="2.5"></path>
                    <path d="M151.414175,56.067354 C152.066447,56.1904966 152.728695,56.2530764 153.392476,56.2542955 C162.283844,56.2542955 169.493656,44.9608247 169.493656,31.0281787 C169.497639,28.3905925 169.230631,25.7595827 168.69684,23.1766323" id="Path" stroke="#000000" stroke-width="2.5" stroke-linecap="round" stroke-linejoin="round"></path>
                    <path d="M164.416014,20.8948454 C165.653324,19.7171233 166.37777,18.0995598 166.432783,16.3917526 C167.279057,17.8817869 168.493514,21.9505155 168.69684,23.1766323 C169.647524,21.9395189 171.510425,19.8776632 171.510425,16.1333333 C171.510425,8.54570447 165.553538,2.09621993 152.694575,2.09621993 C147.199292,2.09621993 134.010613,6.49484536 128.51533,6.49484536 C113.06809,6.49484536 113.447264,0.996563574 97.7417453,0.996563574 C89.4988208,0.996563574 80.2447642,6.40137457 69.7158019,10.8934708 C58.7801887,15.5560137 44.4375,14.8082474 44.4375,34.5360825 C44.4375,41.1340206 46.5092217,62.5773196 69.1662736,62.5773196 C85.7070755,62.5773196 101.676368,47.7319588 116.975236,47.7319588 C123.327783,47.7319588 128.053726,49.3814433 133.461085,49.3814433 C136.758255,49.3814433 140.604953,48.8316151 141.704009,47.7319588 L141.704009,38.3848797 C141.704009,38.3848797 140.984127,38.9347079 138.40684,38.9347079 C137.489127,38.9347079 136.571415,38.1649485 136.291156,36.6309278" id="Path" stroke="#000000" stroke-width="2.5" stroke-linecap="round" stroke-linejoin="round"></path>
                    <path d="M127.542665,67.0969072 C137.302288,73.0735395 121.118679,116.339519 115.661863,115.481787 C110.205047,114.624055 88.7349764,101.895533 88.7349764,96.5621993 C88.7349764,91.228866 117.25,60.790378 127.542665,67.0969072 Z" id="Path" stroke="#000000" stroke-width="2.5"></path>
                    <path d="M172.114906,137.002062 C173.400802,139.591753 174.983443,142.109966 176.406722,143.253608 C193.74434,157.158763 226.441274,172.603436 228.710825,173.494158 C230.128608,174.043986 232.497075,175.891409 234.068726,177.189003 C235.212686,180.374011 238.542719,182.213538 241.846053,181.485238 C245.149387,180.756938 247.398277,177.687402 247.098361,174.316304 C246.798445,170.945206 244.043032,168.321374 240.663066,168.188316 C239.564009,167.863918 237.420849,167.204124 233.403797,165.021306 C229.386745,162.838488 197.134929,136.49622 191.524245,133.510653 C191.62316,125.120275 188.924976,110.967698 187.589623,106.569072" id="Path" stroke="#000000" stroke-width="2.5"></path>
                    <path d="M141.704009,59.1079038 L141.704009,69.1697595 C141.704009,70.2694158 146.429953,70.7092784 148.463208,70.7092784" id="Path" stroke="#000000" stroke-width="2.5" stroke-linecap="round" stroke-linejoin="round"></path>
                    <path d="M141.704009,47.7319588 L141.704009,59.1079038" id="Path" stroke="#000000" stroke-width="2.5" stroke-linecap="round" stroke-linejoin="round"></path>
                    <path d="M157.871132,55.5890034 L157.871132,62.0274914" id="Path" stroke="#000000" stroke-width="2.5" stroke-linecap="round"></path>
                </g>
            </g>
        </g>
    </g>
</svg>
