
<svg width="180px" height="193px" viewBox="0 0 180 193" version="1.1" xmlns="http://www.w3.org/2000/svg" xmlns:xlink="http://www.w3.org/1999/xlink">
    <g id="Welcome" stroke="none" stroke-width="1" fill="none" fill-rule="evenodd">
        <g id="Macbook-Air" transform="translate(-553.000000, -849.000000)">
            <g id="drawkit-developer-woman-monochrome" transform="translate(554.000000, 850.000000)">
                <g id="Vector" transform="translate(0.000000, 0.126897)">
                    <g id="Layer_3" transform="translate(0.771248, 0.000000)" stroke="#000000" stroke-linecap="round" stroke-width="2.5">
                        <path d="M32.7141511,89.2076328 C30.4645608,90.6081604 26.0577546,91.8024087 17.0621102,92.0928281 C7.72141993,92.0928281 0.0543379306,83.135966 0.0543379306,71.4649032 C-0.217351722,46.0328431 26.2452205,41.2015659 40.9707996,12.8110271 C47.735872,-0.244278059 55.9408995,0.0814260196 58.0057409,0.189994046 C62.5157891,0.434272104 68.9276649,3.98987496 68.9276649,10.2053945 C68.957692,12.4122947 68.0063703,14.5188328 66.3303118,15.9567856" id="Path"></path>
                        <path d="M61.2823181,28.9170937 C60.3096691,31.2051649 58.2937319,35.0457588 57.6335261,39.4509065" id="Path"></path>
                    </g>
                    <path d="M16.8552755,139.808476 L171.90856,139.808476" id="Path" stroke="#FFFFFF" stroke-width="12.98" stroke-linecap="round" stroke-linejoin="round"></path>
                    <path d="M76.944876,162.037779 L151.504667,162.037779" id="Path" stroke="#FFFFFF" stroke-width="12.98" stroke-linecap="round" stroke-linejoin="round"></path>
                    <path d="M29.4888444,162.037779 L69.6581595,162.037779" id="Path" stroke="#FFFFFF" stroke-width="12.98" stroke-linecap="round" stroke-linejoin="round"></path>
                    <path d="M104.665371,95.784141 C110.235009,95.784141 118.412868,129.114525 121.944833,138.912789 C121.211271,140.94844 117.02725,144.151197 114.745057,144.151197 C110.316516,136.741429 100.399844,120.863355 98.66103,118.420574 C97.2482438,116.439208 99.0957334,95.784141 104.665371,95.784141 Z" id="Path" fill="#000000" fill-rule="nonzero"></path>
                    <path d="M102.573361,29.9647752 C103.524275,29.3676511 103.089571,29.7747812 103.823133,28.6619589" id="Path" fill="#000000" fill-rule="nonzero" opacity="0.27"></path>
                    <path d="M67.4248706,89.6907605 C67.327766,90.4373192 67.1798046,91.1763921 66.9820164,91.9028341 C57.934751,95.729857 34.3249202,93.4227864 33.672865,90.7628698 C33.0914491,88.4178004 30.2115388,41.3345617 45.7304518,35.4854593" id="Path" stroke="#000000" stroke-width="2.5" stroke-linecap="round"></path>
                    <path d="M54.1908676,36.0988687 C65.7512623,41.8964013 68.3187295,67.0678981 67.9818344,81.8874337" id="Path" stroke="#000000" stroke-width="2.5" stroke-linecap="round"></path>
                    <path d="M50.4089476,37.3229732 C48.0126449,36.9674129 45.3473694,36.1124397 45.6272097,35.6645966 C48.2761838,31.1861655 48.8467321,26.5177404 49.2895862,23.8931083" id="Path" stroke="#000000" stroke-width="2.5" stroke-linecap="round" stroke-linejoin="round"></path>
                    <path d="M55.9976038,31.3245897 C55.5058455,32.5079812 54.6174203,34.6657707 54.1908676,36.1070113" id="Path" stroke="#000000" stroke-width="2.5" stroke-linecap="round" stroke-linejoin="round"></path>
                    <path d="M41.1225953,65.1408156 C40.9650153,66.2699231 41.1361798,67.6677365 41.1225953,68.5199955 C41.0682574,73.1341366 41.2856091,78.2911178 44.0568435,82.1724247 C45.1436021,83.6923771 46.9367539,85.1580455 48.6755676,85.1309035 C51.4196331,86.2165837 56.0111883,87.465116 56.0111883,87.465116 L62.9664434,88.9850684 C62.9664434,88.9850684 74.7034364,91.0750029 80.490426,90.9121508 C82.4194225,90.8578668 84.375588,90.6407308 86.3045846,90.6950148 C87.4185121,90.7221568 89.1844949,91.0750029 90.2440845,90.6950148 C90.5429431,90.5864468 90.4614362,89.9078966 90.4070983,89.6636185 C90.1625776,88.7407903 89.2660018,88.0893822 88.4781018,87.6822521 C86.6034432,86.7594238 85.5438535,87.329406 83.614857,87.38369 C82.039057,87.410832 80.1643984,86.5965718 77.4203329,85.5380335 C74.187226,84.2623592 70.4922468,82.7424069 67.204802,81.6295846 C63.4554847,80.3539103 59.6246606,78.99681 55.9568503,77.5039996 C55.2190195,77.2190916 54.4662347,76.9744528 53.7018262,76.7711654 C54.0514231,74.7986456 54.2512317,72.8025425 54.2995434,70.799924 C54.3810503,68.6285635 54.4082193,66.3486349 54.1093607,64.2044164" id="Path" stroke="#000000" stroke-width="2.5" stroke-linecap="round"></path>
                    <path d="M55.9378321,57.2099213 C56.3616679,60.1304012 56.4078552,62.4700422 56.1415993,63.2137332 C54.4571234,64.1908454 45.1381684,67.4750282 38.345927,64.1365614 C36.2539167,58.5995921 38.0742374,41.3101339 44.8393097,40.1973117 C46.6025756,39.9258916 48.1321883,40.4931595 49.4580338,41.5869824" id="Path" stroke="#000000" stroke-width="2.5" stroke-linecap="round"></path>
                    <path d="M53.1693145,30.3827621 C53.646124,30.6828382 54.1616437,30.9166008 54.7016441,31.0775975 C57.1713031,31.8321452 59.8284279,30.9418874 62.0535661,28.9062369" id="Path" stroke="#000000" stroke-width="2.5" stroke-linecap="round" stroke-linejoin="round"></path>
                    <path d="M53.2481045,19.0238324 C51.4155064,19.4503885 49.5455193,19.6967455 47.6648821,19.7593807 C47.3432405,20.1713967 47.1623139,20.6755858 47.1486718,21.1979071 C47.1718813,22.4016632 48.0515966,23.417468 49.2406821,23.6135457 L49.2895862,23.8849657" id="Path" stroke="#000000" stroke-width="2.5" stroke-linecap="round" stroke-linejoin="round"></path>
                    <path d="M62.0535661,28.9170937 C63.9879965,27.1582917 65.5855316,24.5445165 66.4658061,21.4150431 C67.3895509,17.9951503 67.308044,14.6295415 66.3571302,11.9424829 C65.8490706,12.4256106 65.3247096,12.8924531 64.7840471,13.337582" id="Path" stroke="#000000" stroke-width="2.5" stroke-linecap="round" stroke-linejoin="round"></path>
                    <path d="M73.556906,91.2785679 C78.4473198,91.2785679 96.1071472,91.1428579 99.3402541,91.1428579" id="Path" fill="#FFC88E" fill-rule="nonzero"></path>
                    <path d="M70.5411509,91.522846 C75.7032543,91.522846 93.5260955,91.0885739 96.4875127,91.0885739 C98.7697058,87.560113 109.41994,68.9678386 110.126333,67.5564542" id="Path" stroke="#000000" stroke-width="5.79" stroke-linecap="round" stroke-linejoin="round"></path>
                    <path d="M16.8552755,183.588532 L156.639602,183.588532" id="Path" stroke="#FFFFFF" stroke-width="12.98" stroke-linecap="round" stroke-linejoin="round"></path>
                    <path d="M104.665371,96.5441172 C104.746878,92.7442363 90.7548611,91.685698 81.9249473,91.685698 C77.9718629,91.685698 72.0164257,91.8919773 66.4386371,92.1199701 C57.4864631,95.4638653 36.5364739,93.5802101 33.936404,91.1455721 C32.7246681,92.5189576 31.9965398,95.1055908 31.9965398,99.96401 C31.9965398,111.309369 44.412757,120.781929 59.1111672,120.781929 C73.8095774,120.781929 80.3572981,120.401941 81.6885773,120.076237 C82.0961118,123.821834 73.4020429,149.552456 72.4782981,156.175106 C73.1303533,157.939336 77.4502188,160.137838 79.2705394,160.137838 C81.0908601,160.137838 105.290257,120.836213 104.665371,96.5441172 Z" id="Path" fill="#000000" fill-rule="nonzero"></path>
                    <polyline id="Path" stroke="#000000" stroke-width="2.5" stroke-linecap="round" stroke-linejoin="round" points="73.1928419 156.112679 67.1558978 166.233933 87.263649 177.098878 76.4368164 161.296802 77.8333012 158.854022"></polyline>
                    <polyline id="Path" stroke="#000000" stroke-width="2.5" stroke-linecap="round" stroke-linejoin="round" points="115.247683 143.491646 120.499444 154.03903 140.525689 143.022089 121.366134 143.570358 120.064741 141.076007"></polyline>
                </g>
                <path d="M87.0012633,178 C46.132556,178 13,181.133878 13,185.000629 C13,188.867379 46.132556,192 87.0012633,192 C127.86997,192 161,188.866122 161,185.000629 C161,181.135135 127.86997,178 87.0012633,178 Z" id="Path" fill="#FAEFFF" fill-rule="nonzero"></path>
            </g>
        </g>
    </g>
</svg>
