<svg width="106" height="133" viewBox="0 0 106 133" fill="none" xmlns="http://www.w3.org/2000/svg">
<path d="M32.7165 57.6993C32.6395 57.6993 32.5912 59.8491 32.5656 63.3313C32.6818 64.4509 32.7633 65.2195 32.7633 65.309C32.7602 65.3283 32.7481 65.3455 32.7301 65.3564C33.1076 66.0252 33.3002 66.7659 33.2916 67.5157C33.3059 68.381 33.044 69.2319 32.5369 69.9677C32.5112 87.4533 32.7165 117.459 32.7165 117.459H37.3565L50.297 62.9233C45.2887 62.0626 37.0682 59.3449 32.7165 57.6993Z" fill="black"/>
<path d="M31.8017 53.4777C31.5277 55.3325 32.7692 65.744 32.7692 66.0895C32.766 66.109 32.7535 66.1264 32.7348 66.1375C33.1264 66.8139 33.3261 67.5629 33.3172 68.3212C33.3207 68.9161 33.2002 69.5065 32.9618 70.0636L37.9404 69.7373L36.4437 52.2042L32.0224 52.4935C31.9097 52.9225 31.833 53.2611 31.8017 53.4777Z" fill="#DFDFDF"/>
<path d="M28.0099 68.3415C27.999 67.5504 28.2271 66.7698 28.6731 66.0725C28.624 65.3862 27.1582 61.2779 26.608 54.0633C26.5785 53.6763 26.5577 53.2855 26.5457 52.8911L21.7227 53.1945L23.2883 70.7504L28.5552 70.421C28.1891 69.7711 28.0027 69.0602 28.0099 68.3415V68.3415Z" fill="#DFDFDF"/>
<path d="M57.1555 64.0487C57.2549 65.8512 61.8812 118.146 61.8812 118.146H57.1555L44.8911 78.8731C44.8911 78.8731 48.0856 63.1577 48.3037 63.1946C49.3452 63.4475 55.1258 64.3876 57.1555 64.0487Z" fill="black"/>
<path d="M63.3343 34.8084C64.805 35.8283 67.2936 37.8095 68.5127 39.2409C69.7304 38.4287 83.5789 28.0778 83.8496 27.5093C84.3897 27.2257 85.5629 28.8088 83.8496 30.107C85.0214 30.067 91.9235 29.9046 91.9235 30.107C91.9235 30.3094 93.4119 30.8792 83.2623 32.3399C81.91 33.8045 69.7304 46.7091 67.7463 46.7091C66.3911 46.7091 62.198 43.419 59.5645 40.9305" stroke="black" stroke-width="2.5" stroke-linecap="round" stroke-linejoin="round"/>
<path d="M58.1038 38.4663C60.3295 37.2721 62.6976 35.1865 63.4074 33.5543C63.8277 32.5861 56.9001 28.1135 52.6138 27.476" stroke="black" stroke-width="2.5" stroke-linecap="round" stroke-linejoin="round"/>
<path d="M32.5347 58.2521C36.0671 60.6781 56.3642 65.8505 58.0845 64.2751C59.8049 62.6998 62.8847 28.811 47.8083 24.7283" stroke="black" stroke-width="2.5" stroke-linecap="round" stroke-linejoin="round"/>
<path d="M41.802 23.3545C38.8035 23.8658 36.5429 25.3728 34.8516 27.4759" stroke="black" stroke-width="2.5" stroke-linecap="round" stroke-linejoin="round"/>
<path d="M44.1187 26.1021C46.0493 26.1021 47.98 25.8732 47.98 25.4287V19.92" stroke="black" stroke-width="2.5" stroke-linecap="round" stroke-linejoin="round"/>
<path d="M41.8018 20.6069V24.0414" stroke="black" stroke-width="2.5" stroke-linecap="round" stroke-linejoin="round"/>
<path fill-rule="evenodd" clip-rule="evenodd" d="M44.8911 21.2938C48.3032 21.2938 51.0693 17.1421 51.0693 12.0207C51.0693 6.89927 48.3032 2.74756 44.8911 2.74756C41.479 2.74756 38.7129 6.89927 38.7129 12.0207C38.7129 17.1421 41.479 21.2938 44.8911 21.2938Z" stroke="black" stroke-width="2.5"/>
<path d="M44.1455 0.405382C41.0173 0.405382 36.856 1.75666 33.8445 1.75666C31.1254 1.75666 26.1582 0 23.5435 0C21.8772 0 14 0.691852 14 6.35099C14 8.90489 17.0297 11.3507 17.6356 12.0263C18.2416 12.702 19.352 16.4855 22.1802 16.4855C26.1309 16.4855 28.8591 13.9181 32.4811 13.9181C34.9761 13.9181 35.626 14.4586 36.8742 14.4586C37.7831 14.4586 39.1465 14.0776 39.1465 14.0532C39.1465 13.6398 39.0541 10.1346 39.6009 9.56566C40.3584 8.7549 50.0004 9.96159 50.0004 7.10364C50.6745 7.64415 51.3168 9.94132 51.3168 10.4102C51.753 9.99942 53.3861 8.24277 53.3861 6.35099C53.3861 4.64027 52.0227 0.405382 44.1455 0.405382Z" fill="black"/>
<path d="M32.7653 66.0624C32.7621 66.0818 32.7497 66.099 32.731 66.1099C33.1211 66.7797 33.3202 67.5213 33.3113 68.2721C33.3113 69.6294 32.7061 70.8089 31.8092 71.4373L39.485 70.9378L37.9938 53.578L31.7686 53.9852C31.6688 56.5898 32.7653 65.7408 32.7653 66.0624Z" fill="#F2F2F2"/>
<path d="M28.4421 67.7332C28.4318 66.9375 28.6482 66.1524 29.0713 65.4511C29.0247 64.7608 27.6607 60.706 27.1279 53.578L24.0396 53.7796L25.5247 71.4373L30.2178 71.1253C29.1723 70.5551 28.4421 69.2505 28.4421 67.7332Z" fill="#F2F2F2"/>
<path d="M28.4213 39.1532C27.6117 41.9265 25.9985 48.9294 26.4279 55.0825C26.9431 62.478 28.3155 66.6865 28.3615 67.3928C27.9439 68.1076 27.7303 68.9078 27.7405 69.7187C27.7405 71.8054 29.0515 73.4981 30.6693 73.4981C32.287 73.4981 33.5996 71.8096 33.5996 69.7187C33.6084 68.9404 33.4127 68.1716 33.0292 67.4773C33.0475 67.466 33.0598 67.4481 33.063 67.428C33.063 67.0734 31.847 56.3868 32.1153 54.4831C32.3422 52.8622 34.926 44.6464 35.6238 41.4129" stroke="black" stroke-width="2.5" stroke-linecap="round" stroke-linejoin="round"/>
<path d="M36.3958 29.6658C36.0398 28.6049 35.4881 27.8306 34.6862 27.5978C30.3093 26.3258 25.1242 35.3998 25.6166 36.9629C26.0817 38.44 29.5796 40.0031 32.6012 40.527" stroke="black" stroke-width="2.5" stroke-linecap="round" stroke-linejoin="round"/>
<path d="M36.392 54.8031C36.4472 55.2311 35.8797 55.6038 35.1226 55.6367V55.6367C34.3662 55.6672 33.7082 55.3467 33.6499 54.9193L33.3102 52.3528C33.2563 51.9251 33.8231 51.5529 34.5796 51.5192V51.5192C35.3356 51.4895 35.9929 51.8097 36.0523 52.2366L36.2334 53.5969" stroke="black" stroke-width="2.5" stroke-linecap="round" stroke-linejoin="round"/>
<path d="M37.1684 117.053V122.447L28.6733 126.389L33.6151 121.587V116.773" stroke="black" stroke-width="2.5" stroke-linecap="round" stroke-linejoin="round"/>
<path d="M57.2476 117.065V122.955H68.0594L60.8515 119.567V116.773" stroke="black" stroke-width="2.5" stroke-linecap="round" stroke-linejoin="round"/>
<path d="M52.9991 123.629C82.2699 123.629 106 125.727 106 128.315C106 130.903 82.2699 133 52.9991 133C23.7283 133 0 130.902 0 128.315C0 125.728 23.7283 123.629 52.9991 123.629Z" fill="#A097A9" fill-opacity="0.5"/>
</svg>
