<svg width="100" height="136" viewBox="0 0 100 136" fill="none" xmlns="http://www.w3.org/2000/svg">
<path d="M52.9816 34.4565L54.5841 24.9023L55.9484 16.4887V16.4768C55.9602 16.509 55.9706 16.5428 55.9824 16.5733C55.8152 17.5615 53.1 33.6645 53.0408 34.4818L52.9816 34.4565Z" fill="#F8F8F8"/>
<path d="M55.5327 14.4955V14.4834C55.532 14.4932 55.532 14.503 55.5327 14.5128V14.4955Z" fill="#F8F8F8"/>
<path d="M50.4899 11.3715C50.4908 11.2867 50.4869 11.2019 50.4781 11.1177C50.7488 11.6355 51.101 12.8099 51.1587 13.0265L51.1483 13.0519L50.4899 11.3715Z" fill="#F8F8F8"/>
<path d="M39.5298 64.0547C39.4025 65.4389 36.7287 125.125 36.7287 125.125H39.5298L53.1504 68.9265L39.5298 64.0547Z" fill="black"/>
<path d="M38.0127 58.0491C37.659 66.2039 40.6969 72.883 45.972 72.883C53.2136 72.883 62.8006 67.6033 65.4389 64.6233C66.0974 66.8503 75.4372 94.9002 75.4372 94.9002H79.3052C79.3052 94.9002 76.8267 62.2407 72.1804 53.8643C70.6519 51.5358 60.3547 51.6221 54.0526 53.3685C49.0498 56.9881 39.7395 58.6042 38.0127 58.0491Z" fill="black"/>
<path d="M56.3716 9.56404C56.2081 9.45094 56.0174 9.4 55.827 9.41851C55.2603 9.4642 54.334 11.1767 54.334 12.5626C54.334 13.9485 54.6758 14.4697 54.5723 15.4766C54.4687 16.4835 52.2269 30.1362 52.2269 30.9687C51.7875 30.9696 51.3486 30.9374 50.9129 30.8723" stroke="black" stroke-width="2.5" stroke-linecap="round" stroke-linejoin="round"/>
<path d="M44.3193 24.4928C42.0525 24.7839 40.4204 26.5505 39.2662 29.1362" stroke="black" stroke-width="2.5" stroke-miterlimit="10" stroke-linecap="round"/>
<path d="M51.9473 33.9962C50.9115 30.341 49.4998 27.1631 47.668 25.5605" stroke="black" stroke-width="2.5" stroke-miterlimit="10" stroke-linecap="round"/>
<path d="M37.9626 33.1567C35.7002 42.8429 37.168 57.2486 38.0129 58.049C39.2914 59.2607 52.9209 55.1723 54.0528 53.3684C54.5234 52.6238 54.4272 47.5286 53.5823 41.8157" stroke="black" stroke-width="2.5" stroke-miterlimit="10" stroke-linecap="round"/>
<path d="M48.9035 32.6729C49.5058 32.9064 53.0378 34.4818 53.0378 34.4818C53.097 33.6696 55.8123 17.5598 55.9795 16.5733C55.6368 15.5886 55.4673 14.5362 55.4808 13.4765C55.4808 10.8316 56.4204 8.6842 57.579 8.6842C58.7376 8.6842 59.6758 10.8316 59.6758 13.4765C59.6922 14.5836 59.5057 15.6823 59.1283 16.7019C59.2585 18.7156 60.4274 37.8358 58.0422 40.5619C55.6095 43.3439 49.8254 41.0154 46.0847 39.1117" stroke="black" stroke-width="2.5" stroke-linecap="round" stroke-linejoin="round"/>
<path d="M51.5265 14.2344L53.7432 13.5613L54.1544 15.3326L51.9377 16.0057L51.5265 14.2344Z" fill="black"/>
<path d="M40.7695 28.7064C39.5044 28.8756 38.4656 29.3833 38.0054 30.3986C36.3349 34.1079 42.9506 40.7904 44.781 40.2929C46.6114 39.7954 49.5634 32.326 49.0114 30.9858C48.8546 30.6017 48.0156 30.0923 46.8629 29.6473" stroke="black" stroke-width="2.5" stroke-miterlimit="10" stroke-linecap="round"/>
<path d="M47.668 25.5605V24.5114" stroke="black" stroke-width="2.5" stroke-linecap="round" stroke-linejoin="round"/>
<path d="M44.3199 22.5502V27.5895C44.3199 27.8941 45.1085 28.0887 45.9194 28.1175" stroke="black" stroke-width="2.5" stroke-linecap="round" stroke-linejoin="round"/>
<path d="M43.5558 20.9307C43.7565 21.5015 44.0126 22.0447 44.3193 22.5501" stroke="black" stroke-width="2.5" stroke-linecap="round" stroke-linejoin="round"/>
<path d="M46.3211 24.3929C46.6071 24.504 46.9069 24.5611 47.2089 24.5622C49.6238 24.5622 51.58 20.9425 51.58 16.4785C51.5847 15.3128 51.4447 14.1522 51.1642 13.0315" stroke="black" stroke-width="2.5" stroke-linecap="round" stroke-linejoin="round"/>
<path d="M44.2189 19.5431C44.1331 20.4653 43.8283 20.9307 43.556 20.9307C43.2349 20.9307 42.3885 20.6768 41.844 20.6768C36.4963 20.6768 30.2165 26.9904 18.1688 26.9904C11.8757 26.9904 2.00015 25.1747 2.00015 14.6052C2.00015 8.89742 3.79651 2 13.2917 2C19.3215 2 23.546 5.38441 28.5001 5.38441C34.8628 5.38441 37.3161 2.74965 41.7123 2.74965C44.8433 2.74965 51.8896 4.82429 51.8896 10.2596C51.8896 12.3241 51.3244 12.9232 51.1498 13.0298C51.0921 12.8098 50.7399 11.6388 50.4691 11.121C50.5168 11.8797 50.3269 12.6331 49.9335 13.2464" stroke="black" stroke-width="2.5" stroke-linecap="round" stroke-linejoin="round"/>
<path d="M45.1396 16.5835C45.0156 16.7448 44.9 16.9143 44.7934 17.0911" stroke="black" stroke-width="2.5" stroke-linecap="round" stroke-linejoin="round"/>
<path d="M45.3149 17.3296C45.1313 17.1866 44.9142 17.1104 44.692 17.1113C44.4381 17.1111 44.1917 17.2099 43.9935 17.3915C43.7954 17.5731 43.6573 17.8265 43.6021 18.1099C43.5469 18.3934 43.5779 18.6898 43.69 18.9504C43.8021 19.211 43.9885 19.42 44.2185 19.543" stroke="black" stroke-width="2.5" stroke-linecap="round" stroke-linejoin="round"/>
<path d="M55.4808 13.4765C55.4715 14.4368 55.6072 15.3917 55.8818 16.2991C54.6226 16.4684 53.7111 16.5919 53.7111 16.5919L52.8425 12.5763C52.8425 12.5763 54.1269 11.9654 55.7265 11.2225C55.5597 11.9586 55.4771 12.7162 55.4808 13.4765Z" fill="black"/>
<path d="M59.6759 13.4765C59.6759 11.9823 59.38 10.6489 58.9065 9.77062C60.287 9.14958 61.4486 8.64531 61.7785 8.55054C62.7389 8.27979 64.1461 14.9149 63.2124 15.1806C62.835 15.2872 61.2118 15.536 59.411 15.7966C59.5899 15.0403 59.679 14.26 59.6759 13.4765V13.4765Z" fill="black"/>
<path d="M75.9081 94.7496V98.4522H84.4253L78.6441 96.1152V94.7496" stroke="black" stroke-width="2.5" stroke-linecap="round" stroke-linejoin="round"/>
<path d="M36.8765 124.984V128.687H44.5059L39.3284 126.35V124.984" stroke="black" stroke-width="2.5" stroke-linecap="round" stroke-linejoin="round"/>
<path d="M50.4955 126.285C77.2791 126.528 99.0099 128.801 99.0312 131.363C99.0525 133.925 77.3561 135.803 50.5726 135.56C23.7891 135.317 2.05986 133.044 2.03858 130.483C2.0173 127.922 23.712 126.042 50.4955 126.285Z" fill="#A097A9" fill-opacity="0.5"/>
</svg>
