
<svg width="170px" height="186px" viewBox="0 0 170 186" version="1.1" xmlns="http://www.w3.org/2000/svg" xmlns:xlink="http://www.w3.org/1999/xlink">
    <g id="Welcome" stroke="none" stroke-width="1" fill="none" fill-rule="evenodd">
        <g id="Home-v2" transform="translate(-287.000000, -992.000000)">
            <g id="assoc-women" transform="translate(287.000000, 992.000000)">
                <g id="drawkit-support-woman-monochrome">
                    <path d="M24.2354647,84 C24.1357831,84 24.0732378,87.1296952 24.0400106,92.1991698 C24.1905102,93.8291372 24.2960554,94.9480131 24.2960554,95.0782526 C24.2920209,95.1063706 24.2764025,95.1314569 24.2530555,95.147319 C24.7418915,96.1210181 24.9912853,97.1992508 24.9801447,98.2908274 C24.9987003,99.5505468 24.6595769,100.789287 24.0028743,101.860574 C23.9696471,127.316481 24.2354647,171 24.2354647,171 L30.2437227,171 L47,91.6051987 C40.514834,90.3521366 29.8704055,86.3956179 24.2354647,84 Z" id="Path" fill="#000000" fill-rule="nonzero"></path>
                    <path d="M23.0511313,77.8540068 C22.6963616,80.554191 24.3039752,95.7115444 24.3039752,96.2144612 C24.2997906,96.242898 24.2835911,96.2682688 24.2593756,96.2843107 C24.7663977,97.2690506 25.0250697,98.3595093 25.0135146,99.4634633 C25.0179943,100.329482 24.8620488,101.189048 24.5533276,102 L31,101.525023 L29.0619438,76 L23.3369743,76.421093 C23.1910119,77.0457476 23.0916764,77.5386859 23.0511313,77.8540068 Z" id="Path" fill="#DFDFDF" fill-rule="nonzero"></path>
                    <path d="M18.1411404,99.4929675 C18.1270152,98.3412441 18.4224767,97.2048888 19,96.1897625 C18.9363808,95.1906079 17.0384072,89.2096687 16.3258718,78.706556 C16.2877003,78.1430328 16.2608388,77.5741808 16.2452875,77 L10,77.4416263 L12.0273327,103 L18.8473139,102.520406 C18.3732056,101.574177 18.1318187,100.539326 18.1411404,99.4929675 L18.1411404,99.4929675 Z" id="Path" fill="#DFDFDF" fill-rule="nonzero"></path>
                    <path d="M55.8808838,93.2435029 C56.0096061,95.8675921 62,172 62,172 L55.8808838,172 L40,114.825095 C40,114.825095 44.1364073,91.9463792 44.418828,92.0000944 C45.7675312,92.3681433 53.2526417,93.7368874 55.8808838,93.2435029 Z" id="Path" fill="#000000" fill-rule="nonzero"></path>
                    <path d="M63.881507,50.6747326 C65.7858312,52.159534 69.0082389,55.0438479 70.5868738,57.1276096 C72.1635929,55.945196 90.0956595,40.8762064 90.4462544,40.0485169 C91.1455283,39.6356413 92.6647729,41.9403787 90.4462544,43.8303021 C91.9635831,43.7721506 100.900879,43.5356679 100.900879,43.8303021 C100.900879,44.1249364 102.828193,44.9545643 89.6856742,47.0809705 C87.9346155,49.2131918 72.1635929,68 69.5944795,68 C67.8395892,68 62.410158,63.2102556 59,59.5874177" id="Path" stroke="#000000" stroke-width="2.5" stroke-linecap="round" stroke-linejoin="round"></path>
                    <path d="M57.1088751,56 C59.990966,54.2614877 63.0572904,51.2251841 63.9763407,48.8489464 C64.520571,47.4394516 55.5503014,40.9281544 50,40" id="Path" stroke="#000000" stroke-width="2.5" stroke-linecap="round" stroke-linejoin="round"></path>
                    <path d="M24,84.8046719 C28.5740821,88.3365759 54.8562432,95.8665637 57.0838806,93.5731965 C59.3115179,91.2798293 63.2994839,41.9437915 43.7774598,36" id="Path" stroke="#000000" stroke-width="2.5" stroke-linecap="round" stroke-linejoin="round"></path>
                    <path d="M36,34 C32.1172264,34.7443683 29.1900325,36.9382958 27,40" id="Path" stroke="#000000" stroke-width="2.5" stroke-linecap="round" stroke-linejoin="round"></path>
                    <path d="M39,38 C41.5,38 44,37.6666667 44,37.0196078 L44,29" id="Path" stroke="#000000" stroke-width="2.5" stroke-linecap="round" stroke-linejoin="round"></path>
                    <path d="M36,30 L36,35" id="Path" stroke="#000000" stroke-width="2.5" stroke-linecap="round" stroke-linejoin="round"></path>
                    <ellipse id="Oval" stroke="#000000" stroke-width="2.5" cx="40" cy="17.5" rx="8" ry="13.5"></ellipse>
                    <path d="M39.0346154,0.590163934 C34.9840385,0.590163934 29.5956923,2.55737705 25.6961538,2.55737705 C22.1751923,2.55737705 15.7433077,0 12.3576923,0 C10.2,0 0,1.00721311 0,9.24590164 C0,12.9639344 3.92307692,16.5245902 4.70769231,17.5081967 C5.49230769,18.4918033 6.93011538,24 10.5923077,24 C15.708,24 19.2407308,20.2622951 23.9307692,20.2622951 C27.1614231,20.2622951 28.0029231,21.0491803 29.6192308,21.0491803 C30.7961538,21.0491803 32.5615385,20.4944262 32.5615385,20.4590164 C32.5615385,19.8570492 32.4418846,14.7540984 33.15,13.9259016 C34.1307692,12.7455738 46.6159615,14.5022951 46.6159615,10.3416393 C47.4888462,11.1285246 48.3205385,14.4727869 48.3205385,15.1554098 C48.8854615,14.557377 51,12 51,9.24590164 C51,6.75540984 49.2346154,0.590163934 39.0346154,0.590163934 Z" id="Path" fill="#000000" fill-rule="nonzero"></path>
                    <path d="M24.2989366,96.1751026 C24.2947675,96.2032585 24.278628,96.2283786 24.2545022,96.244262 C24.7596461,97.2192728 25.0173597,98.2989579 25.0058475,99.3920049 C25.0058475,101.367989 24.2221862,103.085119 23.0608326,104 L33,103.272838 L31.0691233,78 L23.0083192,78.5927953 C22.8790555,82.3847089 24.2989366,95.7067943 24.2989366,96.1751026 Z" id="Path" fill="#F2F2F2" fill-rule="nonzero"></path>
                    <path d="M18.7007795,98.6074521 C18.6873808,97.4490512 18.9676453,96.3061076 19.5154639,95.2850959 C19.4551169,94.2801484 17.6889615,88.3770872 16.9989942,78 L13,78.2934447 L14.9230576,104 L21,103.545764 C19.6462157,102.715677 18.7007795,100.816327 18.7007795,98.6074521 Z" id="Path" fill="#F2F2F2" fill-rule="nonzero"></path>
                    <path d="M18.6737364,57 C17.6253508,61.0374452 15.5365219,71.2324552 16.092484,80.1902167 C16.7596385,90.9567373 18.5367315,97.0835757 18.5962988,98.111885 C18.0555576,99.1524696 17.7789139,100.317324 17.7921394,101.497931 C17.7921394,104.535745 19.4898093,107 21.5845949,107 C23.6793806,107 25.379036,104.54189 25.379036,101.497931 C25.3903535,100.364812 25.1369994,99.2455455 24.6404007,98.2347904 C24.6641184,98.2183247 24.6799849,98.1922837 24.6840834,98.1630956 C24.6840834,97.6468925 23.1095194,82.0891065 23.4569957,79.3175878 C23.7508614,76.9578024 27.0965617,64.9970503 28,60.2897702" id="Path" stroke="#000000" stroke-width="2.5" stroke-linecap="round" stroke-linejoin="round"></path>
                    <path d="M29,43.1880187 C28.5389621,41.6434744 27.8245609,40.5163172 26.7861872,40.1773226 C21.1187432,38.3255644 14.4046185,51.5357618 15.04218,53.8112633 C15.6444368,55.9617605 20.1738231,58.2372621 24.0864154,59" id="Path" stroke="#000000" stroke-width="2.5" stroke-linecap="round" stroke-linejoin="round"></path>
                    <circle id="Oval" fill="#FFFFFF" fill-rule="nonzero" cx="80" cy="14" r="2"></circle>
                    <circle id="Oval" fill="#FFFFFF" fill-rule="nonzero" cx="86" cy="14" r="2"></circle>
                    <circle id="Oval" fill="#FFFFFF" fill-rule="nonzero" cx="94" cy="14" r="2"></circle>
                    <path d="M28.9952045,79.783517 C29.066629,80.406601 28.3318171,80.9491231 27.3515008,80.9970867 L27.3515008,80.9970867 C26.3719697,81.0414083 25.5199646,80.5748019 25.4444572,79.9526812 L25.0045928,76.2163573 C24.9347937,75.5936147 25.6687539,75.0517215 26.6482965,75.0027875 L26.6482965,75.0027875 C27.6272899,74.9594951 28.47831,75.4255621 28.5553401,76.047193 L28.7897415,78.0275182" id="Path" stroke="#000000" stroke-width="2.5" stroke-linecap="round" stroke-linejoin="round"></path>
                    <polyline id="Path" stroke="#000000" stroke-width="2.5" stroke-linecap="round" stroke-linejoin="round" points="30 170.40891 30 178.260805 19 184 25.3989382 177.009293 25.3989382 170"></polyline>
                    <polyline id="Path" stroke="#000000" stroke-width="2.5" stroke-linecap="round" stroke-linejoin="round" points="56 170.425 56 179 70 179 60.6666667 174.06875 60.6666667 170"></polyline>
                </g>
                <g id="drawkit-support-woman-monochrome" transform="translate(122.000000, 92.000000) scale(-1, 1) translate(-122.000000, -92.000000) translate(74.000000, 0.000000)">
                    <path d="M24.2354647,84 C24.1357831,84 24.0732378,87.1296952 24.0400106,92.1991698 C24.1905102,93.8291372 24.2960554,94.9480131 24.2960554,95.0782526 C24.2920209,95.1063706 24.2764025,95.1314569 24.2530555,95.147319 C24.7418915,96.1210181 24.9912853,97.1992508 24.9801447,98.2908274 C24.9987003,99.5505468 24.6595769,100.789287 24.0028743,101.860574 C23.9696471,127.316481 24.2354647,171 24.2354647,171 L30.2437227,171 L47,91.6051987 C40.514834,90.3521366 29.8704055,86.3956179 24.2354647,84 Z" id="Path" fill="#000000" fill-rule="nonzero"></path>
                    <path d="M23.0511313,77.8540068 C22.6963616,80.554191 24.3039752,95.7115444 24.3039752,96.2144612 C24.2997906,96.242898 24.2835911,96.2682688 24.2593756,96.2843107 C24.7663977,97.2690506 25.0250697,98.3595093 25.0135146,99.4634633 C25.0179943,100.329482 24.8620488,101.189048 24.5533276,102 L31,101.525023 L29.0619438,76 L23.3369743,76.421093 C23.1910119,77.0457476 23.0916764,77.5386859 23.0511313,77.8540068 Z" id="Path" fill="#DFDFDF" fill-rule="nonzero"></path>
                    <path d="M18.1411404,99.4929675 C18.1270152,98.3412441 18.4224767,97.2048888 19,96.1897625 C18.9363808,95.1906079 17.0384072,89.2096687 16.3258718,78.706556 C16.2877003,78.1430328 16.2608388,77.5741808 16.2452875,77 L10,77.4416263 L12.0273327,103 L18.8473139,102.520406 C18.3732056,101.574177 18.1318187,100.539326 18.1411404,99.4929675 L18.1411404,99.4929675 Z" id="Path" fill="#DFDFDF" fill-rule="nonzero"></path>
                    <path d="M55.8808838,93.2435029 C56.0096061,95.8675921 62,172 62,172 L55.8808838,172 L40,114.825095 C40,114.825095 44.1364073,91.9463792 44.418828,92.0000944 C45.7675312,92.3681433 53.2526417,93.7368874 55.8808838,93.2435029 Z" id="Path" fill="#000000" fill-rule="nonzero"></path>
                    <path d="M50.4844862,63.6264503 C52.4089655,65.1169383 55.6659046,68.0117469 57.2622244,70.102223 C58.1040263,69.4759637 60.1343263,67.7761442 65.1433048,63.536799 C70.1522834,59.2974538 87.8544358,56.5134937 87.8547732,56.808819 C87.8551106,57.1041442 89.8020523,57.9379488 76.5346049,60.054129 C74.7690187,62.1893241 58.8666747,81.0019373 56.2726642,80.9989635 C54.5007673,80.9969321 49.0132343,76.1896696 45.5658797,72.5543878" id="Path" stroke="#000000" stroke-width="2.5" stroke-linecap="round" stroke-linejoin="round" transform="translate(66.760534, 68.893179) scale(1, -1) rotate(-73.000000) translate(-66.760534, -68.893179) "></path>
                    <path d="M58.1088751,56 C60.990966,54.2614877 64.0572904,51.2251841 64.9763407,48.8489464 C65.520571,47.4394516 56.5503014,40.9281544 51,40" id="Path" stroke="#000000" stroke-width="2.5" stroke-linecap="round" stroke-linejoin="round"></path>
                    <path d="M25,84.8046719 C29.5740821,88.3365759 55.8562432,95.8665637 58.0838806,93.5731965 C60.3115179,91.2798293 64.2994839,41.9437915 44.7774598,36" id="Path" stroke="#000000" stroke-width="2.5" stroke-linecap="round" stroke-linejoin="round"></path>
                    <path d="M36,34 C32.1172264,34.7443683 29.1900325,36.9382958 27,40" id="Path" stroke="#000000" stroke-width="2.5" stroke-linecap="round" stroke-linejoin="round"></path>
                    <path d="M40,38 C42.5,38 45,37.6666667 45,37.0196078 L45,29" id="Path" stroke="#000000" stroke-width="2.5" stroke-linecap="round" stroke-linejoin="round"></path>
                    <path d="M36,30 L36,35" id="Path" stroke="#000000" stroke-width="2.5" stroke-linecap="round" stroke-linejoin="round"></path>
                    <ellipse id="Oval" stroke="#000000" stroke-width="2.5" cx="40" cy="17.5" rx="8" ry="13.5"></ellipse>
                    <path d="M39.0346154,0.590163934 C34.9840385,0.590163934 29.5956923,2.55737705 25.6961538,2.55737705 C22.1751923,2.55737705 15.7433077,0 12.3576923,0 C10.2,0 0,1.00721311 0,9.24590164 C0,12.9639344 3.92307692,16.5245902 4.70769231,17.5081967 C5.49230769,18.4918033 6.93011538,24 10.5923077,24 C15.708,24 19.2407308,20.2622951 23.9307692,20.2622951 C27.1614231,20.2622951 28.0029231,21.0491803 29.6192308,21.0491803 C30.7961538,21.0491803 32.5615385,20.4944262 32.5615385,20.4590164 C32.5615385,19.8570492 32.4418846,14.7540984 33.15,13.9259016 C34.1307692,12.7455738 46.6159615,14.5022951 46.6159615,10.3416393 C47.4888462,11.1285246 48.3205385,14.4727869 48.3205385,15.1554098 C48.8854615,14.557377 51,12 51,9.24590164 C51,6.75540984 49.2346154,0.590163934 39.0346154,0.590163934 Z" id="Path" fill="#000000" fill-rule="nonzero"></path>
                    <path d="M25.2989366,96.1751026 C25.2947675,96.2032585 25.278628,96.2283786 25.2545022,96.244262 C25.7596461,97.2192728 26.0173597,98.2989579 26.0058475,99.3920049 C26.0058475,101.367989 25.2221862,103.085119 24.0608326,104 L34,103.272838 L32.0691233,78 L24.0083192,78.5927953 C23.8790555,82.3847089 25.2989366,95.7067943 25.2989366,96.1751026 Z" id="Path" fill="#F2F2F2" fill-rule="nonzero"></path>
                    <path d="M18.7007795,98.6074521 C18.6873808,97.4490512 18.9676453,96.3061076 19.5154639,95.2850959 C19.4551169,94.2801484 17.6889615,88.3770872 16.9989942,78 L13,78.2934447 L14.9230576,104 L21,103.545764 C19.6462157,102.715677 18.7007795,100.816327 18.7007795,98.6074521 Z" id="Path" fill="#F2F2F2" fill-rule="nonzero"></path>
                    <path d="M17.6737364,57 C16.6253508,61.0374452 14.5365219,71.2324552 15.092484,80.1902167 C15.7596385,90.9567373 17.5367315,97.0835757 17.5962988,98.111885 C17.0555576,99.1524696 16.7789139,100.317324 16.7921394,101.497931 C16.7921394,104.535745 18.4898093,107 20.5845949,107 C22.6793806,107 24.379036,104.54189 24.379036,101.497931 C24.3903535,100.364812 24.1369994,99.2455455 23.6404007,98.2347904 C23.6641184,98.2183247 23.6799849,98.1922837 23.6840834,98.1630956 C23.6840834,97.6468925 22.1095194,82.0891065 22.4569957,79.3175878 C22.7508614,76.9578024 26.0965617,64.9970503 27,60.2897702" id="Path" stroke="#000000" stroke-width="2.5" stroke-linecap="round" stroke-linejoin="round"></path>
                    <path d="M29,43.1880187 C28.5389621,41.6434744 27.8245609,40.5163172 26.7861872,40.1773226 C21.1187432,38.3255644 14.4046185,51.5357618 15.04218,53.8112633 C15.6444368,55.9617605 20.1738231,58.2372621 24.0864154,59" id="Path" stroke="#000000" stroke-width="2.5" stroke-linecap="round" stroke-linejoin="round"></path>
                    <circle id="Oval" fill="#FFFFFF" fill-rule="nonzero" cx="81" cy="14" r="2"></circle>
                    <circle id="Oval" fill="#FFFFFF" fill-rule="nonzero" cx="86" cy="14" r="2"></circle>
                    <circle id="Oval" fill="#FFFFFF" fill-rule="nonzero" cx="94" cy="14" r="2"></circle>
                    <path d="M28.9952045,79.783517 C29.066629,80.406601 28.3318171,80.9491231 27.3515008,80.9970867 L27.3515008,80.9970867 C26.3719697,81.0414083 25.5199646,80.5748019 25.4444572,79.9526812 L25.0045928,76.2163573 C24.9347937,75.5936147 25.6687539,75.0517215 26.6482965,75.0027875 L26.6482965,75.0027875 C27.6272899,74.9594951 28.47831,75.4255621 28.5553401,76.047193 L28.7897415,78.0275182" id="Path" stroke="#000000" stroke-width="2.5" stroke-linecap="round" stroke-linejoin="round"></path>
                    <polyline id="Path" stroke="#000000" stroke-width="2.5" stroke-linecap="round" stroke-linejoin="round" points="30 170.40891 30 178.260805 19 184 25.3989382 177.009293 25.3989382 170"></polyline>
                    <polyline id="Path" stroke="#000000" stroke-width="2.5" stroke-linecap="round" stroke-linejoin="round" points="56 170.425 56 179 70 179 60.6666667 174.06875 60.6666667 170"></polyline>
                </g>
            </g>
        </g>
    </g>
</svg>
