
<svg width="480px" height="448px" viewBox="0 0 480 448" version="1.1" xmlns="http://www.w3.org/2000/svg" xmlns:xlink="http://www.w3.org/1999/xlink">
    <g id="Welcome" stroke="none" stroke-width="1" fill="none" fill-rule="evenodd">
        <g id="Home-v2" transform="translate(-712.000000, -220.000000)">
            <g id="drawkit-server-woman-monochrome" transform="translate(711.922156, 222.000000)">
                <path d="M338.077844,415 L282.077844,322" id="Path" stroke="#000000" stroke-width="4" stroke-linecap="round" stroke-linejoin="round"></path>
                <path d="M362.077844,415 L307.077844,322" id="Path" stroke="#000000" stroke-width="4" stroke-linecap="round" stroke-linejoin="round"></path>
                <path d="M183.077844,408 L234.077844,322" id="Path" stroke="#000000" stroke-width="4" stroke-linecap="round" stroke-linejoin="round"></path>
                <polyline id="Path" stroke="#000000" stroke-width="2.5" stroke-linecap="round" stroke-linejoin="round" points="318.016278 113 397.077844 113 339.676372 321 194.077844 321 194.077844 313.590172 302.058082 313.590172 304.370864 265.119403"></polyline>
                <path d="M142.456801,250 C130.542592,250 71.0778443,389.07199 71.0778443,394.152936 C71.0778443,399.233883 83.9841659,405 85.8886677,405 C88.8561473,402.23262 145.778606,319.576038 151.704707,313.80992 C157.630808,308.043803 142.456801,250 142.456801,250 Z" id="Path" fill="#000000" fill-rule="nonzero"></path>
                <path d="M176.077844,180.380291 C172.446223,177.459889 167.901533,175.910532 163.240965,176.003994 C153.764015,176.003994 146.077844,181.824291 146.077844,189" id="Path" stroke="#000000" stroke-width="2.5" stroke-linecap="round" stroke-linejoin="round"></path>
                <path d="M231.077844,153 C224.954226,158.549655 216.89493,167.990345 213.077844,179" id="Path" stroke="#000000" stroke-width="2.5" stroke-linecap="round" stroke-linejoin="round"></path>
                <path d="M263.077844,122.455191 C261.035424,121.555738 258.839888,121.061644 256.611614,121 C244.524874,121 224.077844,143.182786 224.077844,145.968944 C224.077844,148.400177 235.107435,157.974268 245.414641,161" id="Path" stroke="#000000" stroke-width="2.5" stroke-linecap="round" stroke-linejoin="round"></path>
                <path d="M242.077844,182 C244.338792,149.370986 254.437094,118.292359 282.077844,110" id="Path" stroke="#000000" stroke-width="2.5" stroke-linecap="round" stroke-linejoin="round"></path>
                <path d="M343.721209,155 C356.028163,201.298736 347.645938,265.593666 342.069627,269.762326 C333.305584,276.334618 256.826654,276.928874 251.845268,270.365451 C249.749712,267.598171 243.054587,238.311116 242.077844,205.334353" id="Path" stroke="#000000" stroke-width="2.5" stroke-linecap="round" stroke-linejoin="round"></path>
                <path d="M309.077844,110 C319.855421,113.40756 328.001895,121.352506 334.077844,132" id="Path" stroke="#000000" stroke-width="2.5" stroke-linecap="round" stroke-linejoin="round"></path>
                <path d="M296.077844,120 C303.077844,120 310.077844,118.543745 310.077844,115.560198 L310.077844,86" id="Path" stroke="#000000" stroke-width="2.5" stroke-linecap="round" stroke-linejoin="round"></path>
                <path d="M281.577844,99 L281.577844,110" id="Path" stroke="#000000" stroke-width="2.5" stroke-linecap="round" stroke-linejoin="round"></path>
                <path d="M293.077844,99.046374 C290.208708,99.9881161 287.158614,100.236899 284.175618,99.7724899 C269.432685,97.4081857 260.354003,77.6348101 263.812549,55.6565216 C263.953714,54.7710144 264.112525,53.8855072 264.288981,53" id="Path" stroke="#000000" stroke-width="2.5" stroke-linecap="round" stroke-linejoin="round"></path>
                <path d="M315.077844,73 C313.658347,77.5830262 311.64061,81.9547888 309.077844,86" id="Path" stroke="#000000" stroke-width="2.5" stroke-linecap="round" stroke-linejoin="round"></path>
                <path d="M322.077844,18.330122 C326.011587,11.5019512 335.992462,0 355.536861,0 C368.856533,0 382.176205,7.12195122 399.04779,7.12195122 C412.367462,7.12195122 424.799156,1.7804878 440.782762,1.7804878 C469.198063,1.7804878 478.077844,20.4756098 478.077844,32.0487805 C478.077844,61.4268293 454.102434,73 436.342872,73 C407.927571,73 404.375659,53.4146341 370.632489,53.4146341 C337.777298,53.4146341 342.217189,26.7073171 335.113363,26.7073171 C333.425499,26.645313 331.737783,26.8343155 330.105167,27.2681707" id="Path" stroke="#000000" stroke-width="2.5"></path>
                <path d="M313.780161,81 C328.244838,81 335.077844,66.098875 335.077844,47.275 C335.077844,16.2125 307.657077,10 296.032091,10 C264.64463,10 258.077844,33.882625 258.077844,40.7785 C258.077844,47.674375 262.434995,52.786375 264.662378,52.955 C266.046728,44.710125 272.649009,33.332375 272.959601,33.075 C275.893041,35.9356412 279.328452,38.2311788 283.093748,39.846625" id="Path" stroke="#000000" stroke-width="2.5" stroke-linecap="round" stroke-linejoin="round"></path>
                <path d="M312.077844,58.6684583 C313.089377,58.2238426 314.188784,57.9958134 315.30043,58.0000582 C319.595777,58.0000582 323.077844,61.3579093 323.077844,65.5000286 C323.077844,69.6421478 319.595777,72.9999989 315.30043,72.9999989 C314.500565,73.0004094 313.705301,72.8833263 312.942001,72.6527781" id="Path" stroke="#000000" stroke-width="2.5" stroke-linecap="round" stroke-linejoin="round"></path>
                <path d="M242.077844,205.484283 C251.186068,209.153242 259.829494,212 270.591321,212 C278.975534,212 295.028889,206.828094 307.077844,194" id="Path" stroke="#000000" stroke-width="2.5" stroke-linecap="round" stroke-linejoin="round"></path>
                <path d="M282.077844,170 C275.646999,174.702696 270.271884,180.685004 266.294809,187.565945 C258.942464,186.201772 229.034014,178.769685 202.485363,178.769685 C199.990021,178.769685 193.511045,176.732283 190.899849,176.732283 C175.3307,176.732283 172.077844,185.094488 172.077844,187.565945 C172.077844,190.037402 172.61256,190.108268 173.093805,190.108268 C207.467134,190.108268 225.308825,199.382874 241.662224,206" id="Path" stroke="#000000" stroke-width="2.5" stroke-linecap="round" stroke-linejoin="round"></path>
                <path d="M319.446762,132.626483 C328.172523,130.141731 336.227071,130.177101 341.234669,135.040494 C357.785352,151.12506 315.931729,195.647211 309.219605,194.992863 C302.507481,194.338516 278.308509,168.82781 278.078884,161.072909 C277.990567,158.42015 283.5369,152.654818 291.503131,146.924857" id="Path" stroke="#000000" stroke-width="2.5" stroke-linecap="round" stroke-linejoin="round"></path>
                <rect id="Rectangle" fill="#000000" fill-rule="nonzero" x="0.0778443114" y="192" width="376" height="12"></rect>
                <path d="M355.577844,385 L355.577844,201" id="Path" stroke="#000000" stroke-width="4" stroke-linecap="round" stroke-linejoin="round"></path>
                <path d="M43.5778443,385 L43.5778443,201" id="Path" stroke="#000000" stroke-width="4" stroke-linecap="round" stroke-linejoin="round"></path>
                <path d="M329.577844,422 L329.577844,201" id="Path" stroke="#000000" stroke-width="4" stroke-linecap="round" stroke-linejoin="round"></path>
                <path d="M15.5778443,422 L15.5778443,201" id="Path" stroke="#000000" stroke-width="4" stroke-linecap="round" stroke-linejoin="round"></path>
                <path d="M202.077844,419 L260.077844,322" id="Path" stroke="#000000" stroke-width="4" stroke-linecap="round" stroke-linejoin="round"></path>
                <rect id="Rectangle" fill="#000000" fill-rule="nonzero" x="138.077844" y="190" width="62" height="2"></rect>
                <polyline id="Path" stroke="#000000" stroke-width="2.5" stroke-linecap="round" stroke-linejoin="round" points="112.7801 143 69.0778443 143 69.0778443 44 205.077844 44 205.077844 143 145.259828 143"></polyline>
                <polygon id="Path" stroke="#000000" stroke-width="2.5" stroke-linecap="round" stroke-linejoin="round" points="117.803508 125 99.0778443 192 131.900853 192 150.077844 125"></polygon>
                <path d="M270.077844,29 C270.509683,30.4914696 271.191095,31.8542952 272.077844,33" id="Path" stroke="#000000" stroke-width="2.5" stroke-linecap="round" stroke-linejoin="round"></path>
                <polyline id="Path" stroke="#000000" stroke-width="2.5" stroke-linecap="round" stroke-linejoin="round" points="184.147128 413 188.077844 434.896682 142.077844 444 173.550131 423.330326 172.045127 414.651048"></polyline>
                <polyline id="Path" stroke="#000000" stroke-width="2.5" stroke-linecap="round" stroke-linejoin="round" points="86.0778443 402.077029 74.9967449 421 34.0778443 396.194473 71.361862 402.463212 75.7907727 395"></polyline>
                <path d="M341.991975,277.633305 C341.991975,273.804639 342.658797,269.370509 340.27602,268.382179 C283.711742,245.027317 200.901356,242 188.142831,242 C175.384306,242 138.077844,243.299966 138.077844,253.993519 C138.077844,292.618525 159.567291,411.529765 163.932751,415.972798 C166.004345,418.065209 184.070772,416.6673 186.320184,414.405716 C186.169038,404.611455 191.850361,306.232549 186.666932,294.319165 C234.206886,311.770758 288.192786,320.033554 302.418319,320.033554 C343.645693,319.989034 341.991975,282.17428 341.991975,277.633305 Z" id="Path" fill="#000000" fill-rule="nonzero"></path>
            </g>
        </g>
    </g>
</svg>
