
<svg width="145px" height="157px" viewBox="0 0 145 157" version="1.1" xmlns="http://www.w3.org/2000/svg" xmlns:xlink="http://www.w3.org/1999/xlink">
    <g id="Welcome" stroke="none" stroke-width="1" fill="none" fill-rule="evenodd">
        <g id="Assocs" transform="translate(-471.000000, -153.000000)">
            <g id="Group">
                <g id="drawkit-developer-woman-monochrome" transform="translate(472.000000, 155.000000)">
                    <g id="Vector">
                        <g id="Layer_3" transform="translate(0.937156, 0.000000)" stroke="#000000" stroke-linecap="round" stroke-width="2.5">
                            <path d="M39.7514976,108.190386 C37.0179837,109.888936 31.6632018,111.337312 20.7324479,111.689531 C9.38242306,111.689531 0.066026904,100.826712 0.066026904,86.6721294 C-0.264107616,55.8283066 31.8909946,49.9689679 49.7842856,15.5371231 C58.0046352,-0.296258703 67.9746977,0.0987529009 70.48372,0.230423435 C75.9639531,0.526682138 83.7551277,4.83889214 83.7551277,12.3770302 C83.7916141,15.0535432 82.6356476,17.6083377 80.5990417,19.3522768" id="Path"></path>
                            <path d="M74.4651423,35.0704469 C73.2832608,37.8454034 70.8336626,42.5032485 70.0314357,47.8457805" id="Path"></path>
                        </g>
                        <path d="M127.180597,116.166329 C133.948354,116.166329 143.885403,156.589183 148.177152,168.472449 C147.285789,170.941271 142.201717,174.825552 139.428587,174.825552 C134.047395,165.839038 121.997485,146.582223 119.884624,143.619636 C118.167924,141.216648 120.412839,116.166329 127.180597,116.166329 Z" id="Path" fill="#000000" fill-rule="nonzero"></path>
                        <path d="M124.638561,36.3410675 C125.794032,35.6168796 125.265816,36.1106441 126.157179,34.7610211" id="Path" fill="#000000" fill-rule="nonzero" opacity="0.27"></path>
                        <path d="M81.9290579,108.77632 C81.8110645,109.681741 81.6312742,110.578084 81.3909386,111.459107 C70.3974591,116.100494 41.7087693,113.302495 40.9164464,110.076567 C40.2099586,107.232483 36.7105326,50.1302643 55.5678164,43.0365142" id="Path" stroke="#000000" stroke-width="2.5" stroke-linecap="round"></path>
                        <path d="M65.8482054,43.7804527 C79.8954292,50.8116593 83.0152004,81.3394727 82.6058336,99.3125007" id="Path" stroke="#000000" stroke-width="2.5" stroke-linecap="round"></path>
                        <path d="M61.2527329,45.265038 C58.3409464,44.833817 55.1023268,43.7969115 55.4423653,43.2537706 C58.6611769,37.822361 59.3544594,32.1605281 59.8925786,28.9773929" id="Path" stroke="#000000" stroke-width="2.5" stroke-linecap="round" stroke-linejoin="round"></path>
                        <path d="M68.0435999,37.990241 C67.4460565,39.4254498 66.3665166,42.0424017 65.8482054,43.790328" id="Path" stroke="#000000" stroke-width="2.5" stroke-linecap="round" stroke-linejoin="round"></path>
                        <path d="M49.968735,79.0023207 C49.7772569,80.3716943 49.9852417,82.0669524 49.968735,83.1005661 C49.9027081,88.6965638 50.1668157,94.9509142 53.5341878,99.6581358 C54.8547259,101.501523 57.0336137,103.279076 59.1464746,103.246158 C62.4808333,104.562863 68.0601067,106.077074 68.0601067,106.077074 L76.5115504,107.920462 C76.5115504,107.920462 90.7733616,110.45512 97.8052269,110.257614 C100.149182,110.191779 102.526151,109.928438 104.870106,109.994273 C106.223657,110.02719 108.369532,110.45512 109.657056,109.994273 C110.020204,109.862602 109.921164,109.039661 109.855137,108.743403 C109.558016,107.624203 108.468572,106.83418 107.511182,106.340415 C105.233254,105.221216 103.945729,105.912486 101.601774,105.978321 C99.6869937,106.011239 97.4090655,105.02371 94.0747068,103.739922 C90.1461061,102.192794 85.6562766,100.349406 81.6616489,98.9997831 C77.1057925,97.4526544 72.4508958,95.8067727 67.9940798,93.9963028 C67.0975295,93.6507684 66.1828085,93.3540722 65.2539632,93.1075267 C65.6787641,90.7152686 65.9215548,88.2944088 65.9802592,85.8656473 C66.0792995,83.2322366 66.112313,80.4671554 65.749165,77.8666624" id="Path" stroke="#000000" stroke-width="2.5" stroke-linecap="round"></path>
                        <path d="M67.9709703,69.3837882 C68.4859802,72.9257255 68.5421031,75.7632256 68.2185712,76.6651687 C66.1717372,77.8502035 54.8481232,81.8332372 46.5947602,77.7843683 C44.0527244,71.069171 46.2646257,50.1006384 54.4849752,48.7510154 C56.6275482,48.4218391 58.4862056,49.1098176 60.097262,50.4363982" id="Path" stroke="#000000" stroke-width="2.5" stroke-linecap="round"></path>
                        <path d="M64.6068996,36.8479991 C65.1862785,37.2119293 65.8126949,37.4954349 66.4688583,37.6906905 C69.4697811,38.6058007 72.6984967,37.5261023 75.4022984,35.0572798" id="Path" stroke="#000000" stroke-width="2.5" stroke-linecap="round" stroke-linejoin="round"></path>
                        <path d="M64.7026386,23.0719694 C62.4758189,23.5892936 60.2035671,23.8880737 57.9183742,23.9640373 C57.5275422,24.4637273 57.3076954,25.0752043 57.2911186,25.7086719 C57.3193209,27.1685787 58.3882772,28.4005396 59.8331544,28.6383413 L59.8925786,28.9675176" id="Path" stroke="#000000" stroke-width="2.5" stroke-linecap="round" stroke-linejoin="round"></path>
                        <path d="M75.4022984,35.0704469 C77.7528562,32.9373842 79.6940471,29.7674161 80.763683,25.9720129 C81.8861404,21.8243911 81.7871,17.7426045 80.6316292,14.4837588 C80.0142776,15.0696927 79.377118,15.635876 78.7201503,16.1757252" id="Path" stroke="#000000" stroke-width="2.5" stroke-linecap="round" stroke-linejoin="round"></path>
                        <path d="M89.380194,110.702002 C95.3226153,110.702002 116.781359,110.537414 120.70996,110.537414" id="Path" fill="#FFC88E" fill-rule="nonzero"></path>
                        <path d="M85.7157008,110.998261 C91.9882567,110.998261 113.645081,110.471578 117.243547,110.471578 C120.016677,106.192286 132.957951,83.6437071 133.8163,81.9319901" id="Path" stroke="#000000" stroke-width="5.79" stroke-linecap="round" stroke-linejoin="round"></path>
                        <path d="M127.180597,117.088023 C127.279637,112.479554 110.277709,111.195766 99.5483372,111.195766 C94.7448799,111.195766 87.5083312,111.44594 80.7306695,111.722449 C69.8527371,115.777901 44.3960643,113.493417 41.2366769,110.540705 C39.764277,112.206338 38.8795164,115.343388 38.8795164,121.235645 C38.8795164,134.995216 53.966664,146.48347 71.8269415,146.48347 C89.6872191,146.48347 97.643461,146.022623 99.2611202,145.627611 C99.7563219,150.170245 89.1920173,181.376161 88.0695599,189.408064 C88.8618828,191.54771 94.1110216,194.214038 96.3229229,194.214038 C98.5348242,194.214038 127.939906,146.549305 127.180597,117.088023 Z" id="Path" fill="#000000" fill-rule="nonzero"></path>
                    </g>
                </g>
            </g>
        </g>
    </g>
</svg>
