<svg xmlns="http://www.w3.org/2000/svg" width="260.965" height="473.72" viewBox="0 0 260.965 473.72">
  <g id="Vector" transform="translate(-97.75 -121.164)">
    <path id="Path_10" data-name="Path 10" d="M542.68,887.728V662.54H470.57V887.728m25.879-213.3V664.1l6.019-.246v4.755l12.5,5.823Z" transform="translate(-185.216 -294.099)" fill="none" stroke="#000" stroke-linecap="round" stroke-miterlimit="10" stroke-width="2.5"/>
    <path id="Path_11" data-name="Path 11" d="M356.9,961.875V811.29H284.79V961.875m27.75-133.3V818.241l6.018-.246v4.755l12.478,5.823Z" transform="translate(-92.61 -368.246)" fill="none" stroke="#000" stroke-linecap="round" stroke-miterlimit="10" stroke-width="2.5"/>
    <path id="Path_12" data-name="Path 12" d="M99,1026.342V940.61h72.11v85.732" transform="translate(0 -432.708)" fill="none" stroke="#000" stroke-linecap="round" stroke-miterlimit="10" stroke-width="2.5"/>
    <path id="Path_13" data-name="Path 13" d="M432.438,475.9c5.015,0,45.253,5.682,62.857,14.725-2.422,11.791-18.251,81.248-18.251,81.248h-9.855s-3.711-58.474-4.514-57.987c-5.331,2.744-26.491,9.665-49.105,10" transform="translate(-156.803 -201.065)"/>
    <path id="Path_14" data-name="Path 14" d="M463.621,280.906c3.435,2.452,8.8,7.147,9.965,9.118,13.632-16.952,36.08-34.054,37.916-36.03s2.407-12.985,2.407-15.392,3.32-8.822,6.52-8.822v28.863s-37.565,52.686-43.749,52.686c-3.19,0-16.39-5.517-23.03-9.093" transform="translate(-176.782 -78.382)" fill="none" stroke="#000" stroke-linecap="round" stroke-linejoin="round" stroke-width="2.5"/>
    <path id="Path_15" data-name="Path 15" d="M428.77,304.86c10.031,1.444,23.2,7.989,23.221,10.592.03,3.009-6.49,14.479-11.611,19.2" transform="translate(-164.38 -115.807)" fill="none" stroke="#000" stroke-linecap="round" stroke-miterlimit="10" stroke-width="2.5"/>
    <path id="Path_16" data-name="Path 16" d="M404.284,188.074a6.759,6.759,0,0,0,.963-3.511c0-4.514-3.792-5.106-5.517-6.52-1.836-1.5-1.048-6.054-6.018-6.054-4.454,0-6.645,4.679-9.494,6.48-3.445,2.182-10.206.426-14.66,5.015-2.161,2.227-2.668,7.709-4.012,9.715-1.836,2.718-5.015,3.511-5.015,7.658a11.807,11.807,0,0,0,4.118,8.17" transform="translate(-130.364 -49.576)" fill="none" stroke="#000" stroke-linecap="round" stroke-miterlimit="10" stroke-width="2.5"/>
    <path id="Path_17" data-name="Path 17" d="M372.47,290.59c26.967,13.692,24.806,88.912,19.585,92.939-5.748,4.429-52.922,6.585-57.235,0-2.006-3.069-3.441-23.883-.913-45.258" transform="translate(-116.42 -108.694)" fill="none" stroke="#000" stroke-linecap="round" stroke-miterlimit="10" stroke-width="2.5"/>
    <path id="Path_18" data-name="Path 18" d="M360.66,296.511c3.13-4.223,6.9-7.277,11.4-8.631" transform="translate(-130.429 -107.343)" fill="none" stroke="#000" stroke-linecap="round" stroke-miterlimit="10" stroke-width="2.5"/>
    <path id="Path_19" data-name="Path 19" d="M288.588,350.07c-7.593,8.656-19.008,30.854-19.008,34.821,0,10.031,33.864,54.211,38.172,54.211,1.8-3.115,4.669-9.574,4.669-9.574s-20.342-37.936-24.073-42.841c3.23-3.009,14.956-18.787,16.872-23.692a13.136,13.136,0,0,0,.6-2.056" transform="translate(-85.029 -138.343)" fill="none" stroke="#000" stroke-linecap="round" stroke-miterlimit="10" stroke-width="2.5"/>
    <path id="Path_20" data-name="Path 20" d="M327.152,338.993c-3.832.241-22.032-9.484-22.032-14.248,0-3.832,19.911-24.465,28.5-19.755a5.65,5.65,0,0,1,2.508,3.471" transform="translate(-102.744 -115.525)" fill="none" stroke="#000" stroke-linecap="round" stroke-miterlimit="10" stroke-width="2.5"/>
    <path id="Path_21" data-name="Path 21" d="M412.14,284.314V278" transform="translate(-156.09 -102.418)" fill="none" stroke="#000" stroke-linecap="round" stroke-miterlimit="10" stroke-width="2.5"/>
    <path id="Path_22" data-name="Path 22" d="M383.39,255.68v18c0,2.538,3.606,3.832,7.212,3.842" transform="translate(-141.759 -91.292)" fill="none" stroke="#000" stroke-linecap="round" stroke-miterlimit="10" stroke-width="2.5"/>
    <path id="Path_23" data-name="Path 23" d="M412.14,249.413a9.781,9.781,0,0,0,1.7-.241c7.418-1.73,11.375-11.947,8.837-22.81a29,29,0,0,0-1.971-5.712" transform="translate(-156.09 -73.831)" fill="none" stroke="#000" stroke-linecap="round" stroke-miterlimit="10" stroke-width="2.5"/>
    <path id="Path_24" data-name="Path 24" d="M374.807,235.39a4.724,4.724,0,0,0,1.3,9.263,4.889,4.889,0,0,0,.862-.085c.14.336.286.672.436,1" transform="translate(-135.779 -81.178)" fill="none" stroke="#000" stroke-linecap="round" stroke-miterlimit="10" stroke-width="2.5"/>
    <path id="Path_25" data-name="Path 25" d="M337.68,475.9v.321c4.735,8.661,8.687,16.049,8.687,16.049s-2.874,6.46-4.669,9.574c-.682,0-2.107-1.113-4.012-3.009v152.5h8.682L394.609,475.9C391.5,478.458,348.874,484.476,337.68,475.9Z" transform="translate(-118.974 -201.065)"/>
    <path id="Path_26" data-name="Path 26" d="M340.12,824.906v10.332h18.5l-12.493-5.823V824.66" transform="translate(-120.191 -374.91)" fill="none" stroke="#000" stroke-linecap="round" stroke-linejoin="round" stroke-width="2.5"/>
    <path id="Path_27" data-name="Path 27" d="M522.17,665.406v10.332h18.5l-12.5-5.823V665.16" transform="translate(-210.936 -295.405)" fill="none" stroke="#000" stroke-linecap="round" stroke-linejoin="round" stroke-width="2.5"/>
  </g>
</svg>
